<?xml version="1.0" encoding="UTF-8"?> <svg xmlns="http://www.w3.org/2000/svg" id="OBJECTS" viewBox="0 0 439.08 334.22"><defs><style> .cls-1 { stroke: #1f5b99; } .cls-1, .cls-2 { fill: #fff; } .cls-1, .cls-3 { stroke-width: 1.15px; } .cls-1, .cls-3, .cls-4 { stroke-miterlimit: 10; } .cls-5, .cls-6 { stroke-width: .33px; } .cls-5, .cls-6, .cls-7, .cls-8, .cls-9 { stroke-linecap: round; stroke-linejoin: round; } .cls-5, .cls-6, .cls-7, .cls-8, .cls-9, .cls-3, .cls-4 { fill: none; } .cls-5, .cls-8 { stroke: #fff; } .cls-6, .cls-7, .cls-9, .cls-3 { stroke: #0b334c; } .cls-7 { stroke-width: .93px; } .cls-10 { fill: #fa9778; } .cls-11 { fill: #f64652; } .cls-12 { fill: #ffcba1; } .cls-13 { fill: #ffb285; } .cls-14 { fill: #fcb13a; } .cls-15 { fill: #00a2dd; } .cls-16 { fill: #c4533a; } .cls-17 { fill: #8ee4fd; } .cls-18 { fill: #64e4e6; } .cls-19 { fill: #84d3eb; } .cls-20 { fill: #cc6f49; } .cls-21 { fill: #184778; } .cls-22 { fill: #1f5b99; } .cls-23 { fill: #114d73; } .cls-24 { fill: #0b334c; } .cls-25 { fill: #51bad9; } .cls-26 { fill: #2cd0d1; } .cls-8, .cls-9 { stroke-width: .31px; } .cls-4 { stroke: #8ee4fd; stroke-width: 1.23px; } </style></defs><g><path class="cls-17" d="M72.51,315.26c-.32,0-.62-.16-.8-.45-1.05-1.79-2.12-3.69-3.19-5.65-.24-.45-.08-1.01,.37-1.25,.45-.24,1.01-.08,1.25,.37,1.06,1.94,2.12,3.82,3.16,5.59,.26,.44,.11,1-.33,1.26-.15,.09-.31,.13-.47,.13Zm328.9-3.51s-.08,0-.12,0c-.5-.06-.86-.52-.8-1.03,.24-1.93,.55-4.03,.96-6.43,.09-.5,.56-.83,1.06-.76,.5,.09,.84,.56,.76,1.06-.4,2.37-.71,4.45-.95,6.35-.06,.47-.46,.81-.91,.81Zm-335.09-7.82c-.34,0-.66-.18-.82-.5-.96-1.88-1.93-3.83-2.88-5.8-.22-.46-.03-1.01,.43-1.23,.46-.22,1.01-.03,1.23,.43,.95,1.96,1.91,3.9,2.86,5.76,.23,.45,.05,1.01-.4,1.24-.13,.07-.28,.1-.42,.1Zm337.2-4.92c-.06,0-.12,0-.18-.02-.5-.1-.83-.58-.73-1.08,.4-2.06,.83-4.18,1.27-6.34,.1-.5,.59-.82,1.09-.72,.5,.1,.82,.59,.72,1.09-.45,2.15-.87,4.27-1.27,6.32-.08,.44-.47,.75-.9,.75Zm-342.82-6.7c-.35,0-.68-.2-.84-.54-.89-1.94-1.77-3.93-2.63-5.92-.2-.47,.01-1.01,.48-1.21,.47-.2,1.01,.01,1.21,.48,.86,1.97,1.74,3.95,2.62,5.88,.21,.46,0,1.01-.46,1.22-.12,.06-.25,.08-.38,.08Zm345.43-5.95c-.06,0-.13,0-.19-.02-.5-.11-.81-.6-.71-1.09l1.35-6.31c.11-.5,.59-.82,1.09-.71,.5,.11,.81,.6,.71,1.09l-1.35,6.31c-.09,.43-.47,.73-.9,.73Zm-350.56-5.9c-.36,0-.71-.22-.85-.57-.82-1.99-1.63-4.02-2.4-6.01-.18-.48,.05-1.01,.53-1.19,.47-.18,1.01,.05,1.19,.53,.77,1.98,1.57,4,2.39,5.98,.19,.47-.03,1.01-.5,1.2-.11,.05-.23,.07-.35,.07Zm353.26-6.73c-.06,0-.13,0-.19-.02-.5-.1-.82-.59-.71-1.09,.45-2.13,.88-4.24,1.3-6.31,.1-.5,.59-.83,1.08-.72,.5,.1,.82,.59,.72,1.08-.42,2.08-.86,4.2-1.3,6.33-.09,.43-.47,.73-.9,.73Zm-357.93-5.3c-.38,0-.73-.23-.87-.6-.74-2.02-1.47-4.07-2.17-6.1-.17-.48,.09-1.01,.57-1.17,.48-.17,1.01,.09,1.17,.57,.69,2.01,1.42,4.05,2.15,6.06,.18,.48-.07,1.01-.55,1.18-.1,.04-.21,.06-.32,.06Zm360.45-7.37c-.05,0-.11,0-.17-.02-.5-.09-.83-.57-.74-1.07,.42-2.28,.78-4.41,1.08-6.34,.08-.5,.55-.85,1.05-.77,.5,.08,.85,.55,.77,1.05-.3,1.97-.66,4.06-1.09,6.39-.08,.44-.47,.76-.91,.76Zm-364.65-4.84c-.39,0-.75-.25-.88-.64-.67-2.08-1.31-4.16-1.91-6.19-.14-.49,.13-1,.62-1.15,.49-.14,1,.13,1.15,.62,.6,2.02,1.24,4.09,1.9,6.15,.16,.48-.11,1-.6,1.16-.09,.03-.19,.04-.28,.04Zm366.58-7.93s-.06,0-.09,0c-.51-.05-.87-.5-.82-1.01,.13-1.26,.22-2.43,.28-3.5,0-.88-.02-1.84-.07-2.81-.02-.51,.37-.94,.88-.97,.5-.04,.94,.37,.97,.88,.05,1,.07,1.99,.07,2.95-.06,1.14-.15,2.35-.29,3.64-.05,.47-.45,.83-.92,.83Zm-370.25-4.46c-.41,0-.78-.27-.89-.68-.57-2.1-1.11-4.21-1.62-6.27-.12-.49,.18-.99,.68-1.11,.49-.12,.99,.18,1.11,.68,.5,2.05,1.04,4.14,1.6,6.23,.13,.49-.16,1-.65,1.13-.08,.02-.16,.03-.24,.03Zm369.83-8.4c-.45,0-.85-.33-.91-.79-.29-2.03-.69-4.13-1.18-6.27-.11-.5,.2-.99,.69-1.1,.5-.12,.99,.2,1.1,.69,.5,2.18,.9,4.34,1.2,6.41,.07,.5-.28,.97-.78,1.04-.04,0-.09,0-.13,0Zm-372.88-4.14c-.43,0-.81-.3-.9-.73-.46-2.15-.88-4.3-1.25-6.37-.09-.5,.24-.98,.75-1.07,.51-.09,.98,.24,1.07,.75,.37,2.05,.78,4.17,1.24,6.31,.11,.5-.21,.99-.71,1.09-.06,.01-.13,.02-.19,.02Zm370.04-8.44c-.4,0-.76-.26-.88-.66-.59-1.96-1.26-4.01-2.01-6.08-.17-.48,.08-1.01,.56-1.18,.48-.18,1.01,.08,1.18,.55,.76,2.1,1.44,4.18,2.04,6.17,.15,.49-.13,1-.62,1.15-.09,.03-.18,.04-.26,.04Zm-372.3-4.27c-.45,0-.85-.33-.91-.79-.31-2.2-.56-4.38-.75-6.45-.05-.51,.33-.96,.83-1,.51-.04,.96,.33,1,.83,.19,2.05,.44,4.19,.74,6.37,.07,.5-.28,.97-.79,1.04-.04,0-.09,0-.13,0Zm367.95-7.87c-.36,0-.71-.22-.85-.57-.13-.33-.27-.65-.4-.98-.72-1.62-1.45-3.26-2.18-4.91-.21-.47,0-1.01,.47-1.22,.47-.2,1.01,0,1.22,.47,.72,1.64,1.45,3.28,2.18,4.92,.15,.35,.28,.68,.42,1.01,.19,.47-.03,1.01-.51,1.2-.11,.05-.23,.07-.35,.07Zm-369.12-4.98c-.49,0-.9-.39-.92-.89-.04-1.2-.07-2.4-.07-3.56,0-1,.02-1.99,.05-2.96,.02-.51,.42-.94,.95-.89,.51,.02,.91,.44,.89,.95-.03,.95-.05,1.92-.05,2.89,0,1.14,.02,2.31,.07,3.49,.02,.51-.38,.94-.89,.95-.01,0-.02,0-.03,0Zm363.95-6.84c-.36,0-.7-.21-.85-.56-.85-1.98-1.69-3.97-2.5-5.96-.19-.47,.03-1.01,.5-1.2,.47-.19,1.01,.03,1.2,.5,.81,1.99,1.64,3.96,2.49,5.93,.2,.47-.02,1.01-.48,1.21-.12,.05-.24,.07-.36,.07Zm-363.32-6.02c-.05,0-.1,0-.15-.01-.5-.08-.84-.56-.76-1.06,.36-2.16,.87-4.32,1.51-6.39,.15-.49,.67-.76,1.15-.61,.49,.15,.76,.66,.61,1.15-.61,2-1.1,4.07-1.45,6.16-.08,.45-.47,.77-.91,.77Zm358.46-5.93c-.37,0-.72-.23-.86-.6-.81-2.13-1.52-4.13-2.2-6.1-.16-.48,.09-1.01,.58-1.17,.48-.17,1.01,.09,1.17,.58,.67,1.95,1.38,3.93,2.18,6.04,.18,.48-.06,1.01-.54,1.19-.11,.04-.22,.06-.33,.06Zm-354.69-6.37c-.13,0-.26-.03-.38-.08-.46-.21-.67-.76-.45-1.22,.9-1.96,1.94-3.91,3.11-5.78,.27-.43,.84-.56,1.27-.3,.43,.27,.56,.84,.3,1.27-1.12,1.8-2.13,3.68-3,5.57-.15,.34-.49,.54-.84,.54Zm350.55-5.85c-.4,0-.76-.26-.88-.66-.63-2.12-1.2-4.23-1.7-6.27-.12-.49,.18-.99,.68-1.11,.49-.12,.99,.18,1.12,.68,.49,2.01,1.06,4.09,1.68,6.18,.14,.49-.13,1-.62,1.15-.09,.03-.18,.04-.26,.04Zm-343.77-5.09c-.2,0-.41-.07-.57-.2-.4-.32-.46-.9-.14-1.3,1.33-1.67,2.8-3.31,4.35-4.89,.36-.36,.94-.37,1.3,0,.36,.36,.36,.94,0,1.3-1.51,1.53-2.94,3.13-4.23,4.74-.18,.23-.45,.35-.72,.35Zm340.71-7.44c-.43,0-.82-.31-.9-.75-.26-1.36-.49-2.74-.7-4.11-.08-.84-.14-1.62-.19-2.4-.03-.51,.36-.94,.87-.97,.47-.03,.94,.36,.97,.87,.04,.75,.1,1.51,.17,2.27,.2,1.3,.43,2.66,.68,4,.09,.5-.23,.98-.73,1.08-.06,.01-.12,.02-.17,.02Zm-331.59-1.66c-.26,0-.52-.11-.7-.32-.33-.39-.29-.97,.1-1.3,1.63-1.39,3.31-2.79,4.99-4.14,.4-.32,.98-.26,1.3,.14,.32,.4,.26,.98-.14,1.3-1.66,1.34-3.33,2.72-4.95,4.1-.17,.15-.39,.22-.6,.22Zm10.05-8.1c-.28,0-.55-.13-.73-.36-.31-.41-.23-.98,.18-1.29,1.71-1.3,3.47-2.59,5.22-3.84,.42-.3,.99-.2,1.29,.22,.3,.41,.2,.99-.22,1.29-1.74,1.24-3.48,2.52-5.18,3.81-.17,.13-.36,.19-.56,.19Zm320.67-3.08s-.03,0-.04,0c-.51-.02-.9-.45-.88-.96,.1-2.18,.27-4.31,.45-6.47,.04-.51,.47-.88,.99-.84,.51,.04,.88,.49,.84,1-.18,2.15-.35,4.25-.44,6.4-.02,.49-.43,.88-.92,.88Zm-310.16-4.4c-.3,0-.59-.14-.77-.41-.28-.42-.17-1,.25-1.28,1.78-1.19,3.61-2.38,5.43-3.53,.43-.27,1-.14,1.27,.29,.27,.43,.14,1-.29,1.27-1.81,1.14-3.63,2.32-5.39,3.5-.16,.11-.34,.16-.51,.16Zm10.92-6.87c-.32,0-.62-.16-.79-.45-.26-.44-.11-1,.32-1.26,1.84-1.09,3.73-2.17,5.62-3.22,.45-.25,1.01-.09,1.25,.36,.25,.45,.09,1.01-.36,1.25-1.87,1.04-3.75,2.11-5.57,3.2-.15,.09-.31,.13-.47,.13Zm300.18-1.59s-.04,0-.05,0c-.51-.03-.9-.47-.87-.97,.11-1.83,.16-3.46,.16-4.99l-.16-1.28c-.06-.5,.29-.97,.8-1.03,.51-.06,.97,.29,1.03,.8l.17,1.34s0,.08,0,.11c0,1.59-.05,3.27-.17,5.16-.03,.49-.43,.87-.92,.87Zm-288.91-4.68c-.33,0-.65-.18-.82-.49-.24-.45-.06-1.01,.39-1.24,1.89-.98,3.83-1.97,5.77-2.92,.46-.23,1.01-.04,1.23,.42,.22,.46,.04,1.01-.42,1.23-1.93,.95-3.86,1.93-5.73,2.9-.14,.07-.28,.1-.43,.1Zm11.58-5.69c-.35,0-.68-.2-.84-.54-.21-.46-.01-1.01,.45-1.22,1.5-.7,3.02-1.38,4.54-2.05l.81-.81c.36-.36,.94-.36,1.3,0,.36,.36,.36,.94,0,1.3l-.93,.93c-.08,.08-.18,.15-.28,.19-1.56,.69-3.12,1.39-4.67,2.1-.13,.06-.26,.09-.39,.09Zm276.33-2.44c-.43,0-.81-.3-.9-.74-.46-2.27-1.04-4.24-1.76-6.03-.19-.47,.04-1.01,.51-1.2,.47-.19,1.01,.04,1.2,.51,.76,1.89,1.36,3.97,1.85,6.34,.1,.5-.22,.99-.72,1.09-.06,.01-.12,.02-.19,.02Zm-265.54-4.36c-.32,0-.62-.16-.79-.45-.26-.44-.11-1,.33-1.26,2.17-1.28,3.87-2.37,5.37-3.43,.42-.29,.99-.19,1.28,.22,.29,.42,.2,.99-.22,1.28-1.54,1.09-3.29,2.21-5.5,3.51-.15,.09-.31,.13-.47,.13Zm260.65-7.47c-.29,0-.57-.13-.75-.38-.39-.55-.82-1.09-1.26-1.6-.94-1.07-1.92-2.12-2.9-3.13-.36-.36-.35-.95,0-1.3,.36-.36,.95-.35,1.3,0,1.01,1.03,2.02,2.11,2.98,3.21,.48,.56,.94,1.14,1.37,1.73,.3,.41,.21,.99-.21,1.29-.16,.12-.35,.18-.54,.18Zm-250.23-.09c-.24,0-.48-.09-.66-.28-.35-.37-.35-.95,.02-1.3,1.38-1.34,2.57-2.72,3.64-4.22,.03-.04,.06-.08,.1-.12,.18-.18,.36-.35,.54-.51,.37-.34,.96-.32,1.3,.06,.34,.38,.32,.96-.06,1.3-.14,.13-.28,.26-.42,.4-1.12,1.56-2.37,3.01-3.81,4.41-.18,.17-.41,.26-.64,.26Zm9.24-8.91c-.24,0-.47-.09-.65-.27-.36-.36-.36-.94,0-1.3l.04-.04c1.19-1.44,2.5-3.07,3.95-4.9,.32-.4,.9-.47,1.29-.15,.4,.32,.47,.9,.15,1.29-1.46,1.84-2.78,3.48-4.03,4.99-.02,.02-.08,.08-.1,.1-.18,.18-.42,.27-.65,.27Zm231.99-.22c-.21,0-.42-.07-.59-.22-1.6-1.35-3.3-2.65-5.05-3.87-.42-.29-.52-.87-.23-1.28,.29-.42,.87-.52,1.28-.23,1.8,1.25,3.54,2.59,5.19,3.97,.39,.33,.44,.91,.11,1.3-.18,.22-.44,.33-.71,.33Zm-10.56-7.38c-.16,0-.32-.04-.46-.12-1.51-.87-3.11-1.73-4.75-2.55-.26-.11-.56-.24-.87-.37-.47-.2-.69-.74-.49-1.21,.2-.47,.74-.69,1.21-.49,.31,.13,.62,.26,.93,.4,1.72,.86,3.35,1.74,4.89,2.63,.44,.25,.59,.82,.34,1.26-.17,.3-.48,.46-.8,.46Zm-213.39-2.51c-.2,0-.4-.06-.56-.19-.4-.31-.47-.89-.16-1.29l1.42-1.83c.85-1.09,1.69-2.19,2.54-3.27,.31-.4,.89-.47,1.29-.16,.4,.31,.47,.89,.16,1.29-.85,1.09-1.69,2.18-2.54,3.27l-1.42,1.83c-.18,.23-.45,.36-.73,.36Zm201.66-2.79c-.1,0-.2-.02-.31-.05-1.95-.68-4-1.34-6.09-1.95-.49-.14-.77-.65-.63-1.14,.14-.49,.65-.77,1.14-.63,2.12,.62,4.2,1.29,6.19,1.98,.48,.17,.73,.69,.56,1.17-.13,.38-.49,.62-.87,.62Zm-12.37-3.64c-.07,0-.15,0-.22-.03-1.98-.49-4.03-.95-6.26-1.42-.5-.1-.82-.59-.71-1.09,.1-.5,.6-.82,1.09-.71,2.25,.47,4.32,.94,6.32,1.43,.49,.12,.8,.62,.68,1.11-.1,.42-.48,.7-.89,.7Zm-12.62-2.68c-.06,0-.11,0-.17-.02-2.1-.39-4.22-.77-6.34-1.13-.5-.09-.84-.56-.75-1.07,.09-.5,.57-.84,1.07-.75,2.13,.37,4.25,.75,6.36,1.14,.5,.09,.83,.57,.74,1.07-.08,.44-.47,.75-.91,.75Zm-168.71-1.07c-.2,0-.41-.07-.58-.2-.4-.32-.46-.9-.14-1.3,1.48-1.85,2.82-3.48,4.11-5.01,.33-.39,.91-.44,1.3-.11,.39,.33,.44,.91,.11,1.3-1.28,1.51-2.61,3.14-4.08,4.97-.18,.23-.45,.35-.72,.35Zm156-1.16c-.05,0-.1,0-.16-.01-2.12-.36-4.24-.73-6.37-1.1-.5-.09-.84-.57-.75-1.07,.09-.5,.56-.84,1.07-.75,2.12,.38,4.24,.74,6.35,1.1,.5,.09,.84,.56,.75,1.06-.08,.45-.47,.77-.91,.77Zm-12.71-2.28c-.06,0-.12,0-.18-.02-2.27-.44-4.34-.87-6.34-1.31-.5-.11-.81-.6-.7-1.1,.11-.5,.6-.81,1.1-.7,1.98,.44,4.04,.86,6.3,1.3,.5,.1,.83,.58,.73,1.08-.09,.44-.47,.75-.9,.75Zm-12.64-2.58c-.05,0-.11,0-.17-.01-2.11-.39-4.26-.88-6.37-1.46-.49-.14-.78-.64-.64-1.13,.14-.49,.65-.78,1.13-.64,2.06,.57,4.15,1.05,6.21,1.42,.5,.09,.83,.57,.74,1.07-.08,.44-.47,.76-.91,.76Zm-12.43-3.41c-.11,0-.21-.02-.32-.06-1.42-.52-2.86-1.09-4.27-1.7-.59-.26-1.18-.52-1.76-.79-.46-.21-.67-.76-.45-1.22,.21-.46,.76-.67,1.22-.45,.58,.26,1.15,.52,1.73,.78,1.37,.59,2.78,1.15,4.17,1.66,.48,.18,.72,.7,.55,1.18-.14,.37-.49,.6-.87,.6Zm-109.87-.42c-.22,0-.44-.08-.62-.24-.38-.34-.4-.93-.06-1.3,1.55-1.69,3.02-3.23,4.51-4.69,.36-.36,.95-.35,1.3,.01,.36,.36,.35,.95-.01,1.3-1.46,1.44-2.91,2.95-4.44,4.62-.18,.2-.43,.3-.68,.3Zm98.09-4.85c-.14,0-.28-.03-.41-.1-1.92-.97-3.83-1.97-5.75-2.98-.45-.24-.62-.8-.39-1.25,.24-.45,.79-.62,1.25-.39,1.91,1.01,3.81,2,5.72,2.96,.45,.23,.64,.78,.41,1.24-.16,.32-.49,.51-.82,.51Zm-88.87-4.17c-.26,0-.52-.11-.7-.32-.33-.39-.29-.97,.1-1.3,1.69-1.45,3.42-2.81,5.12-4.04,.41-.3,.99-.2,1.29,.21,.3,.41,.2,.99-.21,1.29-1.67,1.2-3.35,2.53-5,3.94-.17,.15-.39,.22-.6,.22Zm77.43-1.82c-.14,0-.29-.03-.43-.11-1.9-1-3.8-2-5.71-2.97-.45-.23-.64-.78-.4-1.24,.23-.45,.78-.64,1.24-.41,1.92,.97,3.83,1.97,5.74,2.98,.45,.24,.62,.8,.39,1.25-.17,.31-.49,.49-.82,.49Zm-66.96-5.68c-.32,0-.63-.16-.8-.46-.26-.44-.11-1,.33-1.26,1.9-1.1,3.86-2.11,5.82-2.99,.46-.21,1.01,0,1.22,.47,.21,.46,0,1.01-.47,1.22-1.91,.85-3.81,1.83-5.65,2.9-.15,.09-.31,.13-.46,.13Zm55.44-.11c-.13,0-.26-.03-.39-.09-2.07-.96-4-1.79-5.87-2.54-.47-.19-.7-.73-.51-1.2,.19-.47,.73-.7,1.2-.51,1.91,.76,3.86,1.61,5.96,2.58,.46,.21,.66,.76,.45,1.22-.16,.34-.49,.53-.84,.53Zm-11.99-4.73c-.09,0-.18-.01-.28-.04-2.09-.66-4.16-1.2-6.15-1.62-.5-.1-.82-.59-.71-1.09,.1-.5,.59-.82,1.09-.71,2.05,.43,4.17,.99,6.32,1.66,.49,.15,.76,.67,.6,1.16-.12,.39-.49,.65-.88,.65Zm-31.7-.4c-.39,0-.75-.25-.88-.64-.16-.48,.11-1,.6-1.16,.77-.25,1.56-.48,2.35-.7,1.33-.37,2.68-.68,4-.93,.5-.1,.98,.24,1.07,.74,.09,.5-.24,.98-.74,1.07-1.28,.24-2.57,.54-3.85,.89-.77,.21-1.53,.44-2.28,.68-.09,.03-.19,.04-.28,.04Zm19.09-2.2s-.05,0-.08,0c-2.12-.19-4.22-.24-6.32-.14-.53,0-.94-.37-.96-.88-.02-.51,.37-.94,.88-.96,2.19-.1,4.37-.05,6.57,.14,.51,.04,.88,.49,.84,1-.04,.48-.44,.84-.92,.84Z"></path><g><path class="cls-17" d="M28.29,165.03c0,2.29-1.86,4.15-4.15,4.15s-4.15-1.86-4.15-4.15,1.86-4.15,4.15-4.15,4.15,1.86,4.15,4.15Z"></path><g><circle class="cls-17" cx="408.48" cy="119.87" r="10.6" transform="translate(78.42 388.73) rotate(-55.52)"></circle><circle class="cls-4" cx="405.71" cy="104.2" r="11.52"></circle></g><g><circle class="cls-17" cx="141.66" cy="41.07" r="7.37"></circle><circle class="cls-4" cx="152.26" cy="43.37" r="7.83"></circle></g><circle class="cls-4" cx="40.28" cy="142.45" r="4.61"></circle><circle class="cls-4" cx="406.63" cy="171.48" r="5.07"></circle></g></g><g><g><path class="cls-18" d="M313.55,116.18s-2.3-53.92-18.89-67.28c-16.59-13.36-1.38,57.14,18.89,67.28Z"></path><g><path class="cls-26" d="M308.79,109.11c-5.06-7.04-6.88-16.31-4.86-24.74,.45-1.86,1.13-3.78,2.59-5.02,1.6-1.36,3.9-1.66,5.97-1.28,2.07,.38,3.97,1.36,5.84,2.33-.7-4.23-.57-8.79-.55-13.08,.02-3.58,.32-7.29,2.04-10.43,1.72-3.14,5.18-5.57,8.73-5.09,4.07,.56,6.71,4.46,8.81,7.98,1.17-5.63,4.11-11.25,7.9-15.58,3.55-4.05,8.93-7.4,14.11-5.92,4.35,1.25,7.22,5.7,7.78,10.19,.56,4.49-.78,9.01-2.49,13.2-1.86,4.57-4.18,8.96-6.91,13.07,3.19-.34,7.65,.02,9.6,2.56,1.4,1.83,1.56,4.38,.99,6.62-.88,3.49-3.3,6.43-6.16,8.61-2.86,2.18-6.17,3.68-9.45,5.17,4.77,1.94,7.5,8.09,5.47,12.82-1.2,2.78-3.62,4.85-6.19,6.46-6.92,4.33-15.48,5.95-23.5,4.45-8.02-1.5-14.95-5.71-19.71-12.34Z"></path><g><line class="cls-7" x1="359.02" y1="40.3" x2="323.53" y2="112.34"></line><line class="cls-7" x1="326.6" y1="53.2" x2="340.43" y2="77.78"></line><line class="cls-7" x1="322" y1="56.12" x2="338.12" y2="82.7"></line><line class="cls-7" x1="354.87" y1="93.14" x2="333.06" y2="93.45"></line></g></g><g><path class="cls-26" d="M317.6,112.74s-24.94-41.19-43.65-44.53c-18.71-3.34,23.44,45.3,43.65,44.53Z"></path><line class="cls-7" x1="273.3" y1="71.48" x2="301.87" y2="99.29"></line></g></g><g><g><path class="cls-18" d="M83.9,300.51s-29.19-61.75-4.3-76.19c24.88-14.44,8.6,76.5,8.6,76.5l-4.3-.31Z"></path><g><path class="cls-26" d="M82.98,294.06s-15.98-47-29.19-47-3.38,24.88,25.5,48.23l3.69-1.23Z"></path><line class="cls-7" x1="51.11" y1="250.28" x2="72.53" y2="283.46"></line></g></g><path class="cls-26" d="M52.1,315.26s-9.98-9.52-5.53-18.28c4.45-8.76,17.36-5.99,17.36-5.99,0,0-5.68-11.98,4.45-17.36,10.14-5.38,18.43,8.14,18.43,8.14,0,0,5.53-15.51,27.8-15.05,22.27,.46,20.89,24.27,20.89,24.27,0,0,5.53-5.07,12.6-.46,7.07,4.61,0,13.36,0,13.36,0,0,6.91,2,6.45,11.21l-102.46,.15Z"></path></g></g><g><g><path class="cls-1" d="M91.32,88.23h234.31c4.41,0,7.98,3.58,7.98,7.98V247.67H83.34V96.21c0-4.41,3.58-7.98,7.98-7.98Z"></path><path class="cls-22" d="M91.32,88.23h234.31c4.41,0,7.98,3.58,7.98,7.98v4H83.34v-4c0-4.41,3.58-7.98,7.98-7.98Z"></path></g><g><circle class="cls-15" cx="267.46" cy="175.44" r="5.99" transform="translate(35.45 395.63) rotate(-76.76)"></circle><circle class="cls-14" cx="287.13" cy="175.44" r="5.99" transform="translate(-39.96 254.41) rotate(-45)"></circle><circle class="cls-11" cx="306.79" cy="175.44" r="5.99" transform="translate(-41.68 116.56) rotate(-20.17)"></circle></g><g><g><rect class="cls-3" x="161.06" y="114.64" width="90.62" height="116.76"></rect><rect class="cls-1" x="248.28" y="169.65" width="6.74" height="6.74"></rect><rect class="cls-1" x="248.28" y="228.03" width="6.74" height="6.74"></rect><rect class="cls-1" x="248.28" y="111.48" width="6.74" height="6.74"></rect><rect class="cls-1" x="157.65" y="111.48" width="6.74" height="6.74"></rect><rect class="cls-1" x="157.34" y="169.65" width="6.74" height="6.74"></rect><rect class="cls-1" x="157.34" y="227.6" width="6.74" height="6.74"></rect><rect class="cls-1" x="203" y="111.69" width="6.74" height="6.74" transform="translate(91.31 321.44) rotate(-90)"></rect><rect class="cls-1" x="203" y="226.76" width="6.74" height="6.74" transform="translate(-23.76 436.51) rotate(-90)"></rect></g><g><g><path class="cls-14" d="M236.85,155.95c0-16.61-13.2-30.13-29.68-30.65-17.04-.54-31.56,13.44-31.65,30.49-.04,8.32,3.22,15.87,8.56,21.42,4.97,5.17,7.9,11.95,7.9,19.12v1.21h28.41v-1.2c0-7.06,2.72-13.86,7.67-18.89,5.44-5.53,8.8-13.12,8.8-21.49Z"></path><path class="cls-24" d="M192.05,197.16h28.27v14.18c0,5.32-4.32,9.63-9.63,9.63h-9c-5.32,0-9.63-4.32-9.63-9.63v-14.18h0Z"></path><path class="cls-23" d="M219.11,211.96l-26.8-5.43c-1.09-.22-1.88-1.18-1.88-2.3h0c0-1.48,1.36-2.59,2.81-2.3l26.8,5.43c1.09,.22,1.88,1.18,1.88,2.3h0c0,1.48-1.36,2.59-2.81,2.3Z"></path><path class="cls-24" d="M219.11,207.18l-26.8-5.43c-1.09-.22-1.88-1.18-1.88-2.3h0c0-1.48,1.36-2.59,2.81-2.3l26.8,5.43c1.09,.22,1.88,1.18,1.88,2.3h0c0,1.48-1.36,2.59-2.81,2.3Z"></path><path class="cls-24" d="M219.11,216.75l-26.8-5.43c-1.09-.22-1.88-1.18-1.88-2.3h0c0-1.48,1.36-2.59,2.81-2.3l26.8,5.43c1.09,.22,1.88,1.18,1.88,2.3h0c0,1.48-1.36,2.59-2.81,2.3Z"></path><path class="cls-24" d="M209.35,199.89l-1.58-.2c1.35-10.52,2.98-21.11,4.85-31.6-1.83,1.08-4.01,1.82-6.44,2.15-1.71,.23-3.93,.31-6.15-.26,2.97,9.05,5.02,18.4,6.12,27.86l-1.58,.18c-1.13-9.76-3.29-19.4-6.43-28.7-.53-.24-1.06-.52-1.57-.86-1.7-1.13-3.03-2.87-3.66-4.77-.35-1.06,.12-2.13,1.13-2.61,1.01-.48,2.14-.15,2.74,.79,.82,1.3,1.4,2.77,1.9,4.15,.25,.69,.49,1.39,.73,2.08,1.89,.68,4.15,.88,6.57,.55,1.88-.26,4.68-.94,7.04-2.72,.46-2.53,.94-5.05,1.42-7.57,.11-.58,.27-1.38,.82-1.99,.37-.42,.93-.68,1.48-.69,.46-.02,.91,.15,1.22,.46,.43,.42,.54,.99,.58,1.43,.16,1.56,0,2.99-.49,4.24-.76,1.95-1.97,3.62-3.57,4.97-1.99,10.99-3.71,22.09-5.13,33.12Zm-14.37-37.43c-.12,0-.22,.04-.27,.06-.13,.06-.43,.25-.29,.67,.5,1.54,1.57,2.95,2.93,3.88-.06-.17-.12-.33-.18-.5-.47-1.3-1.01-2.67-1.75-3.85-.13-.21-.3-.26-.44-.26Zm21.81-5.18c-.09,0-.25,.05-.36,.17-.24,.26-.33,.69-.44,1.23-.34,1.77-.68,3.55-1.01,5.34,.62-.79,1.16-1.71,1.58-2.78,.39-1.01,.52-2.19,.39-3.5-.03-.35-.09-.43-.11-.45,0,0-.02,0-.04,0Z"></path></g><g><line class="cls-8" x1="193.73" y1="197.1" x2="220.31" y2="202.7"></line><line class="cls-8" x1="192.12" y1="211.15" x2="219.31" y2="216.91"></line></g></g></g></g><g><g><path class="cls-24" d="M146.61,240.53h9.71c1.28,0,2.32,1.04,2.32,2.32v12.02c0,1.33-1.08,2.4-2.4,2.4h-9.55c-1.33,0-2.4-1.08-2.4-2.4v-12.02c0-1.28,1.04-2.32,2.32-2.32Z"></path><rect class="cls-14" x="144.29" y="245.43" width="8.37" height="7.77"></rect><path class="cls-14" d="M144.09,241.16v.38c0,.37,.29,.68,.67,.7,.41,.01,.82,.06,1.16,.25,.75,.41,1.26,1.21,2.07,1.48,.82,.27,1.71-.08,2.43-.56,.89-.59,1.66-1.39,2.75-1.6,.49-.09,1.01-.03,1.42,.25,.86,.58,.72,1.61,.76,2.52,.02,.57,.12,1.13,.3,1.67,.15,.45,.37,.91,.76,1.18,.39,.27,.99,.29,1.3-.07,.18-.21,.24-.51,.27-.79,.08-.71,.09-1.42,.01-2.13-.04-.39-.11-.79-.02-1.17,.06-.27,.21-.53,.43-.68,.19-.14,.32-.35,.32-.58v-.84c0-.5-.4-.9-.9-.9h-12.83c-.5,0-.9,.4-.9,.9Z"></path></g><g><g><rect class="cls-21" x="72.62" y="257.19" width="5.53" height="57.99"></rect><rect class="cls-22" x="52.04" y="257.19" width="5.53" height="57.99"></rect></g><g><rect class="cls-21" x="137.04" y="257.19" width="5.53" height="57.99"></rect><rect class="cls-22" x="157.62" y="257.19" width="5.53" height="57.99"></rect></g><rect class="cls-22" x="52.18" y="257.2" width="110.97" height="5.53"></rect></g><g><g><g><g><path class="cls-10" d="M139.88,212.82c-1.63-.83-2.34-.43-5.5-1.11-.47-.1-1.07-.21-1.74-.31-.92,3.68-1.96,7.33-2.62,11.09-.06,.34-.11,.68-.17,1.03,1.72-.12,3.44-.21,5.17-.27-1.46,9.67-3.39,21.33-4.77,31.03,1.05,.17,1.74,.91,2.94,.46,3.57-6.3,9.31-24.23,10.38-29.13,1.07-4.9,1.03-3.75,1.06-5.27,.08-5.3-.56-5.37-4.74-7.51Z"></path><line class="cls-9" x1="135.26" y1="222.4" x2="135.03" y2="223.33"></line></g><path class="cls-22" d="M133.51,254s-1.88,1.24-3.3,0l-.3,.82c-.26,.72-.4,1.48-.4,2.24v.23s9.86,0,9.86,0h0c0-.71-.45-1.35-1.11-1.59l-4.75-1.71Z"></path></g><g><g><path class="cls-10" d="M102.79,245.28c-1.65-.22-3.29-.44-4.89-.73,.07,.9,.14,1.79,.21,2.66-11.34-.8-28.65,1.82-32.19,2.39-.42,.06-.65,.1-.65,.1l-.3,3.06,.92,.12,33.29,4.25,3.1,.4c4.45,.57,8.5-2.64,8.96-7.1l.39-3.76,.03-.32c-2.96-.25-5.9-.68-8.87-1.07Z"></path><path class="cls-9" d="M98.17,247.29s2.59,.69,2.94,.98"></path></g><path class="cls-22" d="M65.91,252.82s-1.2-1.91,.07-3.3l-.82-.32c-.71-.28-1.47-.43-2.23-.44h-.23s-.22,9.85-.22,9.85h0c.71,.02,1.36-.42,1.61-1.08l1.81-4.72Z"></path></g><g><path class="cls-11" d="M100.95,209.89s-3.53,9.37-3.53,12.6v23.19l14.13,1.54,4.45-21.81,17.51-1.08,2.46-13.82-13.78-2.25-21.24,1.64Z"></path><g><line class="cls-9" x1="116.97" y1="218.03" x2="116.04" y2="225.25"></line><line class="cls-9" x1="134.4" y1="210.42" x2="131.98" y2="223.84"></line><line class="cls-9" x1="97.82" y1="244.01" x2="111.36" y2="245.56"></line><line class="cls-9" x1="116.31" y1="223.61" x2="132.04" y2="222.92"></line><path class="cls-9" d="M101.74,211.75s-2.82,7.55-2.82,11.06-.06,21.31-.06,21.31"></path><line class="cls-9" x1="105.25" y1="211.69" x2="99.95" y2="217.51"></line></g></g></g><g><g><path class="cls-10" d="M145.21,189c-.56-.78-1.64-.99-2.43-.46-.02,0-.04,.03-.06,.04l-.05,.04c-1.72,1.23-3.51,2.47-5.3,3.64-1.8,1.18-3.6,2.33-5.44,3.44-2.8,1.69-5.65,3.29-8.53,4.68-.27-.75-.52-1.5-.76-2.26-.56-1.75-1.06-3.51-1.54-5.28-.46,.26-.9,.5-1.3,.68-1.94,.89-3.87,1.72-5.91,2.26,.51,1.62,1.05,3.23,1.66,4.82,.33,.86,.68,1.71,1.04,2.57,.52,1.24,1.07,2.48,1.65,3.7v.03c.74,1.45,2.51,2.06,3.95,1.34,.48-.24,.96-.49,1.43-.74,.7-.38,1.4-.76,2.08-1.17,1.29-.74,2.55-1.52,3.77-2.34,.95-.62,1.86-1.27,2.77-1.91,.9-.66,1.81-1.33,2.69-2.01,3.5-2.7,6.79-5.55,9.95-8.65,.04-.04,.07-.07,.11-.11,.61-.61,.72-1.59,.2-2.3Z"></path><path class="cls-10" d="M142.6,188.97s1.18-3.19,1.68-3.16c.51,.03,.51,1.7,.51,1.7,0,0,2.92-2.33,3.3-2.08,.38,.26-1.85,2.3-1.85,2.3,0,0,2.15-1.29,2.56-.99,.41,.31-2.29,2.03-2.29,2.03,0,0,2.43-.78,2.64-.27,.2,.51-2.78,1.3-2.78,1.3,0,0,1.81-.16,1.89,.23,.07,.39-3.91,1.54-3.91,1.54l-1.74-2.61Z"></path><path class="cls-22" d="M114.47,198.27s-5.07-12.15-1.32-14.63c3.74-2.48,6.34,1.61,6.57,2.71s2.48,9.85,2.48,9.85l-7.72,2.07Z"></path></g><g><path class="cls-10" d="M113.94,180.42v-7.12h-5.6v7.12c0,.86-.69,1.55-1.55,1.55h0c6.35,9.23,8.75,0,8.75,0h-.06c-.86,0-1.55-.69-1.55-1.55Z"></path><path class="cls-24" d="M113.94,177.78v1.18c-.27,.02-.55,0-.82-.05-1.21-.23-2.93-.79-4-2.11-.26-.31-.52-.77-.78-1.31v-.18c.09,.15,.19,.28,.28,.4,1.07,1.32,2.79,1.87,4,2.11,.44,.09,.89,.07,1.32-.04Z"></path></g><g><path class="cls-22" d="M119.62,184.62c-.61-.82-1.86-1.7-3.02-2.42l.41-.35-3-1.08-1.54,4.92-4.13-5.28-3.02,.9,.46,.28c-1.48,.29-4.95,1.51-5.23,5.74-.28,4.15-.73,21.71-.8,24.62,0,.22,.18,.39,.4,.36l15.08-1.66,1.23-1.54,1.69,1.69,6.87-2.12s-4.11-22.31-5.41-24.07Z"></path><g><polyline class="cls-9" points="112.48 187.41 112.48 185.68 105.71 181.56"></polyline><line class="cls-9" x1="116.54" y1="182.28" x2="112.48" y2="185.68"></line><rect class="cls-9" x="116.05" y="189.83" width="4" height=".78"></rect><line class="cls-9" x1="116.54" y1="209.04" x2="116.54" y2="202.9"></line></g></g><g><g><g><path class="cls-22" d="M145.49,183.3h1.82c.09,0,.16,.07,.16,.16v6.61c0,.09-.07,.16-.16,.16h-1.82c-.09,0-.16-.07-.16-.16v-6.61c0-.09,.07-.16,.16-.16Z" transform="translate(352.98 303.54) rotate(157.57)"></path><path class="cls-22" d="M145.63,185.79l-1.9-4.6-4.83,1.99c-.69,.29-1.48-.05-1.76-.73l-1.29-3.12c-.14-.33-.14-.7,0-1.04,.14-.33,.4-.59,.73-.73l5-2.06,.28,.68-5,2.06c-.15,.06-.27,.18-.33,.33-.06,.15-.06,.32,0,.47l1.29,3.12c.13,.31,.49,.46,.8,.33l5.51-2.27,2.18,5.28-.68,.28Z"></path><rect class="cls-14" x="137.44" y="172.72" width="14.75" height="3.81" rx="1.03" ry="1.03" transform="translate(345.29 280.79) rotate(157.57)"></rect></g><path class="cls-10" d="M148.42,188.03c.02-.26-.33-.94-.33-.94,0-.48-.65-1.02-.65-1.02,0,0,.28-.72-.2-.98-.31-.16-.82,.22-1.15,.52-.52,.32-.93,.59-.93,.59,0,0,.15-1.66-.35-1.74-.39-.06-1.34,1.76-1.76,2.59-.02,0-.03,.02-.05,.03l-.05,.03c-1.82,1.07-3.71,2.15-5.6,3.15-1.9,1.02-3.8,2.01-5.72,2.95-3.29,1.6-6.64,3.1-10,4.3-1.41-1.23-2.79-2.53-4.14-3.86-.61-.6-1.21-1.21-1.8-1.83-1,.81-2,1.62-2.97,2.46-.48,.53-.95,1.06-1.42,1.6-.37,.42-.74,.85-1.1,1.27,.71,.68,1.43,1.35,2.17,2,.27,.24,.54,.47,.82,.71,1.45,1.24,2.93,2.46,4.48,3.6,.13,.1,.26,.19,.4,.29,1.23,.88,2.83,1.08,4.22,.49,0,0,.02,0,.02,0,1.68-.73,3.32-1.49,4.91-2.32,.41-.22,.82-.43,1.23-.66,1-.53,1.96-1.1,2.94-1.65,.96-.58,1.92-1.16,2.86-1.76,3.72-2.38,7.24-4.92,10.67-7.73,0,0,0,0,0,0,.76-.16,2.12-.46,2.89-.73,0,0,0,0,0,0,.4-.06,.79-.15,.94-.28,.32-.28-.33-1.05-.33-1.05Zm-1.89,.6s.03,0,.05,0h0s-.05,0-.05,0Z"></path></g><g><polygon class="cls-24" points="116.66 192.82 111.55 198.42 113.11 199.8 116.66 192.82"></polygon><path class="cls-9" d="M119.04,199.17s2.04-1.42,2.65-1.65"></path><path class="cls-9" d="M122.69,204.01s15.71-8.14,22.35-13.98l1.57-.38"></path></g><g><path class="cls-22" d="M111.24,198.84l-8.93-9.62s-1.71-3.96,1.04-5.82c2.75-1.86,5.47,.17,6.51,1.38s6.97,7.89,6.97,7.89l-5.59,6.16Z"></path><g><polyline class="cls-9" points="103.58 190.72 111.19 198.96 111.59 198.5"></polyline><line class="cls-9" x1="109.96" y1="197.62" x2="115.97" y2="191.91"></line></g></g></g></g><g><g><path class="cls-10" d="M116.92,167.48c-.67-3.04-3.74-4.9-6.76-4.11-2.78,.74-4.49,3.48-4,6.23-.04,.01-.08,.02-.12,.03-.78,.32-1.16,1.22-.84,2,.29,.7,1.3,1.5,2.07,1.44,.44,1.12,.89,2.08,1.34,2.63,1.07,1.32,2.79,1.87,4,2.11,.91,.18,1.84-.07,2.54-.67,.65-.55,1.43-1.35,1.94-2.35,.23-.44,.41-.93,.5-1.45,.05-.27,.06-.6,.05-.96-.02-1.31-.34-3.14-.73-4.9Z"></path><g><path class="cls-24" d="M113.6,170.55c.38,.79,1.17,2.5-.21,2.69,.33-.5,.24-.66,.11-1.19-.09-.44-.19-1.02,.1-1.5h0Z"></path><g><path class="cls-24" d="M112.19,169.42c-.55,0-1.03-.07-1.47,.35-.06,.06-.15,.05-.2,0-.07-.8,1.21-1.22,1.83-.81,.24,.13,.11,.51-.16,.47h0Z"></path><path class="cls-24" d="M114.93,168.95c.65-.38,1.65-.05,1.86,.68,.04,.13-.13,.23-.22,.14-.45-.44-.96-.34-1.52-.36-.25,0-.33-.36-.11-.47h0Z"></path></g><g><path class="cls-24" d="M116.11,171.26c0,.44-.22,.79-.49,.79s-.49-.35-.49-.79,.22-.79,.49-.79,.49,.35,.49,.79Z"></path><path class="cls-24" d="M112.16,171.26c0,.44-.22,.79-.49,.79s-.49-.35-.49-.79,.22-.79,.49-.79,.49,.35,.49,.79Z"></path></g><g><path class="cls-24" d="M113.51,175.18c-.23,.14-.57,.16-.78-.03,.28,0,.5-.03,.78,.03h0Z"></path><path class="cls-24" d="M114.43,174.32c-.45,.81-1.86,.91-2.2-.07,.72,.6,1.42,.47,2.2,.07h0Z"></path></g><path class="cls-24" d="M111.66,174.04s-.05-.86,1.8-.82c0,0,1.23,.03,1.45,.86,0,0-.9,.75-3.25-.04Z"></path></g></g><path class="cls-24" d="M106.93,166.62s-.03,0-.04-.01c-1.2-.29-2.47,.35-2.87,1.52-.03,.1-.07,.2-.09,.31-.44,1.69-.05,3.55,.97,4.98,.84,1.18,2.07,2.06,3.45,2.53v-.63c-.36-.56-.72-1.35-1.07-2.24-.77,.06-1.79-.74-2.06-1.44-.2-.49-.13-1.02,.14-1.43,.33-.5,1.04-.58,1.55-.25,.33,.21,.61,.5,.73,.91,0,0,.65,.12,.88-.15,.12-.14-.01-1.12-.03-2.08-.02-.94-.64-1.79-1.55-2.01Z"></path><path class="cls-24" d="M118.47,168.79c0-.13,0-.25,0-.37,0-.08,0-.16-.01-.25,0-.02,0-.04,0-.06,0-.02,0-.04,0-.07-.24-2.12-1.84-1.56-1.84-1.56,.12,.25,.28,.75,.28,.75,0,0,.76,3.82,.79,5.13,0,.21,0,.41-.02,.6,.25-.61,.43-1.24,.53-1.89,.08-.55,.2-1.16,.26-1.76,.02-.16,.03-.34,.03-.54Z"></path></g></g></g><g><g><g><polygon class="cls-14" points="265.07 295.4 261.09 300.73 265.23 300.73 265.07 295.4"></polygon><polygon class="cls-14" points="297.69 295.4 301.67 300.73 297.53 300.73 297.69 295.4"></polygon><rect class="cls-14" x="265.07" y="295.4" width="32.64" height="17.43"></rect><polygon class="cls-14" points="299.94 302.56 262.84 302.56 265.07 295.4 297.71 295.4 299.94 302.56"></polygon></g><g><polygon class="cls-24" points="297.68 295.46 299.41 300.7 300.85 300.7 297.68 295.46"></polygon><polygon class="cls-24" points="297.68 302.54 265.06 302.54 265.06 305.13 297.68 302.54"></polygon></g></g><g><g><g><path class="cls-24" d="M225.28,294.43l1.85,4.45h-15.4s-1.69,2.57-3.37,5.72c-2.57,4.84-.4,10.84,4.68,12.9,6.23,2.52,13.27,1.84,18.87-1.77,10.22-2.68,23.19-6.94,27.03-11.99,4.94-6.5-33.67-9.3-33.67-9.3Z"></path><g><path class="cls-5" d="M226.92,299.12s-2.06,8.23,2.3,9.22,20.41-4.03,19.84-8.81"></path><line class="cls-5" x1="228.65" y1="298.79" x2="239.93" y2="297.22"></line><path class="cls-5" d="M214.08,305.79l7,.25s.25,8.56-2.96,8.81c-3.21,.25-5.76-2.63-4.03-9.05Z"></path><path class="cls-5" d="M211.53,300.43s7.82,1.07,14.98,.49"></path></g></g><path class="cls-15" d="M239.42,316.86c-2.26-.16-2.81-3.25-.74-4.18,4.33-1.96,10.08-4.23,11.95-3.44,2.56,1.08-2.92,8.21-11.21,7.62Z"></path></g><g><g><g><path class="cls-12" d="M247.01,275.02c-.35-1.46-.73-2.96-.88-3.53-.03-.08-.05-.17-.07-.25-.34-1.15-.67-2.29-1.04-3.43-1.42-4.49-3.09-8.81-5.06-13.11,.06-1.2,.17-3.85-.15-3.9-.42-.07-.91,1.81-.91,1.81,0,0,.29-3.28-.3-3.27-.59,.02-.69,2.74-.69,2.74,0,0-.75-3.35-1.21-3.04-.46,.3,.06,2.93,.06,2.93,0,0-1.24-2.98-1.63-2.7-.4,.29,.88,4.07,.88,4.07,0,0-1.67-.61-1.89-.11-.17,.39,1.46,1.88,2.2,2.53,0,0,0,0,0,0,0,.02,0,.03,0,.05v.06c.61,2.17,1.21,4.42,1.74,6.65,.53,2.23,1.03,4.46,1.47,6.71,.24,1.2,.45,2.4,.66,3.6-3.04,.54-6.15,.88-9.29,1.11-.74,.05-1.49,.09-2.24,.13,.17,1.92,.27,3.84,.31,5.78,.02,.79,.07,1.58,.13,2.36,.86-.08,1.72-.16,2.58-.27,2.4-.32,4.8-.7,7.19-1.21,.77-.17,1.53-.35,2.3-.54,.77-.19,2.15-.6,3.46-1.01,1.75-.55,2.78-2.36,2.35-4.14Z"></path><path class="cls-6" d="M240.15,272.76s.37,2.65,.86,3.58"></path></g><path class="cls-11" d="M230.38,282.33s-13.99,2.55-16.87-1.32c-2.88-3.87,1.73-6.91,2.63-7s13.42-.16,13.42-.16l.82,8.48Z"></path></g><g><path class="cls-12" d="M221.53,273.09v-7.6h-5.98v7.6c0,.91-.63,1.73-1.54,1.73l-.46,.09c8.6,7.1,9.7-.17,9.7-.17h-.06c-.91,0-1.66-.74-1.66-1.66Z"></path><path class="cls-24" d="M221.53,270.15v1.75c-.69-.32-1.36-.76-1.91-1.37-.24-.27-.47-.62-.71-1.06,.81,.36,1.63,.55,2.31,.65,.1,.02,.2,.03,.31,.03Z"></path></g><path class="cls-11" d="M215.13,274.27s7.27,.07,8.17,.48c.91,.41,5.1,4.45,5.68,6.91,.58,2.47-2.96,9.8-2.55,11.19,.41,1.4,2.01,6.01,2.01,6.01h-17.32s2.22-8.56,.16-13.66c-2.06-5.1-1.53-10.75,3.85-10.93Z"></path><g><path class="cls-12" d="M276.85,300.97c-.07-.48-4-1.14-4-1.14,0,0,1.33-1.19,.99-1.62-.26-.33-2.34,.4-3.26,.74-.02,0-.03-.01-.05-.02h-.06c-2.2-.51-4.46-1.04-6.67-1.64-2.22-.58-4.43-1.2-6.61-1.87-4.36-1.33-8.64-2.84-12.65-4.68-3.96-1.84-7.76-4.17-11.45-6.7-1.23-.84-2.44-1.72-3.64-2.61-.25,.47-.51,.94-.75,1.41-.99,1.91-1.96,3.99-3.07,5.97,1.02,.68,2.05,1.34,3.1,1.98,2.07,1.25,4.19,2.45,6.37,3.54,2.2,1.07,4.45,2.08,6.77,2.92,2.31,.82,4.63,1.56,6.96,2.14,1.16,.32,2.33,.57,3.5,.85,1.17,.25,2.34,.5,3.51,.71,4.63,.86,9.24,1.44,13.96,1.74,1.03,.63,3.3,1.96,3.5,1.7,.26-.34-1.17-1.66-1.17-1.66,0,0,2.75,1.81,3.02,1.28,.26-.53-2.09-1.9-2.09-1.9,0,0,3.3,.92,3.25,.37-.05-.54-2.61-1.33-2.61-1.33,0,0,3.21,.32,3.15-.17Z"></path><g><path class="cls-11" d="M228.16,290.97s-14.32-6.42-13.01-12.59,6.91-3.37,8.97-1.15c2.06,2.22,8.96,6.83,8.96,6.83l-4.93,6.92Z"></path><g><path class="cls-6" d="M226.94,290.47s-8.83-5.19-11.3-8.33"></path><line class="cls-6" x1="230.09" y1="281.89" x2="223.42" y2="276.58"></line></g></g></g></g><g><g><path class="cls-12" d="M227.27,264.39c-.09-.13-.23-.23-.35-.33-.29-.25-.49-.55-.65-.89-.16-1.26-.5-2.77-.88-4.24-.84-3.22-4.19-5.08-7.37-4.11-3.18,.97-4.92,4.39-3.82,7.52,.82,2.33,1.79,4.7,2.68,5.71,1.19,1.36,3.05,1.89,4.35,2.08,.97,.15,1.96-.15,2.69-.82,.67-.61,1.47-1.5,1.97-2.59,.14-.3,.25-.62,.34-.96,.31-.24,.62-.48,.92-.71,.07-.06,.15-.12,.19-.2,.07-.14,.03-.32-.07-.45Z"></path><g><path class="cls-13" d="M223.58,265.4c0,.77-.62,1.39-1.39,1.39s-1.39-.62-1.39-1.39,.62-1.39,1.39-1.39,1.39,.62,1.39,1.39Z"></path><path class="cls-24" d="M224.59,261.04c-.59,0-1.11-.07-1.58,.38-.1,.1-.28-.02-.24-.15,.11-.36,.43-.7,.83-.81,.37-.14,1.43-.14,1.26,.45-.06,.1-.17,.14-.27,.14h0Z"></path><g><path class="cls-24" d="M224.17,267.04c-.29,.04-.63-.08-.76-.35,.28,.12,.51,.18,.76,.35h0Z"></path><path class="cls-24" d="M225.43,266.57c-.78,.62-2.2,.13-2.14-.97,.46,.89,1.2,1.05,2.14,.97h0Z"></path></g><path class="cls-24" d="M224.8,263.27c-.74-.13-1.01-.06-1.74,.05,.24-.76,1.5-.83,1.74-.05h0Z"></path></g></g><path class="cls-24" d="M226.02,257.15c-.33-1.27-1.12-2.43-2.22-3.12-.64-.41-1.37-.65-2.12-.78-1.75-.32-3.61,.02-5.15,.91-.53,.31-1.03,.67-1.49,1.07-.59,.5-1.15,1.05-1.6,1.68-.78,1.1-.97,2.55-1.21,3.87-.35,2.01-1.21,3.87-2.15,5.67-.42,.82-.88,1.63-1.15,2.52-.27,.89-.34,1.87,0,2.73,.37,.92,1.21,1.62,2.15,1.92,.69,.21,2.7,.33,4.01,.44,1.11,.1,2.25-.15,3.12-.83,3.5-2.71-1.3-8.13-1.3-8.13-2.88-2.1-.45-3.46-.45-3.46,.58,.07,1.14,.08,1.67,.04,.26,.38,.53,1.02,.39,1.93,0,0,1.27-1.29,1.68-2.3,2.79-.84,4.56-2.76,4.91-3.17,.11,.25,.2,.51,.27,.79,.16,.59,.31,1.2,.43,1.79,.4-1.14,.48-2.38,.19-3.56Z"></path></g></g></g><g><g><polygon class="cls-17" points="250.57 28.43 259.48 33.5 268.85 15.22 250.57 28.43"></polygon><polygon class="cls-19" points="250.57 28.43 250.26 35.19 255.94 31.51 250.57 28.43"></polygon><polygon class="cls-25" points="250.26 35.19 247.03 27.51 268.85 15.22 250.57 28.43 250.26 35.19"></polygon><polygon class="cls-17" points="268.85 15.22 239.66 24.9 247.03 27.51 268.85 15.22"></polygon></g><g><g><polygon class="cls-17" points="383.96 186.96 350.57 186.96 350.57 148.56 375.72 148.56 383.96 157.53 383.96 186.96"></polygon><polygon class="cls-17" points="375.72 148.56 373.42 157.64 383.96 157.53 375.72 148.56"></polygon></g><polyline class="cls-7" points="375.61 148.48 373.46 157.7 383.9 157.62"></polyline></g><g><path class="cls-15" d="M106.06,76.35c2.35-.71,4.76-.39,6.76,.7l-6.46-21.36-19.52,5.91c.13-1.15,.03-2.33-.32-3.51-1.4-4.63-6.29-7.24-10.92-5.84-4.63,1.4-7.24,6.29-5.84,10.92,.35,1.17,.94,2.21,1.68,3.1l-19.52,5.91,6.46,21.36c1.06-2.02,2.89-3.62,5.23-4.33,4.62-1.4,9.51,1.22,10.91,5.84,1.4,4.63-1.21,9.52-5.84,10.92-2.35,.71-4.76,.39-6.76-.7l6.46,21.36,19.52-5.91c-.13,1.15-.03,2.33,.32,3.51,1.4,4.63,6.29,7.24,10.92,5.84,4.63-1.4,7.24-6.29,5.84-10.92-.35-1.17-.94-2.21-1.68-3.1l19.52-5.91-6.46-21.36c-1.06,2.02-2.89,3.62-5.23,4.33-4.62,1.4-9.52-1.21-10.92-5.85-1.4-4.62,1.22-9.51,5.85-10.91Z"></path><g><line class="cls-7" x1="69.42" y1="123.79" x2="86.7" y2="118.72"></line><line class="cls-7" x1="88.55" y1="63.65" x2="105.6" y2="58.23"></line></g></g></g><g><g><g><path class="cls-20" d="M354.09,303.81l.57,8.9,3.09-.15s.83-3.62,1.75-8.75h-5.41Z"></path><path class="cls-24" d="M354.59,311.85s1.89,1.25,3.32,0l.3,.83c.26,.72,.4,1.49,.4,2.26v.23s-9.92,0-9.92,0h0c0-.72,.45-1.35,1.12-1.6l4.78-1.72Z"></path></g><g><path class="cls-20" d="M369.62,303.81l.94,8.98,3.08-.23s.69-3.61,1.44-8.75h-5.47Z"></path><path class="cls-24" d="M370.53,311.84s1.89,1.25,3.32,0l.3,.83c.26,.72,.4,1.49,.4,2.26v.23s-9.92,0-9.92,0h0c0-.72,.45-1.35,1.12-1.6l4.78-1.72Z"></path></g></g><g><g><path class="cls-20" d="M351.48,214.9c-.12,.28-.23,.56-.34,.84-1.66,3.88-3.51,7.64-5.74,11.11-2.26,3.48-4.91,6.84-7.71,10.1-1.4,1.63-2.85,3.23-4.32,4.82-1.46,1.59-2.99,3.15-4.5,4.66l-.04,.04c-.7,.7-.7,1.84,0,2.54,.63,.63,1.62,.69,2.32,.18,3.66-2.64,7.08-5.46,10.38-8.52,.83-.76,1.63-1.55,2.44-2.33,.79-.81,1.59-1.6,2.36-2.44,1.57-1.64,3.04-3.39,4.46-5.22,1.43-1.84,2.71-3.78,3.92-5.74,1.19-1.97,2.27-3.99,3.29-6.03,.28-.56,.53-1.13,.79-1.69-2.48-.65-4.93-1.38-7.32-2.31Z"></path><path class="cls-20" d="M329.24,246.41s-3.36,.63-3.42,1.14c-.05,.51,1.6,.79,1.6,.79,0,0-2.8,2.51-2.61,2.93,.19,.42,2.59-1.45,2.59-1.45,0,0-1.64,1.92-1.41,2.38,.23,.46,2.4-1.94,2.4-1.94,0,0-1.18,2.28-.71,2.57s1.76-2.54,1.76-2.54c0,0-.47,1.77-.09,1.91,.37,.14,2.18-3.62,2.18-3.62l-2.3-2.16Z"></path><path class="cls-14" d="M362.5,209.02c-.07,.19-.13,.39-.2,.58-1.51,4.17-3.86,9.21-3.86,9.21l-.32-.12-2.23-.85-1.23-.47h0l-.05-.02-3.56-1.36-.31-.12s.49-1.17,1.14-2.79h0c.45-1.12,.97-2.44,1.47-3.73,.04-.13,.1-.26,.15-.39,.16-.43,.32-.86,.47-1.27,0,0,.01-.02,.01-.03,.23-.63,.45-1.23,.62-1.75,.16-.46,.29-.87,.39-1.21,.29-1.05,.92-1.82,1.64-2.4,.99-.79,2.15-1.2,2.88-1.43,.01,0,.03,0,.04-.02,0,0,.01,0,.01,0,.17-.05,.32-.09,.43-.13,0,0,.01,0,.02,0,.01,0,.04,0,.06-.01h.02c.88-.12,2.44,1.46,3.19,3.33,0,.02,0,.02,0,.03,.05,.12,.1,.24,.13,.36,0,.01,0,.03,.01,.04,.22,.69-.23,2.47-.95,4.55Z"></path></g><g><path class="cls-20" d="M367.69,201.16c-.61,.9-1.2,1.58-1.76,2.08-.3,.27-.6,.48-.88,.65-.27,.16-.54,.28-.79,.37-.28,.09-.55,.14-.82,.16-.07,0-.16,0-.23,0-.37,0-.71-.06-1.03-.18-.5-.16-.96-.43-1.36-.76-.02,0-.04-.02-.05-.04-.44-.36-.81-.76-1.11-1.14-.15-.19-.28-.38-.39-.55-.16-.22-.26-.4-.32-.51-.04-.07-.06-.1-.06-.1h.05c.06,0,.12,0,.17,0,.36-.04,.67-.2,.91-.43,.03-.02,.05-.04,.07-.07h0c.25-.28,.4-.65,.4-1.05v-7.16h5.63v2.02h0v5.14c0,.29,.08,.57,.22,.81,.1,.18,.25,.34,.43,.46,.11,.09,.25,.16,.38,.2,.16,.07,.34,.1,.53,.1Z"></path><path class="cls-24" d="M366.13,194.46v.18c-.26,.55-.53,1.01-.79,1.32-1.07,1.33-2.8,1.88-4.02,2.12-.28,.05-.55,.07-.82,.04v-1.19c.43,.1,.88,.13,1.32,.04,1.22-.23,2.95-.79,4.03-2.12,.09-.11,.19-.25,.28-.4Z"></path></g><g><path class="cls-14" d="M369.57,216.82c-.43,1.7-.64,3.08-.32,3.74,.93,1.92,1.7,3.65,1.7,3.65h-17.94s.98-1.15,1.79-2.73c.38-.75,.73-1.58,.93-2.44h0c.09-.4,.15-.79,.16-1.19,.02-.52-.03-1.02-.19-1.5l-.02-.07c-.89-2.63-2.11-4.85-2.32-6.72,0-.07-.01-.14-.01-.21-.04-.48,0-.93,.14-1.37,.18-.57,.58-1.29,1.11-2.07,.75-1.08,1.75-2.26,2.74-3.25,.15-.15,.3-.29,.44-.42,.4-.37,.79-.7,1.17-.98,.05-.04,.11-.07,.16-.11,.15-.11,.3-.2,.44-.29,0,0,.01,0,.01,0,.04-.02,.08-.04,.12-.06h.02s.4-.2,.4-.2v.04s0,.07,0,.07c-.03,.4-.05,1.82,.68,2.75,0,.01,.01,.02,.03,.04,.28,.36,.69,.63,1.26,.75,.04,0,.07,.01,.1,.01,.4,.06,.77-.02,1.13-.19,.01,0,.03-.01,.04-.02,1.6-.77,2.82-3.28,2.98-3.61v.04c-.03,.12,0,.34,.43,.49,.1,.04,.25,.07,.42,.1,.18,.02,.39,.04,.65,.04,.06,0,.12,0,.19,0,.65,0,1.29,.13,1.86,.45,1.11,.62,2.66,1.96,2.48,4.56,0,.06,0,.12-.01,.19-.25,2.47-1.6,6.31-2.47,9.45-.04,.16-.08,.31-.12,.46-.06,.2-.11,.4-.16,.6Z"></path><g><path class="cls-24" d="M375.74,279.58c1.71,8.56,1.22,18.51,.37,25.96h-8.11l-5.3-52.46-.02-.24v.26s-1.76,26.55-1.76,26.55c1.3,7.14,.35,17.88-.72,25.89h-7.3c-.85-13.99-2.35-38.39-3.3-53.03,0-.03,0-.05,0-.08-.16-2.56-.32-4.81-.45-6.66-.15-2.2-.27-3.81-.35-4.68-.22-2.38,.19-5.19,.88-8.02,.12-.49,.25-.99,.38-1.47,.55-2,1.2-3.96,1.85-5.73,.16-.45,.32-.87,.49-1.29,.46-1.24,.91-2.35,1.28-3.26,.44-1.11,.77-1.93,.89-2.34,.11-.39,.12-.96,.05-1.64,0-.02,0-.05,0-.07h0c-.04-.42-.11-.87-.2-1.34-.22-1.17-.55-2.47-.87-3.59-.25-.92-.31-1.87-.16-2.78,.04-.2,.07-.4,.13-.6,.11-.44,.27-.87,.47-1.27,0,0,.01-.02,.01-.03,.15-.29,.32-.58,.52-.84l2.97-4.12,.32-.45,.61-.84,.5-.24h0l.61-.28,.18-.08h.02s.4-.2,.4-.2v.04s-.01,0-.01,0v.06s-.44,1.61-.44,1.61l-.22,.83-1.44,5.47,4.51,.4,.64,.06,1.72-4.68,.19-.51,1.26-3.41v-.04s.02-.04,.02-.04h.02s1.47,.61,1.47,.61v.1s-.18,.88-.18,.88l-.52,2.93-.91,5.08,2.81,5.71,.25,.49,.3,.62,1.92,3.9s.22,.67,.66,1.93c.98,2.83,2.98,8.61,5.75,16.38,3.99,11.21-2.15,40.55-2.15,40.55Z"></path><g><polyline class="cls-8" points="359.42 201.24 357.06 209.19 363.62 209.71 366.85 200.66"></polyline><line class="cls-8" x1="360.17" y1="254.58" x2="365.47" y2="251.47"></line><line class="cls-8" x1="361.49" y1="232.75" x2="374.97" y2="232.75"></line><path class="cls-8" d="M370.65,232.81s.46,10.25,5.82,10.77"></path><path class="cls-8" d="M373.07,232.81s3.74,8.06,3.51,12.56c-.23,4.49-2.88,34.85-2.88,34.85v23.9"></path><path class="cls-8" d="M361.09,253.89l-1.32,25.75s-.34,12.39-1.14,24.84"></path></g></g></g><g><g><g><rect class="cls-2" x="297.41" y="200.76" width="60.21" height="60.21" transform="translate(-72.89 215.42) rotate(-32.97)"></rect><g><rect class="cls-17" x="303.24" y="206.59" width="48.54" height="48.54" transform="translate(-72.89 215.42) rotate(-32.97)"></rect><path class="cls-26" d="M356.29,230.63l4.79,7.38-40.73,26.42-7.19-11.08c1.41-4.26,4.03-8.16,7.85-10.47,3.23-1.95,7.04-2.63,10.75-3.28,6.44-1.12,16.92-6.59,24.52-8.97Z"></path><path class="cls-14" d="M331.53,216.17c1.57,2.42,.88,5.65-1.54,7.22-2.42,1.57-5.65,.88-7.22-1.54s-.88-5.65,1.54-7.22,5.65-.88,7.22,1.54Z"></path></g></g><polygon class="cls-9" points="336.42 189.2 285.91 221.99 318.51 272.57 369.21 239.85 336.42 189.2"></polygon></g><g><path class="cls-20" d="M365.06,215.17c0,.95,0,1.91-.03,2.86-.04,1.47-.1,2.92-.2,4.37-2.41-.11-4.84-.32-7.27-.59-2.14-.24-4.28-.53-6.41-.85-2.14-.31-4.29-.7-6.38-1.09h-.06s-.03-.02-.05,0c0,0,0,0,0,0-.67-.64-2.21-2.06-2.56-1.87-.45,.24,.25,1.77,.25,1.77,0,0-3.65-.9-3.89-.5-.24,.39,2.66,1.32,2.66,1.32,0,0-2.51-.27-2.76,.18-.25,.45,2.95,.89,2.95,.89,0,0-2.55,.31-2.52,.87,.03,.55,3.09,.02,3.09,.02,0,0-1.73,.61-1.63,1,.07,.3,2.53,0,3.66-.16h0c4.19,1.5,8.39,2.72,12.72,3.71,1.1,.26,2.2,.48,3.31,.7,1.11,.2,2.21,.41,3.34,.57,.29,.05,.58,.09,.88,.13,.72,.11,1.81,.23,2.9,.33,2.24,.22,4.29-1.3,4.69-3.52,0-.01,0-.03,0-.04,.16-.95,.29-1.91,.41-2.86,.18-1.33,.3-2.65,.41-3.96,.07-.88,.11-1.75,.15-2.63-2.58,.07-5.22-.15-7.68-.62Z"></path><path class="cls-14" d="M373.21,205.56c0,.34-.02,.61-.02,.75,0,.81-.28,10.03-.28,10.03h-.18s-2.99-.11-2.99-.11l-.46-.02-4.21-.15h-.23s.87-6.49,2.01-11.2c.25-1.08,.53-2.07,.81-2.86,.12-.33,.23-.62,.35-.87,4.73-.08,5.19,2.94,5.21,4.45Z"></path></g></g></g><g><g><path class="cls-20" d="M369.28,190.76c-.29,.7-1.31,1.51-2.09,1.45-.34,.89-.7,1.68-1.06,2.24h0c-.1,.16-.19,.29-.28,.4-1.08,1.33-2.81,1.89-4.03,2.12-.45,.09-.9,.07-1.32-.03-.45-.11-.87-.33-1.23-.64-.66-.56-1.44-1.36-1.95-2.37-.24-.45-.41-.93-.5-1.46-.04-.27-.06-.6-.05-.96,.02-1.32,.34-3.16,.74-4.93,.67-3.06,3.77-4.94,6.79-4.13,2.8,.74,4.52,3.5,4.03,6.27,.04,.02,.08,.02,.12,.04,.78,.32,1.17,1.22,.84,2.01Z"></path><g><g><path class="cls-16" d="M362.55,192.63c0,.72,.59,1.31,1.31,1.31s1.31-.59,1.31-1.31-.59-1.31-1.31-1.31-1.31,.59-1.31,1.31Z"></path><path class="cls-16" d="M358.73,192.63c0,.72-.58,1.31-1.31,1.31-.04,0-.07,0-.11,0-.24-.45-.41-.93-.5-1.46-.04-.27-.06-.6-.05-.96,.19-.12,.42-.19,.66-.19,.72,0,1.31,.58,1.31,1.31Z"></path></g><path class="cls-24" d="M360.84,189.66c.29,.49,.19,1.07,.1,1.51-.13,.53-.22,.69,.11,1.19-1.39-.19-.59-1.91-.21-2.71h0Z"></path><g><path class="cls-24" d="M362.1,188.06c.65-.38,1.66-.05,1.87,.68,.04,.13-.13,.24-.23,.14-.45-.44-.97-.35-1.53-.36-.25,0-.33-.36-.11-.47h0Z"></path><path class="cls-24" d="M359.35,188.53c-.55,0-1.04-.07-1.48,.35-.06,.06-.15,.05-.2,0-.07-.8,1.22-1.22,1.84-.82,.25,.13,.11,.51-.16,.47h0Z"></path></g><g><ellipse class="cls-24" cx="358.81" cy="190.38" rx=".49" ry=".8"></ellipse><path class="cls-24" d="M362.3,190.38c0,.44,.22,.8,.49,.8s.49-.36,.49-.8-.22-.8-.49-.8-.49,.36-.49,.8Z"></path></g><g><path class="cls-24" d="M361.99,193.38c.23-.16,.45-.22,.71-.33-.12,.26-.44,.37-.71,.33h0Z"></path><path class="cls-24" d="M360.8,192.95c.88,.07,1.58-.08,2.01-.92,.06,1.04-1.27,1.5-2.01,.92h0Z"></path></g></g></g><path class="cls-24" d="M374.82,199.33c-.4-1.91-1.1-3.81-2.65-4.98,.42-1.47,.4-3.09-.16-4.52-.55-1.43-1.52-2.71-2.92-3.33,.15-1.09-3.33-7.71-10.37-4.66-1.59,.69-2.33,2.58-2.12,4.6-1.11,.98-1.69,2.46-1.79,3.93-.1,1.48,.22,2.95,.7,4.36,.27,.78,.59,1.6,.94,2.35-.58,.52-.91,1.28-.97,2.05s.13,1.55,.49,2.23c.17,.34,.39,.66,.64,.96,.99-.79,2.15-1.2,2.88-1.43l.18-.08h.02c.14-.09,.28-.16,.4-.2v.04c.24-.28,.39-.64,.39-1.04v-2.64c-.45-.11-.87-.33-1.23-.64-.66-.56-1.44-1.36-1.95-2.37-.24-.45-.41-.93-.5-1.46-.04-.27-.06-.6-.05-.96,.02-.96,.19-2.19,.44-3.48,.68,.03,2.13-.11,3.58-1.47,0,0,.56,3.39,4.64,3.02,0,0-.25,1.68,.62,1.81,.65,.09,1.76-1.73,2.29-2.67,.03,.01,.07,.02,.11,.03,.78,.32,1.17,1.22,.84,2.01-.29,.7-1.31,1.51-2.09,1.45-.34,.89-.7,1.68-1.06,2.24h0v5.14c0,.29,.08,.57,.22,.81l1.47,.61v.1s.1,0,.17,0c4.73-.08,5.19,2.94,5.21,4.45,.85-1.17,1.63-2.43,1.79-3.85,.09-.8-.01-1.6-.18-2.38Z"></path></g></g></svg> 