<?xml version="1.0" encoding="UTF-8"?> <svg xmlns="http://www.w3.org/2000/svg" viewBox="0 0 510.91 334.22"><defs><style> .cls-1 { fill: #f7a491; } .cls-2 { fill: #f79c8d; } .cls-3 { fill: #f48c7f; } .cls-4 { fill: #f47458; } .cls-5 { fill: #f7cc7f; } .cls-6 { fill: #042a44; } .cls-7 { fill: #fff; } .cls-8 { fill: #fae0b2; } .cls-9 { fill: #efefef; } .cls-10 { fill: #7f1ca0; } .cls-11 { fill: #b75742; } .cls-12 { fill: #327f6b; } .cls-13 { fill: #13375b; } .cls-14 { fill: #07345a; } .cls-15 { fill: #355389; } .cls-16 { fill: #184655; } .cls-17 { fill: #3c8f7c; } .cls-18 { fill: #466eb6; } .cls-19 { fill: #86b1f2; } .cls-20 { fill: #50bfa5; } .cls-21 { fill: #daeef7; mix-blend-mode: multiply; } .cls-22 { isolation: isolate; } .cls-23 { fill: #9bc1f9; opacity: .3; } </style></defs><g class="cls-22"><g id="OBJECTS"><g><g><g><path class="cls-23" d="M448.61,246.03h-56.54c6.05-5.56,9.91-13.98,9.91-23.41v-6.93c0-20.07,14.59-36.34,32.59-36.34h0c18.45,0,33.41-16.68,33.41-37.25h0c0-20.57-14.96-37.25-33.41-37.25h-5.47c-18,0-32.59-16.27-32.59-36.34h0c0-16.75-12.17-30.32-27.19-30.32H156.84c-16.72,0-30.27,15.11-30.27,33.75h0c0,12.74,6.33,23.83,15.68,29.58h-37.32c-15.57,0-28.18,13.02-28.18,29.09h0c0,19.25-15.12,34.86-33.77,34.86h-5.67c-19.12,0-34.62,16-34.62,35.73h0c0,19.73,15.5,35.73,34.62,35.73h0c18.65,0,33.77,15.61,33.77,34.85v6.65c0,16.06,12.62,29.09,28.18,29.09H230.4c.99,.1,1.99,.15,3.01,.15h215.2c17.02,0,30.81-13.79,30.81-30.81h0c0-17.02-13.79-30.81-30.81-30.81Z"></path><g><path class="cls-18" d="M138.87,209.05c-.86,0-1.56,.99-1.56,2.21,0,1.22,.69,2.22,1.55,2.22s1.56-.99,1.56-2.21c0-1.22-.69-2.22-1.55-2.22Zm0,.63c.46,0,.83,.23,.83,.51,0,.28-.37,.51-.84,.51-.46,0-.83-.23-.83-.51,0-.28,.37-.51,.84-.51Zm0,2.97c-.65,0-1.18-.36-1.17-.79,0-.44,.53-.79,1.18-.79,.65,0,1.18,.36,1.17,.79,0,.44-.53,.79-1.18,.79Z"></path><path class="cls-10" d="M135.35,213.93c-.33,.7-.5,1.47-.5,2.24l-.04,16.21c0,.98,.8,1.77,1.79,1.78l9.27,.02c.99,0,1.79-.79,1.79-1.77l.04-16.21c0-.77-.17-1.54-.49-2.25l-11.86-.03Z"></path><path class="cls-10" d="M135.35,213.93c-.33,.7-.5,1.47-.5,2.24l-.04,16.21c0,.98,.8,1.77,1.79,1.78l9.27,.02c.99,0,1.79-.79,1.79-1.77l.04-16.21c0-.77-.17-1.54-.49-2.25l-11.86-.03Z"></path><path class="cls-4" d="M147.7,216.21l-.04,16.21c0,.98-.81,1.77-1.79,1.77l-9.27-.02c-.99,0-1.79-.8-1.79-1.78l.04-16.21c0-.77,.17-1.54,.5-2.24l11.86,.03c.32,.71,.49,1.47,.49,2.24Z"></path><path class="cls-3" d="M137.27,232.39l.04-16.21c0-.77,.17-1.54,.5-2.24h-2.46c-.33,.7-.5,1.46-.5,2.24l-.04,16.21c0,.98,.8,1.77,1.79,1.78h2.46c-.99,0-1.79-.79-1.79-1.77Z"></path><path class="cls-11" d="M147.7,216.21l-.04,16.21c0,.98-.81,1.77-1.79,1.77h-3.79c1,0,1.81-.8,1.81-1.78l.04-16.21c0-.77-.17-1.54-.49-2.24h3.77c.32,.71,.49,1.48,.49,2.25Z"></path><path class="cls-13" d="M147.21,213.96l-11.86-.03h0c0-.52,.43-.94,.95-.94l9.97,.02c.52,0,.95,.42,.95,.94h0Z"></path><rect class="cls-15" x="140.23" y="223.78" width="2.01" height="12.85" transform="translate(-89.32 370.88) rotate(-89.86)"></rect></g><g><path class="cls-19" d="M123.67,208.72h1.42c-.23-.16-.52-.25-.84-.25h-35.51c-1.86,0-3.36,1.33-3.36,2.98v1.89c0,1.65,1.51,2.98,3.36,2.98h35.11s-.18-7.6-.18-7.6Z"></path><path class="cls-18" d="M103.51,208.47c-1.78,0-3.22,1.28-3.22,2.85v2.14c0,1.57,1.44,2.85,3.22,2.85h22.1v-.48h-.09l-5.62-.47-1.14-3.95s2.19-2.18,2.34-2.24c.14-.06,4.42-.23,4.42-.23h.09v-.48h-22.1Z"></path><path class="cls-8" d="M124.18,212.38c0-2.31,1.35-3.43,1.35-3.43h-21.56c-1.63,0-2.95,1.17-2.95,2.62v1.65c0,1.45,1.32,2.62,2.95,2.62h21.56s-1.35-.55-1.35-3.46Z"></path><path class="cls-21" d="M101.01,211.57v1.65c0,.22,.03,.43,.09,.63,.73-1.58,2.12-3.1,4.77-3.59,6.19-1.14,19.66-1.31,19.66-1.31h-21.56c-1.63,0-2.95,1.17-2.95,2.62Z"></path><path class="cls-20" d="M123.09,224.42h1.6c-.26-.2-.59-.32-.95-.32h-40.19c-2.1,0-3.81,1.67-3.81,3.73v2.37c0,2.06,1.7,3.73,3.81,3.73h39.74s-.21-9.52-.21-9.52Z"></path><path class="cls-17" d="M100.27,224.11c-2.01,0-3.64,1.6-3.64,3.57v2.68c0,1.97,1.63,3.57,3.64,3.57h25.02v-.6h-.1l-6.36-.59-1.29-4.94s2.48-2.73,2.64-2.8c.16-.07,5-.28,5-.28h.1v-.6h-25.02Z"></path><path class="cls-8" d="M123.67,229c0-2.89,1.52-4.29,1.52-4.29h-24.41c-1.85,0-3.34,1.47-3.34,3.28v2.06c0,1.81,1.5,3.28,3.34,3.28h24.41s-1.52-.69-1.52-4.33Z"></path><path class="cls-21" d="M97.44,227.99v2.06c0,.27,.03,.53,.1,.79,.82-1.97,2.4-3.88,5.4-4.49,7.01-1.43,22.25-1.64,22.25-1.64h-24.41c-1.85,0-3.34,1.47-3.34,3.28Z"></path><path class="cls-4" d="M78.43,216.55h-1.6c.26-.16,.59-.25,.95-.25h40.2c2.1,0,3.81,1.33,3.81,2.96v1.88c0,1.64-1.71,2.96-3.81,2.96h-39.75s.21-7.55,.21-7.55Z"></path><path class="cls-11" d="M101.25,216.31c2.01,0,3.64,1.27,3.64,2.83v2.13c0,1.56-1.63,2.83-3.64,2.83h-25.03v-.48h.1l6.36-.47,1.29-3.92s-2.48-2.17-2.64-2.22c-.16-.06-5-.23-5-.23h-.1v-.47h25.03Z"></path><path class="cls-8" d="M77.85,220.19c0-2.29-1.52-3.41-1.52-3.41h24.41c1.85,0,3.35,1.16,3.35,2.6v1.64c0,1.44-1.5,2.6-3.35,2.6h-24.41s1.52-.55,1.52-3.43Z"></path><path class="cls-21" d="M104.08,219.38v1.64c0,.22-.03,.42-.1,.62-.82-1.57-2.4-3.08-5.41-3.56-7.01-1.13-22.26-1.3-22.26-1.3h24.41c1.85,0,3.35,1.16,3.35,2.6Z"></path></g><rect class="cls-16" x="214" y="219.61" width="3.84" height="87.9" transform="translate(52.86 -35.6) rotate(10.73)"></rect><polygon class="cls-16" points="334.66 307.5 339.19 307.5 322.3 220.01 318.53 220.73 334.66 307.5"></polygon><polygon class="cls-16" points="251.66 307.5 256.2 307.5 239.3 220.01 235.53 220.73 251.66 307.5"></polygon><polygon class="cls-16" points="293.36 307.5 289.67 307.55 305.87 220.41 309.64 221.12 293.36 307.5"></polygon><path class="cls-8" d="M276.91,102.19c14.92,1.6,34.24,3.28,53.63,36.19,21.19,35.96,10.04,89.68-6.69,104.61-16.73,14.93-71.35,33.36-117.28,5.77,0,0-27.73-16.72-13.5-44.48,21.9-42.71,18.8-51.61,28.6-68.35,9.79-16.74,23.56-37.13,55.24-33.74Z"></path><path class="cls-5" d="M330.54,138.38c-13.23-22.46-26.43-30.37-38.22-33.64,4.56,4.72,9.19,10.79,13.81,18.65,21.19,35.96,10.04,89.68-6.69,104.61-14.83,13.24-59.47,29.23-101.42,13.43,4.31,4.77,8.55,7.33,8.55,7.33,45.92,27.59,100.55,9.16,117.28-5.77,16.73-14.93,27.88-68.65,6.69-104.61Z"></path><path class="cls-3" d="M69.85,127.68c-.42,3.34,3.05,5.98,6.14,5.77,3.42-.23,6.31-3.03,6.81-6.39,.54-3.63-1.64-6.54-5.02-6.8-3.29-.26-5.39,2.67-4.44,5.62,.68,2.12,2.61,2.91,3.59,2.32,.76-.46,.71-1.6-.21-1.81-.37-.08-.75,.12-.94,.41-.8-.32-1.57-1.78-1.05-3.36,.66-2.02,3.22-2.13,4.8-1.19,2.02,1.2,2.34,3.78,1.59,5.84-.78,2.16-2.9,3.86-5.21,4.02-2.62,.19-4.92-1.82-5.13-4.42-.05-.62-.87-.6-.94,0Z"></path><g><path class="cls-8" d="M299.82,16.32c-15.45-.09-28.01,7.53-28.07,17.02-.03,4.74,3.08,9.06,8.12,12.2l-6.35,13.95,13.26-10.8c3.84,1.25,8.21,1.97,12.84,1.99,15.45,.09,28.01-7.53,28.07-17.02,.06-9.49-12.42-17.26-27.87-17.35Z"></path><g><path class="cls-5" d="M289.12,35.13c1.37,5.21,6.7,8.31,11.91,6.94,5.21-1.37,8.31-6.71,6.94-11.91-1.37-5.21-6.7-8.31-11.91-6.94-5.21,1.37-8.31,6.71-6.94,11.91Z"></path><path class="cls-9" d="M303.98,32.81c.73,2.78-.93,5.63-3.71,6.37-2.78,.73-5.63-.93-6.37-3.71l10.08-2.66Z"></path></g></g><g><rect class="cls-4" x="138.49" y="118.84" width="46.18" height="32.04" rx="1.76" ry="1.76" transform="translate(-1.01 1.22) rotate(-.43)"></rect><polygon class="cls-4" points="183.25 134.54 197.02 148.57 180.03 145.4 183.25 134.54"></polygon><path class="cls-7" d="M170.83,132.56l-4.14-.07s-5.22-3.9-5.38-5.28c-.16-1.38,.7-4.29-.11-4.66-.81-.37-2.53-.66-3.61,1.17-.79,1.32-.13,6.16-.62,6.48-.3,.2-2.69,.23-4.43,.22-1.14,0-2.2,.62-2.73,1.63h0c-.36,.69-.2,1.53,.4,2.03l.92,.77-.73,.97c-.54,.72-.4,1.74,.32,2.29l.73,.56-.5,.57c-.64,.73-.51,1.86,.29,2.42l.65,.45-.1,.18c-.41,.75-.17,1.68,.54,2.15l.65,.43,11.04,.2c1.03,.02,2.06-.17,3.02-.57l3.89-.57c.42-.06,.73-.42,.73-.84l.02-9.66c0-.47-.37-.85-.84-.86Z"></path></g><polygon class="cls-2" points="229 156.85 225.16 168.36 236.85 163.76 229 156.85"></polygon><path class="cls-6" d="M241.05,122.6c-.78,.03-2.91,.74-6.04,6.63-3.99,7.51-9.82,30.2-9.82,30.2l17.4,6.46,2.24-4.74,3.68-36.46s-7.24-2.1-7.46-2.09Z"></path><path class="cls-14" d="M264.05,119.33c-4.98,0-17.29,1.45-23,3.27,0,0-4.2,35.95,3.78,63.28,1.79,6.12-1.48,25.35-1.48,25.35l51.56-.68s-6.11-46.5-3.81-54.02c2.3-7.51,2.36-33.69,2.36-33.69,0,0-.35-.05-11.58-1.99-5.24-.9-12.51-1.53-17.82-1.52Z"></path><path class="cls-1" d="M270.05,277.97s-1.14,13.12-3.24,16.75c-2.1,3.63,.11,9.81,.22,10.66,.11,.85,4.41,2.06,11.26,1.33,6.84-.73,6.73-2.3,6.18-4.84-.55-2.54-4.19-5.81-4.41-8.23-.22-2.42,2.1-11.14,2.1-11.14l-12.1-4.52Z"></path><path class="cls-12" d="M249.17,200.4s-35.59-1.97-43.54,2.83c-7.95,4.8,1.44,14.65,1.44,14.65,0,0,28.97,12.55,77.48,15.34,11.49,.66,12.48-29.85,10.33-32.37-2.15-2.52-45.71-.45-45.71-.45Z"></path><path class="cls-15" d="M279.15,307.73c7.05-.75,6.18-4.2,5.61-6.82-.36-1.64-2.38-3.57-3.58-5.4-.63,.5-1.65,1.38-4.71,2.28-3.18,.94-7.53-.92-10.31-2.08-.99,3.67-1.03,8.35-.94,9.06,.11,.87,6.89,3.7,13.94,2.95Z"></path><path class="cls-17" d="M275.26,225.78c-1.42,10.72-8.46,64.1-8.46,64.1l16.34,2.02s20.09-69.67,19.06-80.33c-1.03-10.66-8.55-11.55-8.55-11.55,0,0-14.62-2.62-18.38,25.76Z"></path><path class="cls-14" d="M259.61,73.97s5.43-5.72,9.79,1.24c0,0,3.36-1.89,5.72,1.47,0,0,6.08-1.83,7.55,7.26,0,0,3.13-.59,3.54,3.13,.41,3.72-1.47,6.19-1.47,6.19,0,0,1.76,1.32,.96,4.73-.68,2.91-3.08,3.35-3.08,3.35,0,0-.65,4.9-2.77,6.37-2.12,1.47-5.01,.77-5.01,.77,0,0-.77,2.65-3.24,2.42-2.48-.24-5.55-2.6-8.32-1.53-2.77,1.06-9.97-.06-9.97-.06,0,0-8.08-3.6-5.66-11.86,0,0-4.25-3.83-.53-8.44,0,0-2.71-7.2,2.65-11.44,5.37-4.25,9.85-3.6,9.85-3.6Z"></path><path class="cls-1" d="M260.53,112.82l-.98,7.29s-2.2,10.5,.63,12.53c2.83,2.02,12.04-12.82,12.04-12.82l-.97-18.47-10.72,11.48Z"></path><path class="cls-4" d="M271.56,107.33c-2.34,6.3-7.91,10.17-11.86,11.67l.83-6.18,10.72-11.48,.31,5.99Z"></path><path class="cls-1" d="M264.7,81.94c-5.75-1.98-11.87,1.84-12.75,7.76-.38,2.57-.73,5.81-.79,9.35-.15,8.51,4.25,16.8,8.12,16.8s14.55-5.51,14.94-17.6c.24-7.46-3.49-14.24-9.52-16.32Z"></path><path class="cls-1" d="M271.37,99.21c0,1.88,1.24,3.4,2.78,3.4s2.78-1.52,2.78-3.4-1.24-3.4-2.78-3.4-2.78,1.52-2.78,3.4Z"></path><path class="cls-14" d="M247.95,77.7c-3.99,3.16-5.39,7.97-3.13,10.74,2.27,2.77,7.34,2.44,11.33-.72,3.99-3.16,5.39-7.97,3.13-10.74-2.27-2.77-7.34-2.44-11.33,.72Z"></path><path class="cls-1" d="M294.02,126.84c-4.82-1.8-7.18,41.48-7.83,59.3-8.54,.82-23.42,0-27.12-.27-1.74-.13-5.76-1.6-7.49-1.82-1.78-.23-3.39-.35-4.26-.2-.32,.06-9.22,3.68-9.98,4.48-.94,.99-3.5,3.47-3.07,4.55,.43,1.08,4.91-3,4.91-3l2.19-1.22c-2.72,2.65-7.92,6.14-7.17,7.42,.73,1.24,5.42-2.3,8.76-4.72-2.86,2.58-6.42,7.19-5.6,7.91,.74,.65,4.79-4.7,9.11-6.24,1.6-.57,3.2,1.01,4.46,1.2,.93,.14,2.36,.44,3.27,.18l4.68-1.32c1.6,.14,1.64,1.08,3.25,1.43,1.87,.4,4.94,.81,7.32,1.39,13.72,3.34,18.3,4.89,22.5,4.89,12.72,0,13.46-69.7,2.07-73.95Z"></path><path class="cls-14" d="M303.16,167.48c.9-18.25,.77-40.74-9.49-44.58-4.05-1.51-11.19,7.59-9.91,44.95,5.48,.45,13.53,.81,19.4-.37Z"></path><polygon class="cls-2" points="245.73 159.64 246.78 159.64 262.51 198.16 261.43 198 245.73 159.64"></polygon><path class="cls-1" d="M222.29,289.19s1.43,4.55-1.13,7.57c-2.55,3.01-13.16,5.97-14.55,7.6-1.39,1.63-1.29,3.02-1.29,3.02l29.77-.82-.32-8.96-1.37-6.44-11.11-1.97Z"></path><path class="cls-15" d="M219.31,298.26s7.65,3.08,11.34,1.26c3.69-1.83,3.58-2.33,4.65-1.65,1.07,.68,1.45,9.08,1.45,9.08l-33.47,.98c-2.33-.05-3.51-1.76-1.61-3.23,1.3-1,2.8-1.68,3.65-2.16,2.62-1.5,13.99-4.28,13.99-4.28Z"></path><path class="cls-17" d="M223.42,208.81c-2.3-4.82-7.53-11.11-16.74-7.32-8.78,3.61-11.14,12.48-8.37,21.56,2.77,9.08,21.01,62.47,21.64,69.81l14.56,.1s-2.65-42.27-3.3-52.49c-.62-9.83-3.82-23.3-7.8-31.65Z"></path><path class="cls-4" d="M199.78,159.64h48.68c1.29,0,2.45,.78,2.94,1.97l14.99,36.55h26.84c.75,0,1.36,.61,1.36,1.36h0c0,.75-.61,1.36-1.36,1.36h-76.38c-2.1,0-4-1.23-4.86-3.15l-15.09-33.62c-.94-2.1,.59-4.47,2.9-4.47Z"></path><path class="cls-7" d="M225.98,180.93c.33,1.64,1.76,2.74,3.2,2.45,1.44-.29,2.34-1.85,2.01-3.49-.33-1.64-1.76-2.74-3.2-2.45-1.44,.29-2.34,1.85-2.01,3.49Z"></path><ellipse class="cls-23" cx="362.83" cy="83.85" rx="24.03" ry="24.09"></ellipse><g><rect class="cls-16" x="336.99" y="83.37" width="8.86" height=".68"></rect><rect class="cls-16" x="379.88" y="83.37" width="8.86" height=".68"></rect><rect class="cls-16" x="362.46" y="58.13" width=".68" height="8.88"></rect><rect class="cls-16" x="362.46" y="100.93" width=".68" height="8.88"></rect><path class="cls-16" d="M363.57,83.85c0,.41-.33,.73-.73,.73s-.73-.33-.73-.73,.33-.73,.73-.73,.73,.33,.73,.73Z"></path><path class="cls-16" d="M362.83,84.17c-.08,0-.17-.03-.23-.1l-13.18-13.21c-.13-.13-.13-.34,0-.46,.13-.13,.34-.13,.46,0l13.18,13.21c.13,.13,.13,.34,0,.46-.06,.06-.15,.1-.23,.1Z"></path><path class="cls-16" d="M367.07,97.19c-.05-.03-.1-.08-.12-.14l-4.26-12.89c-.04-.13,.03-.26,.15-.3,.12-.04,.26,.03,.3,.15l4.26,12.89c.04,.13-.03,.26-.15,.3-.06,.02-.13,.01-.18-.01Z"></path></g><path class="cls-14" d="M401.14,138.17l2.15-3.48-1.72-.7c-.38-.15-.56-.58-.41-.96h0c.15-.38,.58-.56,.96-.41l1.99,.81,1.92-3.13-1.84-.75c-.38-.15-.56-.58-.41-.96h0c.15-.38,.58-.56,.96-.41l2.1,.85,2.23-3.58c.19-.3,.57-.43,.9-.29l.32,.13c.42,.17,.59,.68,.35,1.07l-2.07,3.38,3.05,1.24,2.23-3.58c.19-.3,.57-.43,.9-.29l.35,.14c.42,.17,.59,.68,.35,1.07l-2.07,3.38,1.72,.7c.38,.15,.56,.58,.41,.96h0c-.15,.38-.58,.56-.96,.41l-1.99-.81-1.89,3.14,1.84,.75c.38,.15,.56,.58,.41,.96h0c-.15,.38-.58,.56-.96,.41l-2.1-.85-2.28,3.7c-.19,.31-.57,.43-.9,.3l-.38-.15c-.42-.17-.59-.68-.35-1.07l2.15-3.48-3.05-1.24-2.28,3.7c-.19,.31-.57,.43-.9,.3l-.38-.15c-.42-.17-.59-.68-.35-1.07Zm7.77-2.79l1.92-3.13-3.05-1.24-1.92,3.13,3.05,1.24Z"></path><path class="cls-3" d="M212.94,43.39l2.19-4.95-2.83-4.61c-.32-.53,.1-1.19,.71-1.13l5.39,.56,3.51-4.12c.4-.47,1.16-.28,1.29,.33l1.14,5.29,5.01,2.07c.57,.24,.62,1.02,.09,1.33l-4.68,2.72-.42,5.4c-.05,.61-.78,.91-1.24,.5l-4.03-3.62-5.26,1.27c-.6,.14-1.1-.46-.85-1.02Z"></path><path class="cls-5" d="M371.83,43.39l1.65-3.71-2.13-3.46c-.24-.39,.07-.89,.53-.85l4.04,.42,2.63-3.09c.3-.35,.87-.21,.97,.24l.85,3.97,3.75,1.55c.43,.18,.47,.77,.07,1l-3.51,2.04-.31,4.05c-.04,.46-.58,.68-.93,.37l-3.02-2.71-3.95,.95c-.45,.11-.83-.35-.64-.77Z"></path><path class="cls-3" d="M355.5,149.48l-.26-3.08-2.68-1.53c-.31-.17-.28-.62,.05-.76l2.84-1.2,.63-3.02c.07-.34,.51-.46,.74-.19l2.02,2.34,3.07-.34c.35-.04,.59,.34,.41,.64l-1.6,2.64,1.27,2.81c.14,.32-.14,.67-.48,.59l-3.01-.7-2.28,2.08c-.26,.24-.68,.07-.71-.28Z"></path><path class="cls-5" d="M109.41,104.26l1.21-2.72-1.56-2.54c-.18-.29,.05-.66,.39-.62l2.96,.31,1.93-2.27c.22-.26,.64-.15,.71,.18l.62,2.91,2.75,1.14c.31,.13,.34,.56,.05,.73l-2.58,1.49-.23,2.97c-.03,.34-.43,.5-.68,.27l-2.22-1.99-2.9,.7c-.33,.08-.61-.25-.47-.56Z"></path><path class="cls-20" d="M202.79,99.33l1.21-2.72-1.56-2.54c-.18-.29,.05-.66,.39-.62l2.96,.31,1.93-2.27c.22-.26,.64-.15,.71,.18l.62,2.91,2.75,1.14c.31,.13,.34,.56,.05,.73l-2.58,1.49-.23,2.97c-.03,.34-.43,.5-.68,.27l-2.22-1.99-2.9,.7c-.33,.08-.61-.25-.47-.56Z"></path><polygon class="cls-20" points="156.3 55.22 161.08 54.52 163.05 62.09 170.16 61.94 172.56 67.37 175.31 66.15 172.1 58.9 165.36 59.04 163.31 51.17 156.12 52.21 156.3 55.22"></polygon><polygon class="cls-14" points="146.05 182.02 149.67 178.82 155.46 184.07 161.33 180.04 166.31 183.26 167.94 180.74 161.28 176.43 155.72 180.25 149.69 174.79 144.25 179.6 146.05 182.02"></polygon><path class="cls-20" d="M89.22,185.98l3.04-4.93-2.44-.99c-.53-.22-.79-.82-.57-1.36h0c.22-.53,.82-.79,1.36-.57l2.81,1.14,2.71-4.43-2.6-1.06c-.53-.22-.79-.82-.57-1.36h0c.22-.53,.82-.79,1.36-.57l2.98,1.21,3.15-5.07c.27-.43,.81-.61,1.28-.42l.45,.18c.6,.24,.83,.96,.5,1.51l-2.93,4.79,4.32,1.75,3.15-5.07c.27-.43,.81-.61,1.28-.42l.5,.2c.6,.24,.83,.96,.5,1.51l-2.93,4.79,2.44,.99c.53,.22,.79,.82,.57,1.36h0c-.22,.53-.82,.79-1.36,.57l-2.81-1.14-2.67,4.45,2.6,1.06c.53,.22,.79,.82,.57,1.36h0c-.22,.53-.82,.79-1.36,.57l-2.98-1.21-3.22,5.23c-.27,.43-.81,.61-1.28,.42l-.53-.22c-.6-.24-.83-.96-.5-1.51l3.04-4.93-4.32-1.75-3.22,5.23c-.27,.43-.81,.61-1.28,.42l-.53-.22c-.6-.24-.83-.96-.5-1.51Zm11-3.95l2.71-4.43-4.32-1.75-2.71,4.43,4.32,1.75Z"></path><g><path class="cls-17" d="M365.04,248.37c-.31-2.73-.68-5.52-1.94-7.95-1.54-2.96-4.24-5.09-6.61-7.45-4.41-4.39-7.81-9.81-9.85-15.7-1.58-4.56-2.36-9.41-4.54-13.71-1.33-2.63-3.14-4.98-4.64-7.5-3.56-5.97-5.5-13.03-10.33-18.03-.93,6.06,.91,12.49,4.9,17.15,1.19,1.39,2.57,2.64,3.48,4.23,1.65,2.88,1.5,6.4,1.69,9.71,.36,6.23,2.12,12.37,5.1,17.85,3.17,5.82,7.74,11,9.44,17.41,1.27,4.8,.89,10.19,3.6,14.35,.29,.45,.63,.9,.7,1.44,.04,.3,0,.6-.05,.9-.06,.39-.12,.77-.18,1.16-.62,3.93-1.25,8.93,2.12,11.87,2.34,2.04,5.35,2.08,7.03-.62,1.69-2.73,1.54-6.72,1.42-9.79-.21-5.11-.76-10.23-1.33-15.31Z"></path><path class="cls-12" d="M371.12,245.2c-1.31-4.55-3.35-8.88-4.37-13.51-.99-4.49-1-9.12-1-13.72,0-5.03,0-10.07-.01-15.1,0-3.13,0-6.28-.52-9.38-1.11-6.65-4.57-12.8-5.16-19.52-.25-2.9,.04-5.84-.28-8.74-.18-1.66-.61-3.35-1.37-4.81-.82-1.58-3.1-1.51-3.85,.11-1.68,3.64-2.74,7.57-2.07,11.47,.41,2.34,1.42,4.52,2.18,6.77,3.37,10.01,1.58,21.1,4.18,31.34,.79,3.09,1.98,6.12,2.11,9.31,.33,7.63-5.37,14.59-4.84,22.21,.43,6.24,4.92,11.41,6.8,17.38,1.05,3.34,1.28,6.91,2.41,10.22,.88,2.58,2.92,5.7,6.09,4.92,3.01-.74,2.1-3.2,1.97-5.55-.46-7.94-.03-15.65-2.27-23.4Z"></path><path class="cls-17" d="M378.01,249.37c-.13-2.36-.53-4.74-.2-7.09,.28-1.98,1.07-3.85,1.63-5.76,1.05-3.59,1.32-7.37,1.57-11.11,.46-6.8,.93-13.59,1.39-20.39,.72-10.56,1.45-21.16,3.42-31.56,.55-2.89,1.16-6.02-.13-8.65-.27-.56-.81-1.15-1.4-.96-.42,.13-.63,.59-.78,1.01-4.32,11.73-5.95,24.36-10.77,35.9-1.15,2.76-2.5,5.48-3.09,8.42-.72,3.52-.32,7.16-.23,10.76,.13,5.16-.37,10.35-1.79,15.31-.75,2.59-1.74,5.13-2.15,7.8-.51,3.33-.08,6.71,.24,10.07,.61,6.44,.82,12.92,.62,19.39-.12,3.8,3.09,3.7,5.22,1.37,1.49-1.63,1.47-3.43,1.98-5.46,1.67-6.68,4.88-11.8,4.48-19.04Z"></path><path class="cls-12" d="M357.96,259.68c-2.84-4.56-8.49-7.15-10.31-12.21-.46-1.29-.64-2.67-1.21-3.92-1.25-2.77-4.1-4.33-6.9-5.6-.39-.18-.83,.1-.84,.53h0c0,.68,.31,1.33,.88,1.71,2.16,1.45,3.8,3.67,4.52,6.17,.86,2.96,.49,6.21,1.56,9.11,.9,2.43,2.76,4.42,3.63,6.86,.8,2.23,.71,4.67,1.09,7.01,.37,2.34,1.41,4.82,3.56,5.81,7.77,3.58,5.83-12.52,4-15.47Z"></path><path class="cls-17" d="M390.29,258.18c-.12,2.2,.22,4.52-.65,6.55-.55,1.3-1.54,2.35-2.36,3.5-2.86,4.05-3.9,9.78-8.3,12.06-.29,.15-.61,.28-.93,.23-.45-.08-.75-.52-.93-.94-1.08-2.51,.13-5.34,.85-7.98,.13-.46,.23-.98,.01-1.4-.24-.47-.79-.67-1.17-1.04-.75-.73-.68-1.94-.53-2.98,.37-2.59,.9-5.17,1.57-7.7,.38-1.44,.82-2.89,1.65-4.12,.91-1.36,2.23-2.37,3.47-3.44,5.48-4.71,9.67-10.9,12.02-17.74,.51-1.48,.96-3.04,2.01-4.2,1.05-1.16,2.92-1.76,4.2-.86,.91,.64-2.82,6.63-3.25,7.35-1.24,2.05-1.26,3.84-1.96,6.12-1.72,5.59-5.37,10.59-5.7,16.58Z"></path><path class="cls-12" d="M385.96,260.73c.81-2.1,1.63-4.23,1.9-6.47,.3-2.49-.1-5.04,.33-7.51,.55-3.18,2.4-5.97,3.32-9.06,.66-2.23,.82-4.58,1.22-6.87,1.14-6.56,4.22-12.97,3.34-19.56-.19-1.44-.84-3.11-2.26-3.35-1.29-.22-2.46,.96-2.8,2.22-.34,1.27-.09,2.6,0,3.91,.26,3.65-.78,7.37-2.89,10.35-2.03,2.87-4.96,5.02-6.79,8.02-2.24,3.68-2.54,8.17-3.68,12.32-2.27,8.26-7.96,15.46-9,23.97-.41,3.38,.38,7.5,3.5,8.85,9.03,3.91,11.76-11.54,13.8-16.83Z"></path><path class="cls-4" d="M370.17,271.21h-20.73c-1.42,0-2.46,1.33-2.14,2.71l7.56,31.86c.24,.99,1.12,1.69,2.13,1.69h24.9c1.02,0,1.9-.7,2.14-1.69l7.56-31.86c.33-1.38-.72-2.71-2.14-2.71h-19.28Z"></path></g><g><rect class="cls-16" x="61.47" y="233.92" width="100.75" height="5.2"></rect><rect class="cls-16" x="63.29" y="264.11" width="65.87" height="4.55"></rect><rect class="cls-16" x="148.08" y="236.52" width="4.25" height="70.97"></rect><rect class="cls-16" x="87.98" y="236.52" width="4.25" height="70.97"></rect><polygon class="cls-16" points="117.85 307.49 140.75 237.13 136.99 235.91 113.7 307.49 117.85 307.49"></polygon><polygon class="cls-16" points="53.45 307.49 73.03 236.98 69.23 235.92 49.36 307.49 53.45 307.49"></polygon></g><path class="cls-16" d="M362.83,55.72c-15.5,0-28.07,12.59-28.07,28.13s12.57,28.13,28.07,28.13,28.07-12.59,28.07-28.13-12.57-28.13-28.07-28.13Zm1.51,52.17c-13.25,.83-24.66-9.25-25.49-22.53-.83-13.28,9.23-24.71,22.48-25.55,13.25-.83,24.66,9.25,25.49,22.53,.83,13.28-9.23,24.71-22.48,25.55Z"></path></g><rect class="cls-6" x="22.71" y="307.06" width="462.77" height="3.14"></rect></g><path class="cls-7" d="M255.78,106.4l7.48-.12s-.13,2.85-3.42,2.99c-4.01,.18-4.07-2.87-4.07-2.87Z"></path></g></g></g></svg> 