<?xml version="1.0" encoding="UTF-8"?> <svg xmlns="http://www.w3.org/2000/svg" viewBox="0 0 750 500"><defs><style> .cls-1 { fill: #ebebeb; } .cls-2 { fill: #eb996e; } .cls-3 { fill: #f5f5f5; } .cls-4 { fill: #fff; } .cls-5 { fill: #fafafa; } .cls-6 { fill: #ffbe9d; } .cls-7 { fill: #ff725e; } .cls-8 { fill: #e0e0e0; } .cls-9 { fill: #455a64; } .cls-10 { fill: #263238; } .cls-11 { fill: #5a24b1; } .cls-12 { opacity: .3; } </style></defs><g id="Background_Complete" data-name="Background Complete"><g><path class="cls-3" d="M585.65,202.63h142.49l-23.21,16.75v32.95c0,3.8-3.08,6.88-6.88,6.88h-112.4c-3.8,0-6.88-3.08-6.88-6.88v-42.82c0-3.8,3.08-6.88,6.88-6.88Z"></path><path class="cls-8" d="M591.59,225.92c0,.14,21.49,.25,48,.25s48-.11,48-.25-21.49-.25-48-.25-48,.11-48,.25Z"></path><path class="cls-8" d="M591.59,238.57c0,.14,21.49,.25,48,.25s48-.11,48-.25-21.49-.25-48-.25-48,.11-48,.25Z"></path></g><g><rect class="cls-8" x="362.57" y="81.03" width="6.67" height="22.34"></rect><rect class="cls-8" x="306.87" y="77.8" width="6.67" height="25.57"></rect><rect class="cls-8" x="320.8" y="72.47" width="6.67" height="30.9"></rect><rect class="cls-8" x="334.72" y="74.16" width="6.67" height="29.21"></rect><rect class="cls-8" x="348.64" y="64.28" width="6.67" height="39.09"></rect><rect class="cls-8" x="376.49" y="64.47" width="6.67" height="38.9"></rect><rect class="cls-8" x="390.42" y="77.25" width="6.67" height="26.12"></rect><rect class="cls-8" x="404.34" y="66.18" width="6.67" height="37.19"></rect><rect class="cls-8" x="418.27" y="57.81" width="6.67" height="45.56"></rect><rect class="cls-8" x="432.19" y="65.99" width="6.67" height="37.38"></rect></g><g><path class="cls-1" d="M614.56,101.3l55.15-8.43c4.62,30.25-16.47,58.95-46.72,63.57-30.25,4.62-58.95-16.47-63.57-46.72-4.62-30.25,16.47-58.95,46.72-63.57,4.82-.74,9.71-.84,14.55-.3l-6.12,55.45Z"></path><path class="cls-8" d="M632.45,46.03l-6.7,42.75,41.96-7.88s-6.17-23.96-35.27-34.87Z"></path></g><g><path class="cls-3" d="M51.48,205c-.24-15.14,11.83-27.66,26.9-27.91,15.08-.24,27.54,11.88,27.78,27.02,.24,15.14-11.83,27.66-26.9,27.91-15.08,.24-27.54-11.88-27.78-27.02Zm40.41-.65c-.12-7.24-6.07-13.04-13.28-12.92-7.21,.12-12.98,6.1-12.86,13.34,.12,7.24,6.07,13.04,13.28,12.92,7.21-.12,12.98-6.1,12.86-13.34Z"></path><path class="cls-8" d="M51.48,205c-.24-15.14,11.83-27.66,26.9-27.91l.23,14.33c-7.21,.12-12.98,6.1-12.86,13.34,.12,7.24,6.07,13.04,13.28,12.92l.23,14.33c-15.08,.24-27.54-11.88-27.78-27.02Z"></path><path class="cls-1" d="M75.93,174.88c17.64-.28,31.71,13.4,31.99,31.12l-16.69,.27c-.14-8.47-6.58-13.81-15.01-13.67l-.28-17.72Z"></path></g><g><g><g><g><rect class="cls-3" x="194.36" y="301.44" width="34.76" height="41.32"></rect><rect class="cls-8" x="38.5" y="298.74" width="157.07" height="46.61"></rect><path class="cls-8" d="M230.17,302.66h-38.82v-3.92h38.82c1.08,0,1.96,.88,1.96,1.96h0c0,1.08-.88,1.96-1.96,1.96Z"></path><path class="cls-8" d="M230.17,345.35h-38.82v-3.92h38.82c1.08,0,1.96,.88,1.96,1.96h0c0,1.08-.88,1.96-1.96,1.96Z"></path><rect class="cls-1" x="164.66" y="298.74" width="18.56" height="46.61"></rect><rect class="cls-1" x="53.43" y="299.26" width="18.56" height="46.61"></rect><path class="cls-8" d="M229.12,308.27c0,.11-7.52,.21-16.8,.21s-16.8-.09-16.8-.21,7.52-.21,16.8-.21,16.8,.09,16.8,.21Z"></path><path class="cls-8" d="M229.12,314.47c0,.11-7.52,.21-16.8,.21s-16.8-.09-16.8-.21,7.52-.21,16.8-.21,16.8,.09,16.8,.21Z"></path><path class="cls-8" d="M229.12,322.1c0,.11-7.52,.21-16.8,.21s-16.8-.09-16.8-.21,7.52-.21,16.8-.21,16.8,.09,16.8,.21Z"></path><path class="cls-8" d="M229.12,329.72c0,.11-7.52,.21-16.8,.21s-16.8-.09-16.8-.21,7.52-.21,16.8-.21,16.8,.09,16.8,.21Z"></path><path class="cls-8" d="M229.12,337.35c0,.11-7.52,.21-16.8,.21s-16.8-.09-16.8-.21,7.52-.21,16.8-.21,16.8,.09,16.8,.21Z"></path></g><rect class="cls-1" x="84.02" y="317.9" width="70.66" height="8.39"></rect></g><g><rect class="cls-5" x="193.48" y="346.27" width="35.29" height="25.18"></rect><rect class="cls-3" x="43.7" y="345.35" width="150.18" height="27"></rect><path class="cls-3" d="M192.78,347.18h37.93c.5,0,.91-.41,.91-.91h0c0-.5-.41-.91-.91-.91h-37.93v1.83Z"></path><path class="cls-3" d="M192.78,370.53h38.42c.23,0,.42,.19,.42,.42v.99c0,.23-.19,.42-.42,.42h-38.42v-1.83h0Z"></path><path class="cls-8" d="M228.77,351.05c0,.11-7.81,.21-17.45,.21s-17.45-.09-17.45-.21,7.81-.21,17.45-.21,17.45,.09,17.45,.21Z"></path><path class="cls-8" d="M228.77,355.81c0,.11-7.81,.21-17.45,.21s-17.45-.09-17.45-.21,7.81-.21,17.45-.21,17.45,.09,17.45,.21Z"></path><path class="cls-8" d="M228.77,360.58c0,.11-7.81,.21-17.45,.21s-17.45-.09-17.45-.21,7.81-.21,17.45-.21,17.45,.09,17.45,.21Z"></path><path class="cls-8" d="M228.77,365.34c0,.11-7.81,.21-17.45,.21s-17.45-.09-17.45-.21,7.81-.21,17.45-.21,17.45,.09,17.45,.21Z"></path></g><g><rect class="cls-1" x="198.1" y="374.76" width="36.02" height="68.25"></rect><rect class="cls-8" x="29.03" y="372.36" width="169.07" height="74"></rect><path class="cls-8" d="M236.94,446.35h-43.46v-4.8h43.46c1.33,0,2.4,1.07,2.4,2.4h0c0,1.33-1.07,2.4-2.4,2.4Z"></path><path class="cls-8" d="M193.48,372.36h44.76c.61,0,1.1,.49,1.1,1.1v2.6c0,.61-.49,1.1-1.1,1.1h-44.76v-4.8h0Z"></path><path class="cls-8" d="M234.12,383.9c0,.11-8.06,.21-18.01,.21s-18.01-.09-18.01-.21,8.06-.21,18.01-.21,18.01,.09,18.01,.21Z"></path><path class="cls-8" d="M234.12,392.66c0,.11-8.06,.21-18.01,.21s-18.01-.09-18.01-.21,8.06-.21,18.01-.21,18.01,.09,18.01,.21Z"></path><path class="cls-8" d="M234.12,401.41c0,.11-8.06,.21-18.01,.21s-18.01-.09-18.01-.21,8.06-.21,18.01-.21,18.01,.09,18.01,.21Z"></path><path class="cls-8" d="M234.12,410.16c0,.11-8.06,.21-18.01,.21s-18.01-.09-18.01-.21,8.06-.21,18.01-.21,18.01,.09,18.01,.21Z"></path><path class="cls-8" d="M234.12,418.92c0,.11-8.06,.21-18.01,.21s-18.01-.09-18.01-.21,8.06-.21,18.01-.21,18.01,.09,18.01,.21Z"></path><path class="cls-8" d="M234.12,427.67c0,.11-8.06,.21-18.01,.21s-18.01-.09-18.01-.21,8.06-.21,18.01-.21,18.01,.09,18.01,.21Z"></path><path class="cls-8" d="M234.12,436.42c0,.11-8.06,.21-18.01,.21s-18.01-.09-18.01-.21,8.06-.21,18.01-.21,18.01,.09,18.01,.21Z"></path></g></g><g><path class="cls-1" d="M86.88,413.4v4.12c0,4.96-2.48,7.79-7.26,7.79s-7.26-2.83-7.26-7.79v-16.12c0-4.96,2.48-7.79,7.26-7.79s7.26,2.83,7.26,7.79v3.01h-4.6v-3.32c0-2.21-.97-3.05-2.52-3.05s-2.52,.84-2.52,3.05v16.74c0,2.21,.97,3.01,2.52,3.01s2.52-.8,2.52-3.01v-4.43h4.6Z"></path><path class="cls-1" d="M89.45,401.41c0-4.96,2.61-7.79,7.39-7.79s7.39,2.83,7.39,7.79v16.12c0,4.96-2.61,7.79-7.39,7.79s-7.39-2.83-7.39-7.79v-16.12Zm4.87,16.43c0,2.21,.97,3.05,2.52,3.05s2.52-.84,2.52-3.05v-16.74c0-2.21-.97-3.05-2.52-3.05s-2.52,.84-2.52,3.05v16.74Z"></path><path class="cls-1" d="M107.37,393.97h4.87v26.56h8.01v4.43h-12.88v-30.99Z"></path><path class="cls-1" d="M121.98,401.41c0-4.96,2.61-7.79,7.39-7.79s7.39,2.83,7.39,7.79v16.12c0,4.96-2.61,7.79-7.39,7.79s-7.39-2.83-7.39-7.79v-16.12Zm4.87,16.43c0,2.21,.97,3.05,2.52,3.05s2.52-.84,2.52-3.05v-16.74c0-2.21-.97-3.05-2.52-3.05s-2.52,.84-2.52,3.05v16.74Z"></path><path class="cls-1" d="M144.56,393.97v23.91c0,2.21,.97,3.01,2.52,3.01s2.52-.8,2.52-3.01v-23.91h4.6v23.6c0,4.96-2.48,7.79-7.26,7.79s-7.26-2.83-7.26-7.79v-23.6h4.87Z"></path><path class="cls-1" d="M167.71,424.96c-.27-.8-.44-1.28-.44-3.81v-4.87c0-2.88-.97-3.94-3.19-3.94h-1.68v12.62h-4.87v-30.99h7.35c5.05,0,7.22,2.35,7.22,7.13v2.43c0,3.19-1.02,5.27-3.19,6.29,2.44,1.02,3.23,3.36,3.23,6.6v4.78c0,1.51,.04,2.61,.53,3.76h-4.96Zm-5.31-26.56v9.52h1.9c1.82,0,2.92-.8,2.92-3.28v-3.05c0-2.21-.75-3.19-2.48-3.19h-2.35Z"></path></g><g><path class="cls-8" d="M85.83,355.99h-3.55l.19-.92h8.15l-.2,.92h-3.54l-1.83,9.14h-1.05l1.83-9.14Z"></path><path class="cls-8" d="M97.46,357.57l-5.52,8.54c-.93,1.44-1.64,1.88-2.73,1.88-.7,0-1.42-.24-1.8-.68l.55-.75c.33,.34,.76,.55,1.34,.55,.65,0,1.15-.3,1.74-1.22l.53-.8-1.88-7.52h1.03l1.57,6.44,4.13-6.44h1.05Z"></path><path class="cls-8" d="M105.86,360.7c0,2.6-1.81,4.5-4.28,4.5-1.44,0-2.44-.59-2.88-1.65l-.86,4.37h-1.02l2.06-10.35h.98l-.24,1.21c.72-.8,1.73-1.26,2.95-1.26,1.94,0,3.31,1.21,3.31,3.19Zm-1.03,.06c0-1.48-.91-2.36-2.49-2.36-1.88,0-3.26,1.48-3.26,3.55,0,1.48,.91,2.34,2.49,2.34,1.88,0,3.26-1.48,3.26-3.54Z"></path><path class="cls-8" d="M107.05,362c0-2.57,1.83-4.48,4.37-4.48,2.1,0,3.44,1.24,3.44,3.19,0,2.59-1.83,4.5-4.37,4.5-2.1,0-3.44-1.26-3.44-3.2Zm6.79-1.24c0-1.48-.91-2.36-2.49-2.36-1.88,0-3.28,1.49-3.28,3.55,0,1.48,.91,2.34,2.49,2.34,1.88,0,3.28-1.48,3.28-3.54Z"></path><path class="cls-8" d="M124.64,357.57l-1.32,6.64c-.53,2.67-1.94,3.78-4.4,3.78-1.42,0-2.59-.4-3.36-1.14l.6-.78c.6,.62,1.62,1.01,2.83,1.01,1.91,0,2.92-.88,3.28-2.7l.17-.84c-.72,.81-1.74,1.3-3.02,1.3-2,0-3.34-1.16-3.34-3.05,0-2.43,1.8-4.28,4.31-4.28,1.39,0,2.52,.57,2.95,1.72l.32-1.67h.98Zm-1.72,3.03c0-1.38-.93-2.2-2.5-2.2-1.91,0-3.29,1.41-3.29,3.33,0,1.38,.92,2.2,2.5,2.2,1.9,0,3.29-1.41,3.29-3.34Z"></path><path class="cls-8" d="M131.31,357.51l-.19,.99c-.1,0-.17-.02-.29-.02-1.61,0-2.69,.92-3.06,2.8l-.76,3.84h-1.02l1.5-7.56h.98l-.26,1.38c.68-.99,1.67-1.44,3.11-1.44Z"></path><path class="cls-8" d="M139.98,357.57l-1.51,7.56h-.98l.24-1.19c-.72,.79-1.72,1.26-2.95,1.26-1.94,0-3.29-1.21-3.29-3.2,0-2.59,1.81-4.48,4.27-4.48,1.44,0,2.44,.59,2.87,1.64l.32-1.58h1.02Zm-1.7,3.19c0-1.48-.91-2.36-2.49-2.36-1.88,0-3.28,1.49-3.28,3.55,0,1.48,.91,2.34,2.49,2.34,1.88,0,3.28-1.48,3.28-3.54Z"></path><path class="cls-8" d="M149.79,360.7c0,2.6-1.81,4.5-4.28,4.5-1.44,0-2.44-.59-2.88-1.65l-.86,4.37h-1.02l2.06-10.35h.98l-.24,1.21c.72-.8,1.73-1.26,2.95-1.26,1.94,0,3.31,1.21,3.31,3.19Zm-1.03,.06c0-1.48-.91-2.36-2.49-2.36-1.88,0-3.26,1.48-3.26,3.55,0,1.48,.91,2.34,2.49,2.34,1.88,0,3.26-1.48,3.26-3.54Z"></path><path class="cls-8" d="M158.94,359.97c0,.27-.03,.56-.09,.86l-.86,4.3h-1.02l.86-4.31c.04-.24,.07-.47,.07-.69,0-1.08-.65-1.7-1.95-1.7-1.61,0-2.72,.88-3.08,2.64l-.8,4.05h-1.02l2.13-10.67h1.02l-.85,4.24c.72-.82,1.73-1.19,2.89-1.19,1.71,0,2.7,.92,2.7,2.46Z"></path><path class="cls-8" d="M168.5,357.57l-5.52,8.54c-.93,1.44-1.64,1.88-2.73,1.88-.7,0-1.42-.24-1.8-.68l.55-.75c.33,.34,.76,.55,1.34,.55,.65,0,1.15-.3,1.74-1.22l.53-.8-1.88-7.52h1.03l1.57,6.44,4.13-6.44h1.05Z"></path></g></g><g><path class="cls-3" d="M191.28,46.79H37.89l24.99,18.03v35.47c0,4.09,3.32,7.41,7.41,7.41h120.99c4.09,0,7.41-3.32,7.41-7.41V54.2c0-4.09-3.32-7.41-7.41-7.41Z"></path><path class="cls-8" d="M184.88,71.86c0,.15-23.13,.27-51.67,.27s-51.67-.12-51.67-.27,23.13-.27,51.67-.27,51.67,.12,51.67,.27Z"></path><path class="cls-8" d="M184.88,85.48c0,.15-23.13,.27-51.67,.27s-51.67-.12-51.67-.27,23.13-.27,51.67-.27,51.67,.12,51.67,.27Z"></path></g></g><g id="Table"><path class="cls-10" d="M723.27,446.35c0,.14-156.83,.26-350.25,.26s-350.28-.12-350.28-.26,156.8-.26,350.28-.26,350.25,.12,350.25,.26Z"></path></g><g id="Plants"><g><g><path class="cls-9" d="M657.45,395.31s-26.51-30.51-36.51-61.02c-10-30.51-5.25-27.01-5.25-27.01,0,0,13.5,29.64,23.76,43.95,10.25,14.32,28.51,35.32,28.51,35.32l-10.5,8.75Z"></path><path class="cls-9" d="M662.73,312.04c-.86-1.49-3.13-.72-2.87,.98,1.62,10.72,5.11,35.86,4.97,52.18-.18,21.19,0,29.38,0,29.38h11.03s-1.96-43.8-4.45-57.16c-1.75-9.36-5.46-19.76-8.69-25.38Z"></path><path class="cls-9" d="M668.75,391.02s6.94-14.6,9.08-32.94c.91-7.8-.71-18.34-3.12-32.41-1.17-6.81-1.43-12-1.39-15.59,.03-2.72,3.61-3.6,4.94-1.23,1.33,2.38,5.19,10.49,6.16,15.58,2.67,13.89,5.7,20.83,3.38,34.01-2.31,13.18-10.86,33.47-10.86,33.47l-8.19-.89Z"></path><path class="cls-9" d="M678.68,391.91s29.1-62.55,31.12-71.82c2.02-9.28,8.88-30.66,9.68-29.45,.81,1.21,2.02,12.51-3.23,25.42-5.24,12.91-27.64,77.76-27.64,77.76h-9.94"></path><path class="cls-10" d="M665.56,389.11s-.29-.18-.82-.56c-.52-.39-1.3-.94-2.25-1.72-1.94-1.52-4.66-3.84-7.82-6.9-6.35-6.1-14.26-15.51-21.11-27.1-6.87-11.59-11.49-22.92-14.41-31.22-1.46-4.15-2.53-7.55-3.22-9.92-.36-1.18-.6-2.1-.77-2.73-.17-.63-.25-.96-.23-.96,.02,0,.14,.31,.35,.93,.22,.67,.51,1.57,.88,2.69,.76,2.34,1.89,5.71,3.41,9.84,3.02,8.24,7.69,19.51,14.53,31.05,6.83,11.54,14.64,20.95,20.89,27.1,3.11,3.1,5.78,5.45,7.67,7.03,.93,.81,1.69,1.39,2.18,1.81,.5,.42,.75,.64,.74,.66Z"></path><path class="cls-10" d="M668.74,359.1s-.13-.65-.26-1.84c-.14-1.3-.32-2.98-.54-5.01-.46-4.23-1.18-10.07-2.21-16.48-1.03-6.41-2.18-12.18-3.07-16.34-.43-2-.79-3.66-1.06-4.93-.25-1.16-.37-1.81-.33-1.82,.04-.01,.24,.62,.56,1.77,.33,1.15,.76,2.82,1.26,4.89,1,4.14,2.22,9.91,3.25,16.34,1.03,6.43,1.68,12.28,2.03,16.53,.18,2.12,.29,3.85,.34,5.04,.05,1.19,.06,1.85,.02,1.85Z"></path><path class="cls-10" d="M675.56,308.35s.14,.27,.34,.79c.22,.59,.51,1.36,.87,2.32,.39,1.01,.83,2.25,1.25,3.72,.43,1.47,.99,3.12,1.41,5.01,.23,.94,.47,1.92,.72,2.94,.24,1.02,.42,2.11,.64,3.22,.48,2.22,.77,4.63,1.12,7.16,.57,5.07,.88,10.68,.69,16.58-.24,5.89-.95,11.47-1.88,16.49-.53,2.5-1,4.88-1.63,7.06-.3,1.09-.55,2.16-.87,3.17-.32,1-.63,1.96-.93,2.88-.56,1.85-1.23,3.46-1.77,4.89-.53,1.44-1.06,2.65-1.51,3.62-.43,.93-.77,1.68-1.04,2.25-.24,.51-.38,.78-.4,.77-.02,0,.08-.29,.29-.82,.23-.58,.54-1.35,.93-2.3,.42-.99,.92-2.21,1.41-3.65,.5-1.44,1.15-3.06,1.68-4.91,.28-.92,.58-1.88,.89-2.88,.3-1,.54-2.07,.83-3.16,.61-2.18,1.05-4.55,1.57-7.03,.89-5,1.59-10.55,1.82-16.4,.18-5.86-.11-11.44-.64-16.49-.34-2.52-.61-4.91-1.06-7.13-.21-1.11-.37-2.19-.6-3.21-.24-1.02-.46-2-.68-2.94-.39-1.88-.92-3.54-1.32-5.01-.39-1.48-.8-2.73-1.14-3.75-.32-.98-.57-1.76-.76-2.36-.17-.54-.25-.83-.23-.84Z"></path><path class="cls-10" d="M719.15,291.89s0,.1-.02,.28c-.03,.22-.08,.49-.13,.81-.13,.71-.29,1.77-.57,3.11-.56,2.69-1.5,6.56-2.95,11.26-1.45,4.7-3.44,10.21-5.8,16.26-2.35,6.06-5.08,12.65-7.66,19.67-2.62,7.01-4.64,13.85-6.54,20.06-1.88,6.21-3.67,11.79-5.39,16.4-1.71,4.61-3.35,8.24-4.6,10.7-.6,1.24-1.13,2.16-1.48,2.8-.16,.29-.3,.52-.41,.72-.09,.16-.15,.24-.16,.23,0,0,.03-.09,.1-.26,.1-.2,.21-.45,.35-.74,.31-.65,.81-1.59,1.37-2.85,1.17-2.48,2.75-6.12,4.4-10.74,1.67-4.61,3.41-10.19,5.26-16.41,1.87-6.21,3.88-13.08,6.51-20.11,2.59-7.04,5.34-13.63,7.71-19.67,2.38-6.03,4.41-11.51,5.91-16.18,1.51-4.67,2.5-8.51,3.14-11.18,.32-1.33,.52-2.38,.69-3.08,.08-.32,.14-.58,.19-.8,.05-.18,.07-.27,.09-.27Z"></path><g><path class="cls-9" d="M629.41,278.07c-1.83-1.82-4.88,.08-4.12,2.56,.77,2.51,1.94,5.75,3.66,9.4,4,8.5,15.75,39.01,21.26,55.77,5.5,16.75,13.25,48.01,13.25,48.01l11.75-1.91s-10.75-51.36-21.25-69.87c-8.44-14.87-16.88-36.36-24.54-43.97Z"></path><path class="cls-10" d="M653.41,356.28s.25,.49,.61,1.41c.35,.92,.82,2.27,1.35,3.94,1.08,3.35,2.41,8.03,3.74,13.23,1.33,5.2,2.44,9.93,3.21,13.37,.35,1.62,.65,2.99,.88,4.07,.2,.96,.28,1.5,.24,1.51-.04,.01-.21-.51-.48-1.46-.29-1.07-.65-2.42-1.08-4.02-.9-3.53-2.08-8.18-3.39-13.32-1.33-5.19-2.59-9.88-3.56-13.26-.46-1.59-.85-2.93-1.16-4-.28-.94-.42-1.47-.38-1.48Z"></path><path class="cls-10" d="M669.35,392.86s-.03-.11-.07-.31c-.04-.24-.08-.55-.13-.93-.12-.81-.23-2.02-.48-3.56-.43-3.09-1.2-7.53-2.46-12.96-1.25-5.43-3.08-11.81-5.5-18.77-2.41-6.96-5.43-14.48-8.86-22.26-6.91-15.55-13.82-29.34-18.35-39.54-2.29-5.09-4.07-9.24-5.24-12.13-.6-1.44-1.02-2.58-1.32-3.34-.13-.36-.24-.64-.33-.88-.07-.2-.1-.3-.09-.31,.01,0,.06,.09,.15,.28,.1,.23,.23,.51,.38,.85,.35,.8,.82,1.9,1.43,3.3,1.24,2.86,3.07,6.98,5.41,12.04,4.64,10.14,11.6,23.9,18.52,39.47,3.43,7.8,6.44,15.34,8.83,22.33,2.39,6.99,4.18,13.4,5.39,18.86,1.21,5.45,1.92,9.92,2.27,13.03,.21,1.55,.28,2.76,.37,3.58,.03,.38,.05,.69,.07,.93,.01,.21,.01,.32,0,.32Z"></path><path class="cls-10" d="M675.2,391.91s-.18-.7-.4-1.97c-.23-1.38-.54-3.2-.91-5.4-.81-4.55-2.05-10.82-3.82-17.64-1.76-6.83-3.74-12.91-5.27-17.27-.75-2.1-1.37-3.84-1.84-5.16-.44-1.22-.66-1.9-.62-1.91,.04-.02,.34,.63,.85,1.83,.51,1.19,1.21,2.93,2.03,5.1,1.63,4.33,3.69,10.41,5.46,17.26,1.78,6.85,2.95,13.15,3.65,17.73,.33,2.29,.59,4.15,.72,5.44,.14,1.29,.2,2,.16,2.01Z"></path></g></g><g><rect class="cls-7" x="653.45" y="390.22" width="45.86" height="55.87"></rect><g class="cls-12"><rect x="653.45" y="390.22" width="45.86" height="55.87"></rect></g><rect class="cls-7" x="644" y="390.22" width="40.68" height="55.87"></rect></g></g><g><g><path class="cls-9" d="M88.53,370.8c-7.81-5-18.64-5.1-26.24,.22-7.22,5.05-10.88,14.23-10.56,23.03,.32,8.8,4.58,19.55,12.56,24.18l23.4-.09c7.47-5.5,12.53-14.35,12.88-23.62,.35-9.27-4.22-18.71-12.03-23.71Z"></path><path class="cls-10" d="M77,419.07c-.05,0-.1-.72-.15-2.01-.04-1.44-.09-3.28-.16-5.49-.12-4.63-.3-11.03-.61-18.1-.31-7.07-.69-13.46-.98-18.08-.13-2.2-.24-4.04-.33-5.48-.07-1.3-.08-2.01-.03-2.02s.16,.71,.32,1.99c.16,1.29,.35,3.16,.56,5.47,.42,4.62,.89,11.02,1.2,18.09,.31,7.07,.41,13.48,.39,18.12,0,2.32-.04,4.2-.08,5.49-.04,1.3-.09,2.01-.14,2.01Z"></path><path class="cls-10" d="M54.08,392.05c-.02,.21-1.29,.27-2.84,.14-1.55-.13-2.8-.4-2.78-.6,.02-.21,1.29-.27,2.84-.14,1.55,.13,2.8,.4,2.78,.6Z"></path><path class="cls-10" d="M54.52,384.15c-.08,.19-1.18-.11-2.45-.68-1.27-.56-2.23-1.17-2.15-1.36,.08-.19,1.18,.11,2.45,.68,1.27,.56,2.23,1.17,2.15,1.36Z"></path><path class="cls-10" d="M58.58,378.29c-.11,.17-1.34-.41-2.62-1.47-1.28-1.06-2.09-2.16-1.94-2.3,.15-.14,1.17,.7,2.41,1.72,1.24,1.03,2.26,1.87,2.15,2.05Z"></path><path class="cls-10" d="M62.67,372.76c-.19,.08-.78-.84-1.32-2.06-.54-1.22-.83-2.28-.64-2.36,.19-.08,.78,.84,1.32,2.06,.54,1.22,.83,2.28,.64,2.36Z"></path><path class="cls-10" d="M69.08,368.84c-.18,.09-.82-.9-1.24-2.26-.43-1.36-.46-2.53-.26-2.57,.21-.04,.56,1.03,.97,2.34,.41,1.31,.72,2.39,.53,2.48Z"></path><path class="cls-10" d="M79.77,364.41c.19,.07,.08,.91-.27,1.87-.34,.97-.78,1.69-.97,1.63-.19-.07-.08-.91,.27-1.87,.34-.97,.78-1.69,.97-1.63Z"></path><path class="cls-10" d="M87.71,367.82c.14,.15-.37,.85-1.14,1.56-.77,.71-1.5,1.16-1.64,1.01-.14-.15,.37-.85,1.14-1.56,.77-.71,1.5-1.16,1.64-1.01Z"></path><path class="cls-10" d="M94.69,372.33c.12,.17-.51,.79-1.39,1.39-.88,.6-1.69,.94-1.81,.77-.12-.17,.5-.79,1.39-1.39,.88-.6,1.69-.94,1.81-.77Z"></path><path class="cls-10" d="M99.65,379.05c.08,.19-.9,.79-2.19,1.34-1.29,.55-2.4,.84-2.48,.65-.08-.19,.9-.79,2.18-1.34,1.29-.55,2.4-.84,2.48-.65Z"></path><path class="cls-10" d="M101.61,386.39c.03,.2-.97,.5-2.22,.65-1.25,.16-2.29,.11-2.31-.09s.97-.5,2.22-.65c1.25-.16,2.29-.11,2.31,.09Z"></path><path class="cls-10" d="M102.62,395.42c-.08,.19-1.14-.09-2.37-.62-1.23-.53-2.15-1.12-2.07-1.31,.08-.19,1.14,.09,2.37,.62,1.23,.53,2.15,1.12,2.07,1.31Z"></path><path class="cls-10" d="M101.73,403.17c-.07,.19-1.41-.13-2.81-1.05-1.41-.91-2.24-2.01-2.09-2.15,.15-.15,1.17,.66,2.5,1.52,1.32,.87,2.47,1.48,2.4,1.68Z"></path><path class="cls-10" d="M97.69,410.22c-.12,.16-1.19-.47-2.21-1.57-1.03-1.1-1.57-2.21-1.41-2.32,.17-.12,.97,.76,1.95,1.82,.98,1.06,1.8,1.92,1.67,2.08Z"></path><path class="cls-10" d="M59.39,411.05c.1,.18-1.03,.95-2.5,1.72-1.48,.77-2.75,1.24-2.85,1.06-.1-.18,1.03-.95,2.5-1.72,1.48-.77,2.75-1.24,2.85-1.06Z"></path><path class="cls-10" d="M55.89,404.67c.09,.19-.81,.78-2.01,1.32-1.19,.54-2.23,.83-2.32,.64-.09-.19,.81-.78,2.01-1.32,1.19-.54,2.23-.83,2.32-.64Z"></path><path class="cls-10" d="M53.32,399.02c.03,.2-1.08,.53-2.47,.73-1.39,.2-2.55,.19-2.58-.01-.03-.2,1.08-.53,2.47-.73,1.39-.2,2.55-.19,2.58,.01Z"></path><path class="cls-10" d="M61.75,395.9c.06,.19-1.02,.7-2.46,.86-1.44,.17-2.6-.09-2.59-.29,.01-.21,1.14-.3,2.5-.46,1.36-.15,2.48-.32,2.54-.11Z"></path><path class="cls-10" d="M68.76,388.93c.06,.19-.8,.63-1.96,.74-1.16,.12-2.08-.14-2.06-.34,.02-.21,.91-.29,1.99-.4,1.08-.1,1.97-.2,2.03,0Z"></path><path class="cls-10" d="M70.1,383.34c-.07,.19-1,.05-2.08-.32-1.08-.37-1.9-.83-1.83-1.03,.07-.19,1-.05,2.08,.32,1.08,.37,1.9,.83,1.83,1.03Z"></path><path class="cls-10" d="M72.67,377.69c-.14,.14-.78-.28-1.24-1.07-.46-.79-.5-1.55-.31-1.61,.2-.06,.55,.53,.95,1.23,.4,.7,.74,1.3,.59,1.44Z"></path><path class="cls-10" d="M69.57,400.82c.05,.2-.76,.57-1.8,.82-.6,.15-1.15,.22-1.51,.22l-.15-.44c.27-.05,.44-.04,.48,.04,.03,.08-.07,.22-.29,.38l-.15-.44c.32-.17,.84-.35,1.44-.5,1.04-.25,1.93-.3,1.98-.1Z"></path><path class="cls-10" d="M71.02,410.73c.08,.19-.95,.78-2.29,1.3-1.34,.53-2.49,.8-2.57,.61-.08-.19,.95-.77,2.29-1.3,1.34-.53,2.49-.8,2.57-.61Z"></path><path class="cls-10" d="M63.1,406.33c.07,.2-.62,.6-1.53,.91-.91,.31-1.7,.4-1.77,.21-.07-.2,.62-.6,1.53-.91,.91-.31,1.7-.4,1.77-.21Z"></path><path class="cls-10" d="M63.7,386.17c-.05,.2-1.24,.08-2.62-.41-1.38-.49-2.38-1.15-2.29-1.33,.09-.19,1.2,.15,2.54,.62,1.34,.48,2.42,.91,2.37,1.11Z"></path><path class="cls-10" d="M82.86,383.98c.11,.17-.56,.82-1.5,1.44-.94,.62-1.8,.98-1.91,.81-.11-.17,.56-.81,1.5-1.44,.94-.62,1.8-.98,1.91-.81Z"></path><path class="cls-10" d="M83.91,393.92c.04,.2-.66,.52-1.58,.71-.91,.19-1.68,.18-1.73-.02-.04-.2,.66-.52,1.58-.71,.91-.19,1.68-.18,1.73,.02Z"></path><path class="cls-10" d="M85.12,405.11c-.09,.19-1.1-.1-2.27-.64-1.17-.54-2.04-1.13-1.95-1.32,.09-.19,1.1,.1,2.27,.64,1.17,.54,2.04,1.13,1.95,1.32Z"></path><path class="cls-10" d="M82.55,415.99c-.16,.13-.82-.41-1.47-1.2-.65-.8-1.05-1.55-.9-1.68,.16-.13,.82,.41,1.47,1.2,.65,.8,1.05,1.55,.9,1.68Z"></path><path class="cls-10" d="M82.03,376.65c.13,.16-.31,.71-1.06,1.08-.75,.38-1.45,.4-1.5,.2-.06-.2,.49-.53,1.16-.87,.67-.34,1.26-.58,1.39-.41Z"></path><path class="cls-10" d="M91.42,386.68c.07,.19-.8,.67-1.99,.83-1.19,.17-2.15-.06-2.14-.26,.01-.21,.93-.33,2.04-.48,1.11-.15,2.02-.29,2.09-.09Z"></path><path class="cls-10" d="M89.55,377.68c.09,.18-.77,.8-2,1.19-1.23,.39-2.29,.39-2.32,.19-.03-.21,.92-.53,2.09-.9,1.17-.37,2.13-.66,2.22-.47Z"></path><path class="cls-10" d="M93.47,400.63c0,.2-1.48,.33-3.26,0-1.78-.32-3.12-.96-3.05-1.15,.07-.2,1.46,.11,3.18,.41,1.72,.32,3.13,.52,3.12,.73Z"></path><path class="cls-10" d="M89.98,413.71c-.12,.16-1.21-.48-2.29-1.57-1.09-1.09-1.72-2.18-1.56-2.3,.17-.13,1.04,.72,2.09,1.77,1.05,1.06,1.89,1.93,1.76,2.1Z"></path><path class="cls-10" d="M74.64,367.03c.11,.16-2.98,1.41-6.55,5.18-3.57,3.68-7.25,10.18-8.16,18.03-.43,3.9-.06,7.68,.49,11.05,.58,3.37,1.36,6.37,2.07,8.87,.72,2.5,1.38,4.5,1.82,5.88,.44,1.39,.68,2.16,.63,2.18-.05,.02-.37-.72-.9-2.08-.53-1.36-1.26-3.34-2.05-5.83-.78-2.49-1.61-5.49-2.24-8.9-.6-3.4-1-7.24-.56-11.25,.93-8.03,4.78-14.65,8.52-18.31,1.86-1.86,3.61-3.1,4.89-3.82,.62-.39,1.15-.6,1.5-.78,.35-.16,.54-.24,.55-.21Z"></path><path class="cls-10" d="M84.83,418.7c-.16-.08,1.68-2.92,3.36-8.02,1.73-5.05,3.16-12.52,2.01-20.63-.54-4.05-1.71-7.8-3.18-11-1.53-3.16-3.5-5.75-5.42-7.56-1.99-1.76-3.95-2.77-5.32-3.36-1.38-.58-2.21-.71-2.2-.77,0-.02,.21-.01,.61,.05,.39,.07,.97,.2,1.69,.46,1.43,.52,3.45,1.47,5.56,3.23,2.05,1.83,4.08,4.41,5.7,7.66,1.54,3.26,2.75,7.07,3.3,11.19,1.17,8.27-.37,15.85-2.25,20.91-.42,1.29-.97,2.4-1.37,3.39-.48,.96-.88,1.8-1.24,2.46-.76,1.31-1.2,2.02-1.24,1.99Z"></path></g><polygon class="cls-7" points="55.89 416.93 97.07 416.93 97.32 425.17 55.89 425.17 55.89 416.93"></polygon><polygon class="cls-7" points="59.39 421.05 61.75 446.21 91.86 446.21 94.28 421.33 59.39 421.05"></polygon><path class="cls-10" d="M97.32,425.27c0,.21-9.27,.37-20.71,.37s-20.71-.17-20.71-.37,9.27-.37,20.71-.37,20.71,.17,20.71,.37Z"></path><path class="cls-10" d="M93.14,432.93s-.24,.6-.88,1.57c-.65,.96-1.67,2.32-3.19,3.77l-.19,.18-.19-.2c-1.98-2.08-4.71-4.63-8.07-7.06l.46-.02c-1.15,1.01-2.35,2.06-3.58,3.14-1.46,1.27-2.88,2.51-4.23,3.68l-.23,.2-.23-.2c-2.56-2.16-4.9-4.12-6.88-5.78l.4-.04c-1.42,1.73-2.61,3.19-3.56,4.34-.86,1.02-1.35,1.56-1.4,1.53-.04-.03,.37-.65,1.15-1.72,.89-1.19,2.02-2.7,3.36-4.49l.17-.23,.23,.19c2.01,1.63,4.38,3.55,6.98,5.66h-.47c1.35-1.18,2.76-2.42,4.21-3.69,1.23-1.08,2.44-2.12,3.59-3.13l.22-.19,.23,.17c3.39,2.49,6.1,5.13,8.03,7.29h-.38c3.05-2.79,4.32-5.06,4.44-4.97Z"></path></g></g><g id="Device"><g><g><g><g><rect class="cls-9" x="137.46" y="131.77" width="465.06" height="307.54" rx="14.57" ry="14.57"></rect><path class="cls-9" d="M122.24,419.44h503.85v9.11c0,9.82-7.97,17.8-17.8,17.8H140.04c-9.82,0-17.8-7.97-17.8-17.8v-9.11h0Z"></path><polygon class="cls-10" points="324.15 416.56 330.4 426.51 418.38 426.51 424.18 416.56 324.15 416.56"></polygon></g><path class="cls-10" d="M598.52,416.56c0,.17-103.22,.3-230.52,.3s-230.54-.13-230.54-.3,103.2-.3,230.54-.3,230.52,.13,230.52,.3Z"></path></g><g><path class="cls-1" d="M154.05,149.45h430.05c1.81,0,3.27,1.47,3.27,3.27v252.43c0,1.81-1.47,3.27-3.27,3.27H154.05c-1.81,0-3.27-1.47-3.27-3.27V152.73c0-1.81,1.47-3.27,3.27-3.27Z"></path><polygon class="cls-4" points="586.92 408.81 150.31 408.81 150.78 168.81 586.92 168.81 586.92 408.81"></polygon><path class="cls-10" d="M186.59,159.46c0,1.93-1.56,3.49-3.49,3.49s-3.49-1.56-3.49-3.49,1.56-3.49,3.49-3.49,3.49,1.56,3.49,3.49Z"></path><path class="cls-10" d="M165.46,159.46c0,1.93-1.56,3.49-3.49,3.49s-3.49-1.56-3.49-3.49,1.56-3.49,3.49-3.49,3.49,1.56,3.49,3.49Z"></path><path class="cls-10" d="M175.6,159.46c0,1.93-1.56,3.49-3.49,3.49s-3.49-1.56-3.49-3.49,1.56-3.49,3.49-3.49,3.49,1.56,3.49,3.49Z"></path></g><rect class="cls-10" x="150.31" y="385.63" width="437.07" height="23.18"></rect><g><g><path class="cls-4" d="M166.83,399.9v.74h-3.48v-.59l1.88-1.78c.46-.44,.54-.71,.54-.98,0-.43-.3-.68-.88-.68-.46,0-.84,.16-1.11,.49l-.61-.47c.36-.49,1.02-.78,1.79-.78,1.03,0,1.69,.52,1.69,1.36,0,.46-.13,.88-.78,1.49l-1.26,1.2h2.23Z"></path><path class="cls-4" d="M167.3,397.56c0-.34,.25-.56,.55-.56s.55,.22,.55,.56-.25,.56-.55,.56-.55-.24-.55-.56Zm0,2.57c0-.34,.25-.56,.55-.56s.55,.22,.55,.56-.25,.56-.55,.56-.55-.24-.55-.56Z"></path><path class="cls-4" d="M170.6,395.92v4.72h-.88v-3.99h-1v-.74h1.87Z"></path><path class="cls-4" d="M175.75,399.57h-.84v1.07h-.85v-1.07h-2.59v-.61l2.33-3.04h.94l-2.19,2.91h1.55v-.95h.82v.95h.84v.74Z"></path></g><rect class="cls-4" x="183.46" y="397.68" width="358.24" height="1.63"></rect><rect class="cls-7" x="183.19" y="395.93" width="111.95" height="4.36"></rect><path class="cls-7" d="M298.76,398.5c0,3.01-2.44,5.45-5.45,5.45s-5.45-2.44-5.45-5.45,2.44-5.45,5.45-5.45,5.45,2.44,5.45,5.45Z"></path><g><path class="cls-4" d="M550.72,398.45c0,.94-.76,1.53-1.73,1.53-1.29,0-2.04-.83-2.04-2.35,0-1.62,.94-2.51,2.31-2.51,.47,0,.92,.1,1.24,.3l-.32,.66c-.26-.17-.57-.23-.9-.23-.89,0-1.45,.55-1.45,1.63h0c.28-.32,.74-.49,1.26-.49,.93,0,1.63,.57,1.63,1.45Zm-.85,.04c0-.49-.37-.8-.94-.8s-.96,.34-.96,.81,.35,.8,.98,.8c.55,0,.92-.31,.92-.8Z"></path><path class="cls-4" d="M551.15,396.83c0-.34,.25-.56,.55-.56s.55,.22,.55,.56-.25,.56-.55,.56-.55-.24-.55-.56Zm0,2.57c0-.34,.25-.56,.55-.56s.55,.22,.55,.56-.25,.56-.55,.56-.55-.24-.55-.56Z"></path><path class="cls-4" d="M552.82,397.55c0-1.55,.85-2.43,1.97-2.43s1.98,.88,1.98,2.43-.85,2.43-1.98,2.43-1.97-.88-1.97-2.43Zm3.06,0c0-1.14-.44-1.67-1.09-1.67s-1.09,.53-1.09,1.67,.45,1.67,1.09,1.67,1.09-.53,1.09-1.67Z"></path><path class="cls-4" d="M557.35,397.55c0-1.55,.85-2.43,1.97-2.43s1.98,.88,1.98,2.43-.85,2.43-1.98,2.43-1.97-.88-1.97-2.43Zm3.06,0c0-1.14-.44-1.67-1.09-1.67s-1.09,.53-1.09,1.67,.45,1.67,1.09,1.67,1.09-.53,1.09-1.67Z"></path></g><polygon class="cls-4" points="568.93 397.26 567.3 397.26 567.3 392.55 571.99 392.55 571.99 394.18 568.93 394.18 568.93 397.26"></polygon><polygon class="cls-4" points="572 403.4 567.29 403.4 567.29 398.71 568.92 398.71 568.92 401.77 572 401.77 572 403.4"></polygon><polygon class="cls-4" points="579.5 403.4 574.8 403.4 574.8 401.77 577.86 401.77 577.86 398.69 579.5 398.69 579.5 403.4"></polygon><polygon class="cls-4" points="579.5 397.25 577.87 397.25 577.87 394.18 574.79 394.18 574.79 392.55 579.5 392.55 579.5 397.25"></polygon></g></g><g><g><polygon class="cls-1" points="210.19 183.08 184.45 183.08 171.59 205.36 184.45 227.65 210.19 227.65 223.05 205.36 210.19 183.08"></polygon><g><g><path class="cls-10" d="M186.55,209.73c-1.15-1.27-2.31-2.56-3.15-4.06-.84-1.5-1.34-3.24-1.06-4.94,.16-.99,.58-1.93,.65-2.93,.09-1.38-.49-2.82,0-4.11,.76-2.02,3.48-2.33,5.13-3.72,1.28-1.09,1.91-2.85,3.32-3.76,1.23-.8,2.82-.78,4.27-.57,1.45,.21,2.92,.57,4.37,.38,1.04-.14,2.01-.56,3.03-.81s2.15-.32,3.05,.21c.9,.53,1.41,1.81,.82,2.67,1.69-.78,3.83,.54,4.29,2.33,.46,1.8-.46,3.74-1.89,4.93-1.43,1.19-3.28,1.74-5.1,2.08-5.16,.97-10.77,.42-15.22-2.37"></path><g><g><g><path class="cls-6" d="M210.41,215.23c-.17-3.19-1.07-9.73-1.94-15.64-.94-6.36-6.61-10.92-13.02-10.49l-.64,.04c-6.84,.86-9.93,7.15-8.88,13.97l2.01,24.55h16.7s-.39-4.31-.4-4.35c0,0,6.53-1.47,6.17-8.07Z"></path><path class="cls-2" d="M204.24,223.21s-4.15,.62-8.77-1.87c0,0,2.35,4.61,8.9,3.58l-.13-1.71Z"></path></g><g><g><g><path class="cls-10" d="M206.34,205.25c.05,.5-.33,.95-.85,1.01-.52,.06-.98-.29-1.03-.78-.05-.5,.33-.95,.84-1.01,.52-.06,.98,.29,1.03,.79Z"></path><path class="cls-10" d="M207.27,202.91c-.11,.13-.86-.35-1.87-.28-1.01,.06-1.72,.63-1.84,.51-.06-.05,.05-.28,.35-.54,.3-.26,.83-.52,1.46-.56,.63-.04,1.18,.16,1.5,.38,.33,.22,.45,.43,.39,.49Z"></path></g><g><path class="cls-10" d="M196.76,205.94c.05,.5-.33,.95-.85,1.01-.52,.06-.98-.29-1.03-.78-.05-.5,.33-.95,.84-1.01,.52-.06,.98,.29,1.03,.79Z"></path><path class="cls-10" d="M197.31,203.77c-.11,.13-.86-.35-1.87-.28-1.01,.06-1.72,.63-1.84,.51-.06-.05,.05-.28,.36-.54,.3-.26,.83-.52,1.46-.56,.63-.04,1.18,.16,1.5,.38,.33,.22,.45,.43,.39,.49Z"></path></g><path class="cls-10" d="M201.49,211.04c0-.06,.61-.21,1.63-.41,.26-.04,.5-.11,.53-.29,.05-.19-.08-.46-.22-.76-.29-.61-.58-1.25-.9-1.92-1.25-2.74-2.18-4.99-2.07-5.04,.11-.05,1.22,2.13,2.47,4.87,.3,.68,.59,1.32,.87,1.94,.12,.29,.31,.61,.2,1.01-.06,.2-.24,.35-.4,.41-.16,.06-.31,.07-.44,.09-1.02,.12-1.66,.17-1.67,.11Z"></path></g><path class="cls-10" d="M197.3,199.77c-.08,.28-1.1,.22-2.28,.44-1.19,.2-2.12,.61-2.3,.38-.08-.11,.07-.38,.44-.68,.37-.29,.96-.59,1.67-.71,.71-.13,1.37-.06,1.82,.09,.45,.15,.68,.35,.65,.48Z"></path><path class="cls-10" d="M206.7,200c-.16,.24-.88,.05-1.72,.09-.84,.02-1.54,.26-1.72,.03-.08-.11,.02-.35,.31-.59,.29-.24,.79-.45,1.37-.47,.58-.02,1.09,.15,1.4,.37,.31,.22,.43,.45,.35,.57Z"></path></g></g><g><path class="cls-6" d="M186.8,207.95c-.12-.04-4.63-1.04-4.18,3.47,.45,4.5,5.33,3.04,5.32,2.91,0-.13-1.14-6.37-1.14-6.37Z"></path><path class="cls-2" d="M185.94,212.85s-.07,.06-.2,.14c-.12,.07-.34,.13-.59,.07-.49-.13-.97-.84-1.07-1.65-.05-.41,0-.81,.11-1.14,.1-.34,.3-.59,.53-.66,.23-.08,.42,.05,.48,.17,.07,.12,.05,.21,.08,.22,.01,.01,.09-.08,.03-.27-.03-.09-.09-.19-.21-.26-.12-.08-.28-.11-.45-.07-.34,.06-.63,.41-.75,.78-.14,.37-.21,.82-.15,1.28,.12,.9,.67,1.71,1.34,1.83,.32,.05,.58-.07,.71-.19,.13-.13,.14-.23,.13-.23Z"></path></g><path class="cls-10" d="M208.14,193.42c-.31,1.79-3.94,3.43-6.96,3.35-2.78-.08-4.15-1.46-6.17-2.44q-1.28-.62-3.01-.34c-1.4,.23-2.13,1.88-2.92,3.06,1.5,3.27,.89,7.07,.26,10.61-.07,.39-.16,.81-.46,1.08-.51,.45-1.33,.18-1.82-.28-.8-.73-1.16-1.81-1.42-2.86-.6-2.39-.82-4.89-.45-7.32,.38-2.43,1.38-4.8,3.05-6.61,2.08-2.27,5.11-3.58,8.19-3.74,3.07-.16,6.16,.79,8.73,2.48,1.19,.78,2.31,1.75,2.98,3.01"></path></g></g><path class="cls-2" d="M202.16,213.32c-.77-.36-1.53-.71-2.3-1.07-.13-.06-.27-.12-.42-.11-.16,.02-.29,.14-.4,.27-.53,.64-.67,1.62-.25,2.35,.41,.73,1.38,1.11,2.15,.79,.81-.34,1.21-1.28,1.27-2.16l-.06-.07Z"></path><path class="cls-10" d="M201.02,215.72s-.48,.37-1.35,.12c-.42-.13-.89-.45-1.19-.97-.3-.51-.41-1.23-.15-1.88,.12-.32,.32-.61,.56-.83,.12-.11,.24-.21,.39-.29,.15-.11,.46-.12,.6-.03,.52,.29,.88,.54,1.23,.77,.67,.45,1.07,.75,1.03,.82-.04,.06-.5-.13-1.22-.5-.42-.22-.82-.43-1.22-.64-.1-.03-.09-.03-.18,.02-.09,.06-.2,.14-.28,.23-.18,.18-.33,.4-.42,.65-.2,.5-.13,1.05,.09,1.47,.22,.42,.56,.7,.9,.85,.69,.3,1.2,.14,1.22,.22Z"></path><path class="cls-10" d="M200.29,205.36c-.05,0-.04-.42-.25-1.12-.2-.69-.68-1.7-1.72-2.47-1.01-.77-2.66-1.2-4.25-.6-1.58,.55-2.94,2.23-2.92,4.19-.02,1.96,1.34,3.64,2.92,4.19,1.59,.6,3.24,.17,4.25-.6,1.04-.77,1.53-1.78,1.72-2.47,.2-.7,.19-1.13,.25-1.12,.02,0,.03,.1,.04,.3,.01,.2,0,.5-.09,.87-.15,.74-.6,1.84-1.7,2.71-1.06,.87-2.87,1.39-4.64,.76-1.76-.58-3.3-2.45-3.28-4.64-.02-2.19,1.52-4.06,3.28-4.64,1.78-.64,3.58-.12,4.64,.76,1.1,.87,1.55,1.98,1.7,2.71,.08,.37,.1,.67,.09,.87,0,.2-.02,.3-.04,.3Z"></path><path class="cls-10" d="M211.52,204.92c-.05,0-.05-.41-.24-1.09-.19-.67-.66-1.65-1.68-2.4-.98-.75-2.59-1.16-4.14-.58-1.54,.53-2.86,2.17-2.84,4.08-.02,1.91,1.31,3.54,2.84,4.08,1.55,.58,3.16,.17,4.14-.58,1.02-.75,1.49-1.73,1.68-2.4,.2-.69,.19-1.1,.24-1.09,.02,0,.03,.1,.04,.3,.01,.19,0,.48-.08,.85-.14,.72-.58,1.79-1.65,2.65-1.03,.85-2.79,1.36-4.53,.74-1.72-.57-3.22-2.39-3.2-4.53-.02-2.14,1.48-3.96,3.2-4.53,1.73-.62,3.49-.11,4.53,.74,1.07,.85,1.51,1.93,1.65,2.65,.08,.36,.09,.65,.08,.85,0,.19-.02,.3-.04,.3Z"></path><path class="cls-10" d="M202.36,203.89c-.1,.1-.55-.19-1.15-.17-.6,0-1.03,.31-1.14,.21-.14-.07,.28-.72,1.13-.74,.85-.01,1.29,.62,1.16,.69Z"></path><path class="cls-10" d="M191.17,204.7c.09,.12-.79,.91-1.95,1.78-1.16,.87-2.18,1.48-2.26,1.36-.09-.12,.79-.91,1.95-1.78,1.16-.87,2.18-1.48,2.26-1.36Z"></path></g></g><path class="cls-10" d="M283.99,205.14c0,.14-11.57,.26-25.84,.26s-25.84-.12-25.84-.26,11.57-.26,25.84-.26,25.84,.12,25.84,.26Z"></path><path class="cls-10" d="M260.09,210.55c0,.14-6.14,.26-13.72,.26s-13.72-.12-13.72-.26,6.14-.26,13.72-.26,13.72,.12,13.72,.26Z"></path></g></g></g><g id="Character"><g><path class="cls-11" d="M438.79,245.09s13.73,6.69,18.56,23.97,19.59,62.28,19.59,62.28c0,0,8.44,9.93,9.35,17.28,.9,7.35-.9,25.14-3.62,28.46-2.71,3.32-6.58,2.77-6.58,2.77l-35.53-3.37-13.99-93.68,12.22-37.71Z"></path><path class="cls-11" d="M321.31,243.46s-25.4,7.97-31.73,14.9l20.8,96.77-.33,30.53h120.44c0-1.51,1.08-101.37,1.08-101.37l7.23-39.19-42.81-7.54-8.44-6.63-47.63,2.41-7.23,7.23-11.37,2.88Z"></path><g class="cls-12"><path d="M330.96,327.41c-.37-.82-.9-1.71-1.78-1.89-1.45-.3-2.42,1.42-2.91,2.81-3.91,11.08-9.09,21.27-15.82,30.89l-.31,14.86c7.02-5.91,13.94-12.24,18.42-20.25,4.48-8.01,6.19-18.06,2.41-26.42Z"></path></g><path class="cls-11" d="M289.57,258.36s-8.37,11.41-11.85,18.86c-3.48,7.45-32.28,70.01-34.01,76.47-1.74,6.46-6.21,26.81,6.95,31.53h27.06l27.16-54.93,1.39-63.75-16.71-8.18Z"></path><path class="cls-10" d="M279.46,345.54s-.6-.53-1.85-1.24c-1.24-.7-3.18-1.51-5.68-2.06-1.25-.27-2.64-.49-4.14-.58-1.5-.09-3.11-.07-4.75,.31-3.28,.73-6.54,2.81-9.11,5.72-2.61,2.91-4.21,6.35-5.16,9.59-.96,3.25-1.37,6.3-1.63,8.85-.25,2.56-.35,4.64-.44,6.08-.04,.67-.08,1.22-.1,1.66-.03,.38-.05,.58-.07,.58-.02,0-.03-.2-.03-.58,0-.44,0-.99,0-1.66,.03-1.44,.07-3.53,.27-6.11,.21-2.57,.59-5.65,1.53-8.96,.93-3.29,2.56-6.82,5.23-9.8,2.63-2.98,5.99-5.11,9.4-5.84,1.7-.38,3.36-.39,4.88-.27,1.52,.11,2.93,.35,4.19,.65,2.53,.6,4.47,1.47,5.7,2.24,.61,.39,1.06,.74,1.34,1,.28,.26,.42,.41,.4,.42Z"></path><path class="cls-10" d="M266.63,334.6s.32-.09,.91-.15c.59-.07,1.45-.09,2.51-.03,1.06,.05,2.32,.23,3.69,.55,1.36,.34,2.84,.84,4.31,1.53,1.46,.71,2.78,1.54,3.9,2.39,1.11,.87,2.04,1.73,2.75,2.53,.71,.79,1.24,1.47,1.55,1.97,.32,.5,.49,.78,.46,.8-.08,.06-.81-1.03-2.28-2.52-.73-.75-1.67-1.57-2.77-2.39-1.12-.81-2.41-1.61-3.84-2.3-1.44-.68-2.87-1.17-4.2-1.53-1.34-.34-2.56-.55-3.6-.64-2.08-.2-3.38-.09-3.39-.19Z"></path><path class="cls-10" d="M291.09,331.59s-.45,0-1.25-.1c-.8-.1-1.96-.22-3.39-.33-2.86-.22-6.84-.27-11.2,.25-4.35,.53-8.21,1.52-10.94,2.4-1.37,.44-2.47,.83-3.22,1.12-.75,.28-1.18,.42-1.19,.39s.38-.24,1.12-.58c.73-.35,1.81-.79,3.18-1.28,2.72-.98,6.6-2.04,11-2.57,4.39-.52,8.42-.41,11.29-.1,1.44,.15,2.6,.33,3.39,.49,.79,.16,1.23,.26,1.22,.3Z"></path><path class="cls-10" d="M368.18,278.14s-.1-.1-.28-.33c-.19-.26-.44-.59-.74-.99-.66-.92-1.58-2.19-2.72-3.77-2.34-3.3-5.59-7.89-9.43-13.3l.42-.06c-1.46,4.28-3.07,9.01-4.76,13.98l-.11,.31-.27-.18c-.18-.11-.37-.24-.56-.36-2.24-1.42-4.22-3.13-5.89-4.98-1.67-1.86-3.06-3.84-4.21-5.82-2.3-3.97-3.69-7.88-4.63-11.19-.94-3.32-1.43-6.08-1.75-7.97-.16-.91-.28-1.63-.38-2.18-.05-.25-.1-.43-.13-.56-.05-.11-.07-.18-.06-.18,.11-.05,.4,1,.77,2.89,.39,1.88,.93,4.62,1.91,7.91,.98,3.28,2.39,7.15,4.69,11.05,1.15,1.95,2.52,3.89,4.17,5.72,1.66,1.81,3.6,3.49,5.79,4.88,.19,.12,.38,.24,.55,.35l-.38,.14c1.71-4.97,3.33-9.69,4.8-13.96l.15-.45,.27,.39c3.77,5.45,6.97,10.08,9.27,13.41,1.1,1.61,1.97,2.91,2.61,3.85,.28,.42,.5,.76,.68,1.03,.15,.24,.22,.36,.21,.37Z"></path><g class="cls-12"><path d="M399.53,324.33c-1.12,11.19,1.35,22.71,6.96,32.45,5.6,9.75,13.82,18.43,24.05,23.1,.33-9.93-.15-21.63,.18-31.56l-31.19-23.99Z"></path></g><g><path class="cls-6" d="M398.4,311.26s-4.37,1.21-1.09,10.18c3.28,8.96,4.37,8.42,6.56,16.81,2.19,8.38,4.74,16.04,8.57,20.78,3.83,4.74,18.05,14.4,18.05,14.4l12.76-12.03s-2.1-8.97-1.6-15.06c.5-6.09,1.78-21.04,1.6-23.59-.18-2.55-2.92-8.75-2.92-8.75v-4.24l-6.56-20.19s-3.65-1.64-4.92,4.19l-2.19-6.19s-3.46-.55-4.37,6.56,.73,16.95,.73,16.95l-1.82,12.4-2.73,8.38-2.37,.36s-3.57-.97-5.52-7.69c-1.95-6.71-7.24-14.73-12.16-13.27Z"></path><path class="cls-2" d="M438.97,342.96s-.03-.16-.06-.46c-.02-.35-.05-.79-.09-1.34-.07-1.22-.16-2.91-.27-5.02-.2-4.35-.47-10.41-.79-17.48l.06,.15c-.59-.7-1.63-.91-2.58-.67-.97,.23-1.83,.83-2.37,1.73-1.11,1.79-1.18,4.13-1.52,6.39-.69,5.11-1.35,9.97-1.95,14.41-.3,2.21-.62,4.32-1.06,6.27-.42,1.95-1.01,3.73-1.58,5.32-.56,1.59-1.06,3.03-1.37,4.33-.31,1.3-.44,2.44-.41,3.38,.04,1.88,.59,2.84,.5,2.86-.02,0-.12-.23-.31-.7-.15-.48-.36-1.2-.4-2.15-.06-.95,.04-2.13,.33-3.45,.29-1.32,.77-2.78,1.31-4.38,.55-1.6,1.11-3.35,1.51-5.29,.41-1.93,.71-4.03,1-6.24,.59-4.44,1.23-9.3,1.91-14.41,.16-1.14,.28-2.26,.48-3.39,.2-1.12,.51-2.24,1.13-3.2,.58-.98,1.6-1.7,2.68-1.95,1.07-.27,2.34-.03,3.07,.85l.05,.07v.08c.25,7.07,.45,13.13,.6,17.49,.05,2.11,.1,3.8,.13,5.03,0,.55,.01,.99,.01,1.34,0,.3,0,.46-.02,.46Z"></path><path class="cls-2" d="M431.99,319.99s-.23-.39-.54-1.14c-.3-.75-.7-1.86-1.07-3.27-.37-1.4-.72-3.11-.92-5.02-.1-.96-.17-1.98-.05-3.04,.11-1.06,.42-2.18,1.1-3.12,.58-.82,1.4-1.48,2.33-1.75l.2-.06,.1,.18c1.85,3.26,3.45,6.14,4.58,8.21,.52,.97,.95,1.78,1.31,2.45,.3,.58,.45,.9,.42,.92-.03,.02-.23-.28-.58-.83-.39-.64-.87-1.43-1.44-2.37-1.21-2.03-2.87-4.87-4.74-8.12l.3,.12c-.8,.24-1.53,.81-2.05,1.56-.61,.86-.91,1.88-1.02,2.88-.11,1.01-.06,2,.02,2.94,.17,1.89,.47,3.58,.8,4.98,.32,1.4,.66,2.52,.9,3.29,.24,.77,.38,1.19,.35,1.21Z"></path><path class="cls-2" d="M428.94,321.64s-.08-.41-.12-1.16c-.03-.86-.08-1.92-.13-3.17-.09-2.68-.17-6.38-.23-10.47-.03-4.09-.19-7.8,.16-10.49,.17-1.34,.44-2.41,.68-3.12,.24-.72,.44-1.09,.47-1.07,.09,.03-.56,1.58-.79,4.24-.25,2.65-.04,6.35,0,10.44,.06,4.09,.08,7.79,.08,10.47-.01,1.25-.03,2.31-.04,3.18-.02,.75-.05,1.16-.08,1.17Z"></path><path class="cls-2" d="M418.15,355.25c-.07-.06,.72-1,1.71-2.71,.5-.85,1.01-1.91,1.48-3.11,.45-1.22,.86-2.59,1.14-4.06,.26-1.48,.35-2.9,.35-4.2-.02-1.3-.13-2.47-.3-3.43-.33-1.94-.75-3.1-.66-3.13,.03-.01,.16,.27,.36,.79,.21,.52,.44,1.3,.66,2.27,.22,.98,.37,2.17,.42,3.49,.03,1.33-.06,2.79-.32,4.3-.28,1.51-.71,2.91-1.2,4.14-.51,1.22-1.07,2.29-1.62,3.13-.54,.84-1.03,1.49-1.41,1.9-.37,.42-.59,.64-.62,.61Z"></path><path class="cls-6" d="M440.55,348.98l11.07,3.84s10.57-5.47,17.86,0c7.29,5.47,13.62,19.88,11.62,25.71,0,0-5.03,6.21-8.86,7.12-3.83,.91-18.71-2.69-24.9-4-6.21-1.31-16.87-8.24-16.87-8.24l10.07-24.44Z"></path><path class="cls-2" d="M441.91,365.29s-.08-.35-.12-.98c-.04-.75-.1-1.64-.16-2.67-.12-2.26-.27-5.38-.32-8.84-.05-3.46,.05-6.59,.26-8.85,.1-1.13,.22-2.04,.33-2.67,.11-.63,.19-.97,.23-.96,.08,.01-.09,1.4-.2,3.65-.11,2.25-.15,5.37-.1,8.82,.06,3.38,.12,6.44,.16,8.84,.01,1.13,0,2.05,0,2.68-.02,.63-.05,.98-.08,.98Z"></path></g><path class="cls-10" d="M478.42,352.38c-.08,.08-1.22-1.5-3.68-3.32-2.43-1.82-6.37-3.76-11.03-4.02-4.67-.25-8.8,1.24-11.41,2.78-2.65,1.54-3.95,2.98-4.02,2.89-.02-.02,.29-.39,.91-.99,.62-.6,1.6-1.4,2.92-2.22,2.61-1.65,6.83-3.24,11.63-2.98,4.8,.27,8.82,2.32,11.23,4.24,1.22,.96,2.11,1.87,2.66,2.53,.56,.66,.82,1.07,.8,1.08Z"></path><path class="cls-10" d="M477,343.15c-.07,.11-1.55-1.39-4.61-2.54-3.01-1.18-7.68-1.72-12.47-.37-2.39,.67-4.58,1.62-6.45,2.68-1.87,1.07-3.43,2.24-4.67,3.3-1.24,1.06-2.19,1.99-2.84,2.63-.65,.65-1.01,1-1.04,.98-.02-.02,.29-.42,.9-1.12,.61-.69,1.52-1.66,2.75-2.77,1.22-1.11,2.78-2.33,4.67-3.44,1.89-1.1,4.11-2.09,6.55-2.77,4.91-1.38,9.7-.76,12.74,.53,1.54,.63,2.68,1.36,3.41,1.92,.38,.27,.63,.53,.81,.69,.18,.17,.27,.26,.25,.27Z"></path><path class="cls-10" d="M477.09,335.15c-.03,.1-1.96-.49-5.18-.92-1.61-.23-3.54-.36-5.68-.36-2.14,.03-4.49,.21-6.93,.62-2.43,.44-4.7,1.08-6.73,1.78-2.01,.73-3.78,1.51-5.21,2.28-2.87,1.51-4.49,2.72-4.55,2.64-.02-.03,.37-.34,1.11-.89,.36-.28,.82-.6,1.37-.94,.55-.34,1.17-.76,1.89-1.13,1.42-.81,3.2-1.63,5.22-2.4,2.04-.73,4.34-1.39,6.8-1.84,2.47-.42,4.85-.59,7.02-.59,2.17,.03,4.12,.2,5.73,.48,.81,.1,1.53,.29,2.17,.42,.64,.13,1.18,.28,1.61,.41,.88,.26,1.35,.42,1.34,.45Z"></path><path class="cls-10" d="M392.26,237.23s.51,.96,.77,2.94c.27,1.97,.23,4.93-.42,8.59-.33,1.83-.77,3.84-1.43,5.99-.69,2.15-1.73,4.35-2.91,6.65-2.38,4.6-5.39,9.61-8.86,14.96l-.41,.63v-.75c0-3.53-.01-7.24-.02-11.1l.39,.19c-2.98,2.4-6.11,4.93-9.34,7.54l.08-.12c-2.16,6.86-3.59,14.5-4.15,22.45-.91,12.17-.18,23.81,.4,34.37,.49,10.57,.81,20.1,1.14,28.09,.32,8,.61,14.46,.85,18.93,.13,2.21,.23,3.94,.3,5.14,.04,.57,.07,1.01,.09,1.34,.02,.3,.01,.46,.01,.46,0,0-.03-.15-.07-.45-.03-.32-.08-.77-.14-1.33-.11-1.17-.25-2.91-.4-5.14-.3-4.47-.65-10.93-1.01-18.93-.36-8-.78-17.52-1.26-28.08-.6-10.55-1.35-22.22-.44-34.43,.57-7.98,2-15.66,4.19-22.56l.02-.07,.06-.05c3.23-2.6,6.37-5.12,9.35-7.52l.39-.31v.5c0,3.85-.01,7.56-.02,11.1l-.41-.12c6.87-10.65,12.46-19.91,13.32-27.4,.69-3.63,.77-6.56,.54-8.53-.1-.99-.29-1.72-.41-2.22-.16-.49-.22-.74-.22-.74Z"></path><path class="cls-4" d="M374.32,366.22h-.36c-1.45,.03-2.74,1.35-2.74,2.8,0,1.45,1.28,2.78,2.72,2.83,1.45,.05,2.82-1.19,2.91-2.63,.1-1.44-1.1-2.85-2.54-2.99Z"></path><g><path class="cls-4" d="M374.32,327.68h-.36c-1.45,.03-2.74,1.35-2.74,2.8,0,1.45,1.28,2.78,2.72,2.83,1.45,.05,2.82-1.19,2.91-2.63,.1-1.44-1.1-2.85-2.54-2.99Z"></path><path class="cls-4" d="M373.95,293.2c1.45,.05,2.82-1.19,2.91-2.63,.1-1.44-1.1-2.85-2.54-2.99h-.36c-1.45,.03-2.74,1.35-2.74,2.8,0,1.45,1.28,2.78,2.72,2.83Z"></path></g><g><g><path class="cls-10" d="M330.77,192.07c-3.51-3.88-7.04-7.81-9.6-12.37-2.56-4.56-4.08-9.89-3.23-15.05,.49-3.02,1.78-5.89,1.98-8.95,.28-4.2-1.48-8.59,0-12.52,2.33-6.15,10.61-7.1,15.63-11.35,3.91-3.31,5.81-8.68,10.12-11.47,3.76-2.43,8.59-2.38,13.02-1.75,4.43,.63,8.89,1.75,13.33,1.15,3.16-.43,6.14-1.7,9.24-2.47,3.1-.77,6.55-.97,9.31,.63,2.76,1.6,4.31,5.52,2.5,8.15,5.14-2.37,11.67,1.64,13.08,7.12,1.41,5.48-1.41,11.41-5.77,15.02-4.36,3.62-9.99,5.3-15.55,6.35-15.75,2.97-32.83,1.29-46.4-7.23"></path><g><g><g><path class="cls-6" d="M386.14,245.01c-.77-5.96-1.4-10.93-1.44-11.55,0,0,19.92-4.48,18.82-24.62-.53-9.73-3.26-29.7-5.93-47.73-2.87-19.36-20.16-33.26-39.69-31.96l-1.94,.13c-20.86,2.62-30.28,21.81-27.08,42.58l11.25,69.67s4.8,15.41,15.08,18.08l12.96,18.52,2.14-7.97,9.66-8.41s2.22-2.4,4.76-7.09c2.08-3.84,1.64-7.78,1.39-9.65Z"></path><path class="cls-2" d="M384.71,233.17s-12.65,1.89-26.74-5.7c0,0,7.17,14.07,27.13,10.91l-.4-5.21Z"></path></g><g><g><g><path class="cls-10" d="M391.12,178.42c.16,1.51-1,2.89-2.58,3.09-1.58,.19-2.98-.88-3.14-2.39-.15-1.51,1-2.9,2.57-3.09,1.58-.19,2.98,.88,3.14,2.4Z"></path><path class="cls-10" d="M393.93,171.28c-.33,.4-2.62-1.07-5.71-.85-3.09,.17-5.26,1.91-5.62,1.56-.18-.16,.14-.86,1.08-1.64,.93-.78,2.54-1.59,4.47-1.71,1.93-.12,3.6,.48,4.58,1.15,1,.67,1.37,1.32,1.2,1.5Z"></path></g><g><path class="cls-10" d="M361.9,180.51c.16,1.51-1,2.89-2.58,3.09-1.58,.19-2.98-.88-3.14-2.39-.15-1.51,1-2.9,2.57-3.09,1.58-.19,2.98,.88,3.14,2.4Z"></path><path class="cls-10" d="M363.57,173.89c-.33,.4-2.62-1.07-5.71-.85-3.09,.17-5.26,1.91-5.62,1.56-.18-.16,.14-.86,1.08-1.64,.92-.78,2.54-1.59,4.46-1.71,1.93-.12,3.6,.48,4.58,1.15,1,.67,1.37,1.32,1.2,1.5Z"></path></g><path class="cls-10" d="M376.32,196.08c-.03-.17,1.87-.64,4.96-1.24,.78-.13,1.52-.34,1.62-.89,.15-.58-.24-1.41-.68-2.31-.87-1.86-1.78-3.81-2.74-5.86-3.82-8.35-6.64-15.23-6.3-15.38,.34-.15,3.7,6.49,7.52,14.84,.92,2.06,1.8,4.02,2.64,5.9,.36,.88,.94,1.86,.62,3.07-.17,.6-.72,1.07-1.22,1.24-.5,.19-.94,.23-1.33,.28-3.12,.38-5.07,.52-5.09,.35Z"></path></g><path class="cls-10" d="M363.55,161.71c-.25,.86-3.36,.67-6.96,1.35-3.61,.61-6.47,1.87-7,1.14-.24-.35,.22-1.17,1.35-2.07,1.12-.89,2.94-1.79,5.1-2.18,2.16-.38,4.18-.17,5.54,.28,1.37,.45,2.08,1.06,1.98,1.47Z"></path><path class="cls-10" d="M392.19,162.4c-.5,.74-2.68,.15-5.24,.29-2.57,.05-4.7,.79-5.25,.09-.24-.34,.05-1.07,.96-1.8,.89-.72,2.42-1.37,4.18-1.44,1.76-.06,3.33,.47,4.27,1.13,.95,.66,1.3,1.36,1.08,1.72Z"></path></g></g><g><path class="cls-6" d="M331.52,186.66c-.35-.13-14.1-3.17-12.74,10.57,1.36,13.73,16.24,9.26,16.23,8.86-.02-.4-3.48-19.42-3.48-19.42Z"></path><path class="cls-2" d="M328.92,201.58c-.06-.04-.22,.19-.61,.42-.38,.22-1.04,.41-1.78,.21-1.5-.39-2.95-2.57-3.26-5.04-.16-1.25-.01-2.46,.33-3.49,.32-1.05,.9-1.81,1.62-2.01,.71-.24,1.27,.15,1.48,.52,.22,.37,.16,.65,.24,.66,.04,.03,.27-.26,.11-.82-.08-.27-.28-.57-.63-.81-.36-.24-.85-.32-1.36-.22-1.05,.18-1.91,1.25-2.29,2.38-.44,1.14-.63,2.51-.45,3.91,.36,2.76,2.03,5.21,4.08,5.58,.99,.16,1.77-.21,2.15-.58,.39-.38,.43-.7,.38-.72Z"></path></g><path class="cls-10" d="M396.58,142.35c-.94,5.47-12.03,10.47-21.22,10.21-8.47-.25-12.66-4.45-18.82-7.44q-3.9-1.89-9.18-1.03c-4.28,.7-6.49,5.74-8.89,9.35,4.57,9.97,2.72,21.56,.79,32.36-.21,1.19-.48,2.48-1.39,3.28-1.54,1.36-4.05,.55-5.56-.84-2.43-2.23-3.54-5.53-4.33-8.72-1.81-7.28-2.51-14.91-1.36-22.33,1.15-7.42,4.22-14.62,9.29-20.16,6.33-6.92,15.59-10.91,24.96-11.39,9.37-.48,18.78,2.42,26.62,7.56,3.64,2.38,7.04,5.33,9.1,9.17"></path></g></g><path class="cls-2" d="M378.35,203.03c-2.33-1.09-4.67-2.18-7-3.26-.4-.19-.83-.38-1.27-.32-.5,.07-.89,.44-1.21,.82-1.62,1.97-2.03,4.93-.78,7.15,1.26,2.22,4.21,3.39,6.57,2.41,2.48-1.03,3.69-3.91,3.88-6.59l-.19-.22Z"></path><path class="cls-10" d="M374.88,210.33c.02,.06-.32,.26-1.02,.41-.69,.13-1.77,.19-3.01-.22-1.23-.39-2.62-1.35-3.48-2.89-.87-1.5-1.19-3.61-.43-5.52,.36-.95,.93-1.79,1.62-2.45,.35-.33,.72-.61,1.14-.86,.22-.12,.49-.24,.81-.26,.31-.02,.59,.06,.81,.16,.46,.2,.75,.42,1.09,.62,.33,.2,.64,.4,.95,.59,.6,.38,1.17,.73,1.7,1.07,2.08,1.32,3.32,2.19,3.25,2.32-.07,.12-1.45-.53-3.62-1.68-.55-.3-1.14-.62-1.77-.96-.32-.18-.65-.36-.98-.54-.33-.18-.7-.41-.99-.52-.32-.11-.46-.1-.77,.07-.31,.19-.64,.45-.92,.73-.58,.57-1.05,1.28-1.36,2.09-.64,1.61-.41,3.36,.3,4.69,.7,1.34,1.83,2.22,2.89,2.66,1.07,.45,2.05,.51,2.71,.51,.67-.02,1.04-.08,1.07,0Z"></path><path class="cls-10" d="M372.67,178.77c-.08,0,.01-1.28-.55-3.48-.55-2.15-1.99-5.32-5.23-7.78-1.61-1.2-3.63-2.21-5.96-2.62-2.31-.39-4.93-.32-7.41,.63-1.25,.44-2.46,1.09-3.56,1.92-1.12,.81-2.14,1.82-2.98,2.99-1.73,2.31-2.71,5.27-2.74,8.32,.03,3.05,1,6.02,2.74,8.33,.84,1.17,1.86,2.18,2.98,3,1.11,.83,2.31,1.49,3.56,1.92,2.48,.95,5.1,1.02,7.41,.63,2.33-.41,4.35-1.42,5.96-2.62,3.24-2.45,4.68-5.62,5.23-7.78,.56-2.2,.47-3.48,.55-3.48,0,0,.01,.08,.01,.23,0,.19,0,.41,0,.68,0,.3-.01,.67-.09,1.11-.06,.44-.11,.94-.27,1.5-.23,1.12-.74,2.45-1.55,3.87-.82,1.41-2.01,2.89-3.65,4.15-1.63,1.25-3.7,2.31-6.1,2.75-2.38,.42-5.08,.36-7.65-.6-1.3-.44-2.55-1.12-3.7-1.98-1.16-.84-2.22-1.88-3.09-3.09-1.8-2.39-2.82-5.46-2.85-8.63,.03-3.17,1.05-6.24,2.85-8.63,.87-1.21,1.93-2.25,3.09-3.09,1.15-.85,2.4-1.53,3.7-1.97,2.57-.97,5.27-1.03,7.65-.6,2.4,.44,4.47,1.51,6.1,2.75,1.64,1.26,2.83,2.74,3.65,4.15,.81,1.42,1.32,2.75,1.55,3.87,.16,.55,.21,1.06,.27,1.5,.07,.44,.09,.81,.09,1.11,0,.27,0,.5,0,.68,0,.15,0,.23-.01,.23Z"></path><path class="cls-10" d="M406.91,177.42c-.08,0,0-1.25-.54-3.39-.54-2.1-1.94-5.19-5.1-7.57-1.56-1.17-3.53-2.16-5.8-2.55-2.25-.38-4.8-.31-7.22,.62-1.22,.42-2.39,1.06-3.47,1.87-1.09,.79-2.08,1.78-2.9,2.92-1.69,2.25-2.64,5.13-2.67,8.11,.03,2.98,.98,5.86,2.66,8.11,.82,1.14,1.81,2.12,2.9,2.92,1.08,.81,2.25,1.45,3.47,1.87,2.42,.92,4.96,1,7.22,.61,2.27-.4,4.24-1.39,5.8-2.55,3.16-2.39,4.56-5.47,5.09-7.57,.54-2.14,.46-3.39,.54-3.39,.02,0,.02,.31,0,.89,0,.29-.01,.66-.08,1.08-.06,.43-.11,.92-.26,1.46-.49,2.14-1.86,5.33-5.07,7.82-1.59,1.22-3.61,2.26-5.95,2.68-2.32,.41-4.95,.35-7.46-.59-1.26-.43-2.48-1.09-3.6-1.93-1.13-.82-2.16-1.83-3.01-3.01-1.76-2.33-2.75-5.32-2.77-8.41,.03-3.09,1.02-6.08,2.78-8.41,.85-1.18,1.88-2.2,3.01-3.01,1.12-.83,2.34-1.49,3.6-1.92,2.51-.94,5.14-1,7.46-.59,2.34,.43,4.36,1.47,5.95,2.68,3.21,2.49,4.58,5.67,5.07,7.82,.15,.54,.21,1.03,.26,1.46,.07,.42,.09,.79,.08,1.08,.01,.59,.01,.89,0,.89Z"></path><path class="cls-10" d="M378.97,174.26c-.06,.06-.39-.22-.99-.51-.6-.29-1.5-.57-2.52-.55-1.01,.01-1.91,.33-2.5,.64-.6,.31-.91,.6-.97,.55-.05-.04,.18-.44,.78-.86,.59-.42,1.55-.83,2.68-.85,1.12-.02,2.1,.35,2.71,.75,.61,.4,.86,.79,.81,.83Z"></path><path class="cls-10" d="M344.85,176.73c.09,.12-2.72,2.36-6.27,5-3.55,2.65-6.49,4.7-6.58,4.59-.09-.12,2.72-2.35,6.27-5,3.55-2.65,6.49-4.7,6.58-4.59Z"></path></g><g class="cls-12"><path d="M333.02,241.81c-1.39,13.57,3.77,27.9,14.65,36.12,.85,.65,1.93,1.28,2.93,.92,.7-.25,1.15-.92,1.52-1.57,3.1-5.37,4.14-11.3,3.25-17.44-1.72,4.54-3.2,8.99-4.94,13.74-9.48-5.76-15.4-18-17.41-31.78Z"></path></g><path class="cls-12" d="M369.87,272.67l7.99-2.92,1.32,13.51s8.62-15.71,12.19-22.88c3.57-7.17,1.73-19.82,1.73-19.82,0,0,1.28,11.02-7.36,25.07l-6.52,10.6v-11.1l-9.35,7.53Z"></path><g class="cls-12"><path d="M276.95,341.33c-3.56-1.68-7.66-1.91-11.57-1.45-4.13,.48-8.28,1.75-11.52,4.36-3.24,2.61-5.43,6.73-5.03,10.87l.4,.06c2.79-7.54,8.33-13.03,15.48-13.7,7.15-.66,14.12,2.52,19.03,7.76-.48-3.91-3.23-6.21-6.79-7.9Z"></path></g><g class="cls-12"><path d="M478.94,349.04c-2.68-2.89-6.44-4.64-10.32-5.32-6.81-1.19-14.12,.93-19.25,5.57l1.52-1.24c3.87-2.27,8.33-3.61,12.82-3.48,4.48,.13,8.97,1.79,12.22,4.88,2.99,2.84,4.78,6.69,6.49,10.44,.67-3.88-.81-7.97-3.49-10.86Z"></path></g><path class="cls-10" d="M427.45,286.3s.1-.4,.36-1.09c.31-.79,.69-1.76,1.14-2.91,.97-2.45,2.29-5.84,3.7-9.6,1.4-3.77,2.61-7.2,3.48-9.69,.41-1.16,.76-2.14,1.04-2.94,.25-.69,.41-1.07,.44-1.06,.03,.01-.06,.41-.25,1.12-.19,.71-.49,1.74-.88,3-.78,2.52-1.94,5.98-3.34,9.75-1.4,3.77-2.79,7.14-3.84,9.56-.53,1.21-.97,2.18-1.29,2.85-.32,.67-.51,1.03-.54,1.01Z"></path><path class="cls-10" d="M301.38,287.28c-.14,.03-1.23-4.73-2.43-10.63-1.2-5.9-2.06-10.7-1.92-10.73,.14-.03,1.23,4.73,2.43,10.63,1.2,5.9,2.06,10.7,1.92,10.73Z"></path><g><g><path class="cls-6" d="M299.49,346.77c.32,.16-3.66-31.16-3.66-31.16,0,0,2.51-23.77,3.92-24.87l.04-8.39s3.89-2.36,4.93,1.45c0,0,3.45-2.99,4.05,4.13,.6,7.12,.73,14.41,.73,14.41l7.67,19.18,1.26,.64s1.65-15.03,2.61-17.24c.96-2.21,1.62-7.59,5.25-6.78,3.64,.81,3.94,3.82,3.29,8.72-.65,4.9-1.47,9.97-1.16,13.13s1.74,10.14,1.3,15.67-3.47,11.38-6.66,15.48c-3.18,4.1-9.26,12.58-12.57,15.14-1.15,.89-10.99-19.52-10.99-19.52Z"></path><path class="cls-2" d="M303.37,321.28s-.03-.48,.02-1.34c.07-.96,.15-2.18,.25-3.64,.23-3.07,.59-7.31,1.02-11.99,.22-2.33,.43-4.56,.62-6.59,.1-1.01,.16-1.96,.03-2.83-.12-.87-.46-1.62-.96-2.16-1.01-1.1-2.32-1.38-3.13-1.37-.85,0-1.29,.22-1.31,.17,0-.02,.1-.07,.31-.16,.22-.08,.55-.18,.99-.21,.86-.06,2.26,.16,3.41,1.33,.57,.58,.97,1.42,1.11,2.34,.16,.93,.1,1.92,.02,2.94-.18,2.04-.38,4.26-.58,6.6-.43,4.68-.85,8.91-1.17,11.97-.17,1.45-.31,2.67-.42,3.62-.11,.85-.19,1.33-.22,1.32Z"></path><path class="cls-2" d="M307.49,308.47c.07,.06-.78,.81-1.36,2.47-.62,1.63-.84,4.09-1.28,6.76-.41,2.68-.82,5.1-1.13,6.84-.32,1.75-.55,2.82-.62,2.81-.07-.01,.03-1.11,.26-2.87,.22-1.76,.57-4.19,.98-6.87,.43-2.66,.71-5.13,1.45-6.82,.35-.84,.77-1.45,1.11-1.83,.34-.38,.58-.53,.59-.51Z"></path><path class="cls-2" d="M304.67,283.39s.13,.34,.27,.99c.14,.64,.31,1.57,.5,2.73,.38,2.31,.8,5.52,1.07,9.09,.26,3.57,.32,6.81,.28,9.15-.02,1.17-.05,2.12-.1,2.77-.04,.65-.08,1.01-.12,1.01-.08,0-.09-1.45-.15-3.78-.06-2.34-.17-5.56-.43-9.11-.26-3.55-.62-6.76-.91-9.08-.29-2.32-.48-3.75-.41-3.77Z"></path><path class="cls-2" d="M326.8,312.75c.08,.12-1.12,.67-2.58,.22-1.47-.44-2.15-1.57-2.02-1.62,.12-.1,.88,.75,2.17,1.13,1.28,.41,2.39,.13,2.43,.28Z"></path><path class="cls-6" d="M299.92,342.87l-20.27,8.52h-12.08s-11.94,3.73-13.78,14.92c-1.84,11.2-2.1,16.96,3.15,18.34,5.25,1.38,20.08,1.54,27.43-.9,7.35-2.44,26.6-17.98,26.6-17.98l1.86-11.24-12.92-11.67Z"></path></g><path class="cls-2" d="M304.67,355.25s-.23-.16-.58-.53c-.36-.35-.8-.93-1.32-1.67-1-1.5-2.1-3.77-2.83-6.41-.76-2.64-1.08-5.11-1.25-6.89-.15-1.78-.15-2.89-.08-2.9,.08,0,.2,1.09,.44,2.85,.26,1.76,.64,4.19,1.38,6.79,.72,2.61,1.74,4.84,2.64,6.36,.91,1.51,1.65,2.33,1.58,2.4Z"></path></g><path class="cls-2" d="M313.5,358.8c-.11-.04,.8-1.58,1.15-4.34,.17-1.37,.15-3.04-.24-4.83-.39-1.79-1.24-3.63-2.48-5.35-1.23-1.73-2.62-3.23-3.78-4.68-1.18-1.45-2.12-2.86-2.74-4.14-.62-1.28-.91-2.41-1.02-3.2-.1-.79-.06-1.23-.03-1.23,.1-.02,.07,1.79,1.38,4.26,.64,1.23,1.6,2.59,2.78,4,1.18,1.42,2.58,2.92,3.84,4.68,1.27,1.75,2.16,3.69,2.53,5.54,.38,1.85,.35,3.58,.13,4.98-.22,1.41-.61,2.5-.93,3.22-.15,.36-.3,.63-.41,.81-.1,.18-.17,.27-.18,.26Z"></path><g><path class="cls-4" d="M282.25,310c-.13,.07-2.34-3.96-4.94-8.99-2.6-5.03-4.6-9.16-4.48-9.23,.13-.07,2.34,3.96,4.94,8.99,2.6,5.03,4.6,9.16,4.48,9.23Z"></path><path class="cls-4" d="M315.03,273.51c-.13-.06,1.24-3.41,3.05-7.49,1.82-4.08,3.4-7.34,3.53-7.28,.13,.06-1.24,3.41-3.05,7.49-1.82,4.08-3.4,7.34-3.53,7.28Z"></path><path class="cls-4" d="M347.13,297.19c-.11,.09-2.17-2.21-4.59-5.14-2.43-2.93-4.3-5.38-4.19-5.47,.11-.09,2.17,2.21,4.59,5.14,2.43,2.93,4.3,5.38,4.19,5.47Z"></path><path class="cls-4" d="M339.74,329.76c-.12-.08,1.43-2.42,3.46-5.22,2.03-2.8,3.77-5,3.88-4.91,.12,.08-1.43,2.42-3.46,5.22-2.03,2.8-3.77,5-3.88,4.91Z"></path><path class="cls-4" d="M329.8,375.77c-.06,.03-.52-.73-1.17-2.01-.66-1.28-1.51-3.07-2.36-5.08-.86-2.02-1.55-3.87-2.02-5.23-.46-1.36-.7-2.22-.63-2.24,.07-.02,.43,.79,.98,2.11,.63,1.5,1.35,3.24,2.15,5.16,.82,1.91,1.57,3.63,2.22,5.13,.57,1.31,.91,2.13,.84,2.17Z"></path><path class="cls-4" d="M358.04,356.21c-.03,.14-2.75-.27-6.07-.91-3.33-.64-6-1.28-5.97-1.42,.03-.14,2.75,.27,6.07,.91,3.33,.64,6,1.28,5.97,1.42Z"></path><path class="cls-4" d="M379.95,313.22c-.11-.1,2.49-3.06,5.79-6.63,3.3-3.56,6.07-6.37,6.17-6.27,.11,.1-2.49,3.06-5.79,6.63-3.3,3.56-6.07,6.37-6.17,6.27Z"></path><path class="cls-4" d="M401.98,370.55c-.11,.09-3.34-3.65-7.22-8.36-3.88-4.71-6.93-8.6-6.82-8.69,.11-.09,3.34,3.65,7.22,8.36,3.88,4.71,6.93,8.6,6.82,8.69Z"></path><path class="cls-4" d="M265.2,346.12c.07,.14-2.88,1.64-6.1,4.11-3.23,2.45-5.46,4.91-5.58,4.8-.05-.04,.44-.71,1.36-1.7,.91-.98,2.27-2.26,3.9-3.51,1.63-1.24,3.23-2.21,4.42-2.84,1.19-.62,1.97-.92,2-.86Z"></path><path class="cls-4" d="M273.44,324.02c.12,.08-.93,1.87-2.35,4-1.42,2.13-2.66,3.79-2.78,3.71-.12-.08,.93-1.87,2.35-4,1.42-2.13,2.66-3.79,2.78-3.71Z"></path><path class="cls-4" d="M292,345.72c-.11,.07-1.16-1.68-1.7-4.11-.56-2.42-.37-4.45-.24-4.44,.16,0,.21,1.97,.75,4.32,.53,2.35,1.33,4.16,1.19,4.22Z"></path><path class="cls-4" d="M294.75,276.8c.02,.14-1.7,.51-3.85,.81-2.15,.31-3.91,.44-3.93,.3-.02-.14,1.7-.51,3.85-.81,2.15-.31,3.91-.44,3.93-.3Z"></path><path class="cls-4" d="M308.69,252.07c.07,.13-1.44,1.1-3.37,2.17-1.93,1.07-3.56,1.84-3.62,1.71-.07-.13,1.44-1.1,3.37-2.17,1.93-1.07,3.55-1.84,3.62-1.71Z"></path><path class="cls-4" d="M347.9,262.52c-.11,.09-1.84-1.99-3.86-4.64-2.02-2.65-3.56-4.86-3.44-4.95,.11-.09,1.84,1.99,3.86,4.64,2.02,2.65,3.56,4.86,3.44,4.95Z"></path><path class="cls-4" d="M397.67,287.38c-.1,.09-1.92-1.78-3.6-4.5-1.7-2.72-2.57-5.17-2.45-5.22,.14-.06,1.22,2.27,2.89,4.95,1.66,2.68,3.28,4.68,3.16,4.78Z"></path><path class="cls-4" d="M416.67,293.64c.13,.06-.79,2.38-2.06,5.17-1.27,2.8-2.4,5.02-2.54,4.96-.13-.06,.79-2.38,2.06-5.17,1.27-2.8,2.4-5.02,2.54-4.96Z"></path><path class="cls-4" d="M419.33,267.71c-.11,.09-2.37-2.44-5.05-5.66-2.68-3.22-4.76-5.91-4.65-6,.11-.09,2.37,2.44,5.05,5.66,2.68,3.22,4.76,5.91,4.65,6Z"></path><path class="cls-4" d="M390.31,246.65c-.14,0-.35-2.16-.45-4.85-.11-2.68-.07-4.86,.07-4.87,.14,0,.35,2.16,.45,4.85,.11,2.68,.07,4.86-.07,4.87Z"></path><path class="cls-4" d="M413.97,245.34c.02,.14-2.75,.63-6.17,1.09-3.43,.46-6.22,.71-6.24,.57-.02-.14,2.74-.63,6.17-1.09,3.43-.46,6.22-.71,6.24-.57Z"></path><path class="cls-4" d="M451.23,272.71c-.13,.06-1.79-3.11-3.72-7.08-1.92-3.97-3.38-7.25-3.25-7.31,.13-.06,1.79,3.11,3.72,7.08,1.92,3.97,3.38,7.25,3.25,7.31Z"></path><path class="cls-4" d="M444.95,296.36c-.14-.03,.25-2.58,.87-5.69,.62-3.12,1.24-5.62,1.38-5.59,.14,.03-.25,2.58-.87,5.69-.62,3.11-1.24,5.62-1.38,5.59Z"></path><path class="cls-4" d="M462.24,315c-.14,.05-1.46-3.39-2.97-7.68-1.5-4.29-2.61-7.81-2.47-7.86,.14-.05,1.46,3.39,2.97,7.68,1.5,4.29,2.61,7.81,2.47,7.86Z"></path><path class="cls-4" d="M459.83,325.91c-.03,.13-2.42-.37-5.05-1.81-2.64-1.42-4.37-3.15-4.27-3.24,.1-.12,1.94,1.4,4.52,2.79,2.57,1.4,4.85,2.11,4.8,2.26Z"></path><path class="cls-4" d="M481.97,350.77c-.13,.06-.93-1.46-1.79-3.39-.86-1.93-1.45-3.54-1.32-3.6,.13-.06,.93,1.46,1.79,3.39,.86,1.93,1.45,3.54,1.32,3.6Z"></path><path class="cls-4" d="M351.21,385.45c-.14,.02-.49-1.97-.78-4.43-.29-2.46-.4-4.47-.26-4.49,.14-.02,.49,1.97,.78,4.43,.29,2.46,.4,4.47,.26,4.49Z"></path><path class="cls-4" d="M419.14,383.73c-.14-.03,.15-1.97,.65-4.33,.5-2.36,1.02-4.25,1.16-4.22,.14,.03-.15,1.97-.65,4.33-.5,2.36-1.02,4.25-1.16,4.22Z"></path></g></g></g><g id="Speech_Bubble" data-name="Speech Bubble"><g><g><path class="cls-5" d="M432.16,185.44l8.78-15.48c-3.89-6.31-6.13-13.73-6.13-21.68,0-22.87,18.54-41.41,41.41-41.41s41.41,18.54,41.41,41.41-18.54,41.41-41.41,41.41c-9.55,0-18.34-3.24-25.34-8.67v.02s-18.72,4.41-18.72,4.41Z"></path><path class="cls-10" d="M432.16,185.44c.89-.2,6.82-1.56,18.76-4.29l.19-.04-.12-.16v-.02s-.19,.18-.19,.18c2.36,1.83,5.19,3.63,8.52,5.14,3.33,1.48,7.15,2.68,11.36,3.24,2.1,.27,4.3,.44,6.56,.33,1.13-.06,2.28-.09,3.44-.19,1.15-.17,2.32-.35,3.5-.53,4.69-.93,9.48-2.71,13.96-5.48,4.47-2.77,8.61-6.52,11.93-11.13,3.31-4.61,5.82-10.07,7-16,1.16-5.93,1.07-12.28-.49-18.43-1.57-6.13-4.5-12.11-8.88-17.03l-1.69-1.86c-.56-.63-1.22-1.14-1.82-1.72-.63-.54-1.2-1.16-1.88-1.64l-1.99-1.49c-.64-.52-1.35-.94-2.06-1.36-.7-.43-1.4-.85-2.1-1.28-.74-.36-1.47-.71-2.2-1.07-.74-.34-1.45-.74-2.22-.99-6.02-2.39-12.43-3.3-18.57-2.85-6.14,.44-12.01,2.2-17.04,5.04-5.05,2.81-9.31,6.57-12.6,10.76-3.3,4.2-5.62,8.82-7.06,13.43-1.43,4.63-1.82,9.22-1.8,13.47,.12,4.26,.9,8.19,2.03,11.63,1.13,3.45,2.62,6.42,4.15,8.91v-.12c-5.54,9.93-8.25,14.78-8.68,15.54,.44-.76,3.21-5.57,8.89-15.42l.04-.06-.04-.06c-1.51-2.49-2.97-5.45-4.08-8.88-1.1-3.43-1.86-7.32-1.96-11.55,0-4.22,.4-8.76,1.83-13.34,1.44-4.56,3.75-9.13,7.02-13.28,3.26-4.14,7.48-7.85,12.48-10.62,4.98-2.8,10.79-4.53,16.85-4.96,6.06-.43,12.4,.47,18.34,2.83,.76,.24,1.46,.64,2.19,.98,.72,.35,1.45,.7,2.17,1.06,.69,.42,1.38,.84,2.07,1.26,.7,.42,1.4,.83,2.03,1.35l1.96,1.47c.67,.47,1.23,1.08,1.85,1.62,.59,.57,1.25,1.08,1.8,1.7l1.67,1.84c4.33,4.86,7.22,10.77,8.77,16.82,1.54,6.07,1.64,12.35,.5,18.21-1.16,5.86-3.63,11.27-6.9,15.82-3.27,4.57-7.36,8.29-11.78,11.03-4.42,2.76-9.16,4.53-13.8,5.46-1.17,.18-2.33,.36-3.46,.53-1.15,.1-2.28,.13-3.4,.2-2.24,.12-4.42-.05-6.5-.31-4.18-.54-7.97-1.72-11.28-3.17-3.31-1.48-6.13-3.25-8.49-5.05l-.77-.59,.59,.77v.02s.09-.2,.09-.2c-11.9,2.89-17.82,4.32-18.7,4.54Z"></path></g><g><path class="cls-10" d="M487.4,146.55c0,2.23,1.81,4.05,4.05,4.05s4.05-1.81,4.05-4.05-1.81-4.05-4.05-4.05-4.05,1.81-4.05,4.05Z"></path><path class="cls-10" d="M471.21,146.55c0,2.23,1.81,4.05,4.05,4.05s4.05-1.81,4.05-4.05-1.81-4.05-4.05-4.05-4.05,1.81-4.05,4.05Z"></path><path class="cls-10" d="M455.06,144.53c-1.12,1.94-.45,4.41,1.48,5.53,1.94,1.12,4.41,.45,5.53-1.48,1.12-1.94,.45-4.41-1.48-5.53-1.94-1.12-4.41-.45-5.53,1.48Z"></path></g></g></g></svg> 