<?xml version="1.0" encoding="UTF-8"?> <svg xmlns="http://www.w3.org/2000/svg" xmlns:xlink="http://www.w3.org/1999/xlink" id="Layer_1" data-name="Layer 1" viewBox="0 0 1500 1117.34"><defs><style> .cls-1 { fill: rgba(255, 255, 255, 0); } .cls-2 { fill: url(#linear-gradient); } .cls-3 { fill: #fdfdff; opacity: .02; } .cls-3, .cls-4, .cls-5, .cls-6, .cls-7, .cls-8, .cls-9, .cls-10, .cls-11, .cls-12, .cls-13, .cls-14, .cls-15, .cls-16, .cls-17, .cls-18, .cls-19, .cls-20, .cls-21, .cls-22, .cls-23, .cls-24, .cls-25, .cls-26, .cls-27, .cls-28, .cls-29, .cls-30, .cls-31, .cls-32, .cls-33, .cls-34, .cls-35, .cls-36, .cls-37, .cls-38, .cls-39, .cls-40, .cls-41, .cls-42, .cls-43, .cls-44 { isolation: isolate; } .cls-45 { fill: #ffdfd6; } .cls-46 { fill: #ffdfcc; } .cls-47 { fill: #fff; } .cls-48, .cls-6 { fill: #f0f1fe; } .cls-49 { fill: #fafaff; } .cls-50 { fill: #ffbba1; } .cls-51 { fill: #ffcebd; } .cls-52 { fill: #fe5e31; } .cls-53 { fill: #ff5f00; } .cls-54, .cls-14 { fill: #c1c6fb; } .cls-55 { fill: #b2b8fa; } .cls-56 { fill: #d1d4fc; } .cls-57 { fill: #e0e3fd; } .cls-58 { fill: #19103a; } .cls-59 { fill: #191c3c; } .cls-60 { fill: #536dfe; } .cls-61 { fill: #5361f0; } .cls-62 { fill: #4d5068; } .cls-4 { fill: #e5e7fd; opacity: .34; } .cls-5 { fill: #e7e8fd; opacity: .32; } .cls-6 { opacity: .2; } .cls-7 { fill: #30334f; opacity: .3; } .cls-8 { fill: #e8eafe; opacity: .29; } .cls-9 { fill: #eeeffe; opacity: .22; } .cls-10 { fill: #f4f5fe; } .cls-10, .cls-63 { opacity: .15; } .cls-11 { fill: #f2f3fe; opacity: .17; } .cls-12 { fill: #c9cdfb; opacity: .71; } .cls-13 { fill: #c7cbfb; opacity: .73; } .cls-14 { opacity: .8; } .cls-15 { fill: #babffa; opacity: .9; } .cls-16 { fill: #bbc1fb; opacity: .88; } .cls-17 { fill: #d9dcfd; opacity: .49; } .cls-18 { fill: #d4d7fc; opacity: .56; } .cls-19 { fill: #c3c8fb; opacity: .78; } .cls-20 { fill: #c5c9fb; opacity: .76; } .cls-21 { fill: #bdc2fb; opacity: .85; } .cls-22 { fill: #bfc4fb; opacity: .83; } .cls-23 { fill: #ccd0fc; opacity: .66; } .cls-24 { fill: #ced2fc; opacity: .63; } .cls-25 { fill: #e3e5fd; opacity: .37; } .cls-26 { fill: #d6d9fc; opacity: .54; } .cls-27 { fill: #d8dbfc; opacity: .51; } .cls-28 { fill: #d0d4fc; opacity: .61; } .cls-29 { fill: #d2d5fc; opacity: .59; } .cls-30 { fill: #cacffc; opacity: .68; } .cls-31 { fill: #dde0fd; opacity: .44; } .cls-32 { fill: #eceefe; opacity: .24; } .cls-33 { fill: #eaecfe; opacity: .27; } .cls-34 { fill: #e1e3fd; opacity: .39; } .cls-35 { fill: #dfe2fd; opacity: .41; } .cls-36 { fill: #dbdefd; opacity: .46; } .cls-37 { fill: #b4bafa; opacity: .98; } .cls-38 { fill: #b8bdfa; opacity: .93; } .cls-39 { fill: #b6bbfa; opacity: .95; } .cls-64 { fill: url(#linear-gradient-2); } .cls-40 { fill: #f9faff; opacity: .07; } .cls-41 { fill: #fbfcff; opacity: .05; } .cls-42 { fill: #f6f6fe; opacity: .12; } .cls-43 { fill: #f7f8ff; } .cls-43, .cls-44 { opacity: .1; } .cls-44 { fill: #a7a9ac; } </style><linearGradient id="linear-gradient" x1="402.86" y1="884.21" x2="1255.49" y2="884.21" gradientTransform="translate(0 1108.39) scale(1 -1)" gradientUnits="userSpaceOnUse"><stop offset="0" stop-color="#e040fb"></stop><stop offset="0" stop-color="#e040f9"></stop><stop offset=".37" stop-color="#ec4ca4"></stop><stop offset=".67" stop-color="#f65666"></stop><stop offset=".89" stop-color="#fb5b3f"></stop><stop offset="1" stop-color="#fe5e31"></stop></linearGradient><linearGradient id="linear-gradient-2" x1="177.99" y1="565.72" x2="270.07" y2="565.72" gradientTransform="translate(0 1108.39) scale(1 -1)" gradientUnits="userSpaceOnUse"><stop offset="0" stop-color="#fec55e"></stop><stop offset="1" stop-color="#ff5722"></stop></linearGradient></defs><g id="Graphics"><g><path class="cls-56" d="M389.07,467.34c-67.8,41.98-46.71,140.17-45.8,208,1.01,74.8,2.03,149.63,3.01,224.43,.07,4.5-6.93,4.5-7,0-1.22-89.4-2.4-178.84-3.62-268.24-.84-63.14-11.66-132.19,49.85-170.25,3.85-2.37,7.37,3.68,3.55,6.05h0Z"></path><path class="cls-56" d="M351.41,501.51c3.08-6.52,6.32-13.05,10.95-18.59,7.06-8.45,16.87-13.99,26.47-19.37l1.42,.74c5.54,14.43,8.42,30.25,5.54,45.43s-12.17,29.57-26.06,36.27c-10.21,4.9-22.27,5.54-31.81,11.69-2.7-19.37,5.14-38.53,13.52-56.18h-.03Z"></path><path class="cls-56" d="M280.4,382.4c67.33,26.7,52.86,128.85,55.57,186.44,4.6,97.61,7.1,195.23,6.46,292.98,0,4.5-7.03,4.53-7,0,.54-81.26-.81-162.51-4.19-243.73-1.55-36.71-3.38-73.38-5.1-110.05-2.03-42.59-.07-100.05-47.56-118.87-4.12-1.66-2.33-8.42,1.86-6.76h-.03Z"></path><g><path class="cls-56" d="M326.5,499.89c.14-.34,.2-.68,.34-1.01,1.01,1.62,1.99,3.31,2.74,5.14l-3.04-4.12h-.03Z"></path><path class="cls-56" d="M276.58,388.35c.41-.95,.88-1.93,1.79-2.4,1.01-.54,2.26-.24,3.35,.07,21.9,6.49,39.21,25.08,46.68,46.68,7.37,21.26,5.88,44.95-1.59,66.18-8.38-13.22-25.38-19.81-37.28-30.79-21.12-19.47-24.37-53.37-12.98-79.73h.03Z"></path></g><path class="cls-55" d="M376.02,978.97h-76.69c-10.85,0-19.67-8.82-19.67-19.67v-97.38h116.07v97.38c0,10.85-8.82,19.67-19.67,19.67h-.03Z"></path><path class="cls-56" d="M334.61,722.9c1.05-27.04,2.3-59.08-17.81-80.27-15.68-16.56-55.91-27.95-78.45-28.53-4.5-.1-4.53-7.13,0-7,17.2,.44,35.12,7.27,51.34,12.78,11.93,4.06,23.19,8.52,32.08,17.85,21.6,22.61,20.99,56.21,19.87,85.24-.17,4.5-7.17,4.53-7,0h0l-.03-.07Z"></path><path class="cls-56" d="M230.81,604.27c.41-.47,1.12-.51,1.72-.47,8.45,.07,16.93,.14,25.38,.2,7.33,.07,14.74,.14,21.83,1.99,14.3,3.72,25.89,14.3,34.95,25.99l2.64,.41c-13.22,4.22-26.16,9.73-39.95,11.19-13.79,1.42-29.07-2.06-37.72-12.91-5.51-6.9-7.64-15.85-9.09-24.57-.1-.61-.17-1.35,.24-1.83h0Z"></path></g><g><path class="cls-57" d="M1364.26,717.93c-.54-8.15-1.15-16.56-4.83-23.86-25.76,31.13-35.39,74.93-25.11,114.01l7.6,7.06c12.54-11.8,19.3-28.7,21.94-45.7,2.64-17,1.52-34.34,.41-51.51h0Z"></path><path class="cls-57" d="M1433.45,762.18c-.54-.61-1.42-.84-2.23-1.05-16.87-3.79-35.35,.51-48.84,11.32-13.49,10.82-21.7,27.92-21.67,45.19l5.1,6.19c10.78,2.94,22.07-2.57,31.03-9.26,16.36-12.27,29.2-29.17,36.57-48.23,.54-1.35,.98-3.08,0-4.16h.03Z"></path><path class="cls-57" d="M1265.94,761.23c-11.49-9.33-24.84-18.42-39.58-17.54-1.55,.1-3.35,.47-4.09,1.86-1.62,3.04,3.55,5.37,4.56,8.65,.57,1.93-.37,3.95-.78,5.91-.74,3.62,.41,7.33,1.79,10.75,13.49,33.87,51.71,55.97,87.81,50.8l4.5-7.06c-16.29-19.47-34.48-37.38-54.18-53.4l-.03,.03Z"></path><path class="cls-57" d="M1308.22,816.77c25.76,24.44,29.03,60.7,24.61,94.17-.98,7.3,10.51,7.2,11.46,0,4.83-36.44-.14-75.85-27.95-102.28-5.34-5.07-13.45,3.01-8.11,8.11h0Z"></path><path class="cls-57" d="M1333.37,805.17c5.44,32.18-1.49,64.69,1.93,97.01,.78,7.27,12.24,7.33,11.46,0-3.55-33.39,3.28-66.79-2.37-100.05-1.22-7.27-12.27-4.19-11.05,3.04h.03Z"></path><path class="cls-57" d="M1366.93,802.87c-9.46,14.2-19,29.64-23.42,46.27-4.8,18.05-3.41,38.33-4.26,56.85-.34,7.37,11.12,7.37,11.46,0,.78-17.47-.47-36.84,3.85-53.81,3.95-15.48,13.45-30.32,22.24-43.53,4.09-6.15-5.81-11.9-9.9-5.78h.03Z"></path><path class="cls-55" d="M1379.84,978.16h-63.95c-2.64,0-4.93-1.76-5.61-4.29l-21.77-82.17c-.98-3.68,1.79-7.27,5.61-7.27h107.48c3.79,0,6.56,3.58,5.61,7.27l-21.77,82.17c-.68,2.53-2.97,4.29-5.61,4.29h0Z"></path><path class="cls-54" d="M1356.52,706.44c-8.52,32.11-8.59,65.57-16.33,97.82-.24,1.05,1.35,1.49,1.59,.44,7.74-32.25,7.84-65.71,16.33-97.82,.27-1.05-1.32-1.49-1.59-.44h0Z"></path><path class="cls-54" d="M1367.03,813.93c13.52-21.16,33.06-36.64,56.75-44.92,1.01-.34,.57-1.96-.44-1.59-24.1,8.42-44.01,24.17-57.73,45.66-.57,.91,.84,1.72,1.42,.84h0Z"></path><path class="cls-54" d="M1230.18,753.93c5.17,12.95,14.23,22,25.55,29.91,16.33,11.42,37.35,17.07,52.29,29.91,.95,.81,2.33-.57,1.39-1.39-10.41-8.92-23.69-12.61-35.46-19.33-16.93-9.67-34.41-20.82-41.88-39.65-.44-1.15-2.33-.64-1.86,.51h0l-.03,.03Z"></path></g><g><path class="cls-49" d="M426.96,169.97h804.44c13.32,0,24.1,10.82,24.1,24.1V981.07H402.86V194.07c0-13.32,10.82-24.1,24.1-24.1Z"></path><path class="cls-2" d="M1255.49,278.43v-78.96c0-16.33-13.22-29.54-29.54-29.54H432.4c-16.33,0-29.54,13.22-29.54,29.54v78.96h852.64Z"></path><path class="cls-47" d="M476.74,224.19c0,5.14-4.16,9.29-9.29,9.29s-9.29-4.16-9.29-9.29,4.16-9.29,9.29-9.29,9.29,4.16,9.29,9.29Z"></path><path class="cls-47" d="M518.49,224.19c0,5.14-4.16,9.29-9.29,9.29s-9.29-4.16-9.29-9.29,4.16-9.29,9.29-9.29,9.29,4.16,9.29,9.29Z"></path><path class="cls-47" d="M560.23,224.19c0,5.14-4.16,9.29-9.29,9.29s-9.29-4.16-9.29-9.29,4.16-9.29,9.29-9.29,9.29,4.16,9.29,9.29Z"></path><circle class="cls-57" cx="446.96" cy="334.17" r="7.47"></circle><circle class="cls-57" cx="446.96" cy="378.11" r="7.47"></circle><circle class="cls-57" cx="446.96" cy="422.02" r="7.47"></circle><circle class="cls-57" cx="446.96" cy="465.96" r="7.47"></circle><circle class="cls-57" cx="446.96" cy="509.9" r="7.47"></circle><circle class="cls-57" cx="446.96" cy="553.8" r="7.47"></circle></g><g><path class="cls-1" d="M402.86,795.37h263.64c9.19,0,16.63-7.44,16.63-16.63v-148.75c0-9.19-7.44-16.63-16.63-16.63H402.86v182.01Z"></path><path class="cls-3" d="M402.86,794.53h262.76c9.16,0,16.56-7.4,16.56-16.56v-148.04c0-9.16-7.4-16.56-16.56-16.56H402.86v181.17Z"></path><path class="cls-41" d="M402.86,793.71h261.92c9.13,0,16.53-7.4,16.53-16.53v-147.3c0-9.13-7.4-16.53-16.53-16.53H402.86v180.36Z"></path><path class="cls-40" d="M402.86,792.9h261.04c9.09,0,16.46-7.37,16.46-16.46v-146.59c0-9.09-7.37-16.46-16.46-16.46H402.86v179.51Z"></path><path class="cls-43" d="M402.86,792.06h260.19c9.06,0,16.39-7.33,16.39-16.39v-145.88c0-9.06-7.33-16.39-16.39-16.39H402.86v178.67Z"></path><path class="cls-42" d="M402.86,791.25h259.35c9.02,0,16.36-7.33,16.36-16.36v-145.17c0-9.02-7.33-16.36-16.36-16.36H402.86v177.89Z"></path><path class="cls-10" d="M402.86,790.44h258.47c8.99,0,16.29-7.3,16.29-16.29v-144.46c0-8.99-7.3-16.29-16.29-16.29H402.86v177.04Z"></path><path class="cls-11" d="M402.86,789.62h257.62c8.96,0,16.26-7.27,16.26-16.26v-143.75c0-8.96-7.27-16.26-16.26-16.26H402.86v176.27Z"></path><path class="cls-6" d="M402.86,788.78h256.78c8.96,0,16.19-7.23,16.19-16.19v-143.04c0-8.96-7.23-16.19-16.19-16.19H402.86v175.42h0Z"></path><path class="cls-9" d="M402.86,787.97h255.9c8.92,0,16.12-7.23,16.12-16.12v-142.33c0-8.92-7.23-16.12-16.12-16.12h-255.9v174.58Z"></path><path class="cls-32" d="M402.86,787.16h255.05c8.89,0,16.09-7.2,16.09-16.09v-141.62c0-8.89-7.2-16.09-16.09-16.09h-255.05v173.8Z"></path><path class="cls-33" d="M402.86,786.31h254.21c8.86,0,16.02-7.17,16.02-16.02v-140.91c0-8.86-7.17-16.02-16.02-16.02h-254.21v172.95Z"></path><path class="cls-8" d="M402.86,785.5h253.33c8.82,0,15.99-7.17,15.99-15.99v-140.2c0-8.82-7.17-15.99-15.99-15.99h-253.33v172.18Z"></path><path class="cls-5" d="M402.86,784.69h252.49c8.79,0,15.92-7.13,15.92-15.92v-139.46c0-8.79-7.13-15.92-15.92-15.92h-252.49v171.3Z"></path><path class="cls-4" d="M402.86,783.88h251.64c8.75,0,15.85-7.1,15.85-15.85v-138.75c0-8.75-7.1-15.85-15.85-15.85h-251.64v170.45Z"></path><path class="cls-25" d="M402.86,783.03h250.76c8.72,0,15.82-7.06,15.82-15.82v-138.04c0-8.72-7.06-15.82-15.82-15.82h-250.76v169.68h0Z"></path><path class="cls-34" d="M402.86,782.22h249.92c8.69,0,15.75-7.06,15.75-15.75v-137.33c0-8.69-7.06-15.75-15.75-15.75h-249.92v168.83Z"></path><path class="cls-35" d="M402.86,781.41h249.07c8.69,0,15.72-7.03,15.72-15.72v-136.62c0-8.69-7.03-15.72-15.72-15.72h-249.07v168.05Z"></path><path class="cls-31" d="M402.86,780.57h248.19c8.65,0,15.65-7,15.65-15.65v-135.91c0-8.65-7-15.65-15.65-15.65h-248.19v167.21Z"></path><path class="cls-36" d="M402.86,779.75h247.35c8.62,0,15.58-7,15.58-15.58v-135.2c0-8.62-7-15.58-15.58-15.58h-247.35v166.36Z"></path><path class="cls-17" d="M402.86,778.94h246.5c8.59,0,15.55-6.96,15.55-15.55v-134.49c0-8.59-6.96-15.55-15.55-15.55h-246.5v165.59h0Z"></path><path class="cls-27" d="M402.86,778.13h245.62c8.55,0,15.48-6.93,15.48-15.48v-133.78c0-8.55-6.93-15.48-15.48-15.48h-245.62v164.74Z"></path><path class="cls-26" d="M402.86,777.29h244.78c8.52,0,15.45-6.9,15.45-15.45v-133.07c0-8.52-6.9-15.45-15.45-15.45h-244.78v163.96Z"></path><path class="cls-18" d="M402.86,776.48h243.9c8.48,0,15.38-6.9,15.38-15.38v-132.36c0-8.48-6.9-15.38-15.38-15.38h-243.9v163.12h0Z"></path><path class="cls-29" d="M402.86,775.67h243.06c8.45,0,15.31-6.86,15.31-15.31v-131.65c0-8.45-6.86-15.31-15.31-15.31h-243.06v162.27Z"></path><path class="cls-28" d="M402.86,774.82h242.21c8.45,0,15.28-6.83,15.28-15.28v-130.91c0-8.45-6.83-15.28-15.28-15.28h-242.21v161.46Z"></path><path class="cls-24" d="M402.86,774.01h241.33c8.42,0,15.21-6.83,15.21-15.21v-130.2c0-8.42-6.83-15.21-15.21-15.21h-241.33v160.62Z"></path><path class="cls-23" d="M402.86,773.2h240.49c8.38,0,15.18-6.79,15.18-15.18v-129.49c0-8.38-6.79-15.18-15.18-15.18h-240.49v159.84h0Z"></path><path class="cls-30" d="M402.86,772.39h239.64c8.35,0,15.11-6.76,15.11-15.11v-128.78c0-8.35-6.76-15.11-15.11-15.11h-239.64v158.99Z"></path><path class="cls-12" d="M402.86,771.54h238.76c8.31,0,15.04-6.73,15.04-15.04v-128.07c0-8.31-6.73-15.04-15.04-15.04h-238.76v158.15Z"></path><path class="cls-13" d="M402.86,770.73h237.92c8.28,0,15.01-6.73,15.01-15.01v-127.36c0-8.28-6.73-15.01-15.01-15.01h-237.92v157.37h0Z"></path><path class="cls-20" d="M402.86,769.92h237.07c8.25,0,14.94-6.69,14.94-14.94v-126.65c0-8.25-6.69-14.94-14.94-14.94h-237.07v156.53Z"></path><path class="cls-19" d="M402.86,769.07h236.19c8.21,0,14.91-6.66,14.91-14.91v-125.94c0-8.21-6.66-14.91-14.91-14.91h-236.19v155.75Z"></path><path class="cls-14" d="M402.86,768.26h235.35c8.18,0,14.84-6.66,14.84-14.84v-125.23c0-8.18-6.66-14.84-14.84-14.84h-235.35v154.91Z"></path><path class="cls-22" d="M402.86,767.45h234.5c8.18,0,14.77-6.62,14.77-14.77v-124.52c0-8.18-6.62-14.77-14.77-14.77h-234.5v154.06Z"></path><path class="cls-21" d="M402.86,766.64h233.63c8.15,0,14.74-6.59,14.74-14.74v-123.81c0-8.15-6.59-14.74-14.74-14.74h-233.63v153.28Z"></path><path class="cls-16" d="M402.86,765.8h232.78c8.11,0,14.67-6.56,14.67-14.67v-123.1c0-8.11-6.56-14.67-14.67-14.67h-232.78v152.44h0Z"></path><path class="cls-15" d="M402.86,764.98h231.94c8.08,0,14.64-6.56,14.64-14.64v-122.36c0-8.08-6.56-14.64-14.64-14.64h-231.94v151.63Z"></path><path class="cls-38" d="M402.86,764.17h231.06c8.04,0,14.57-6.52,14.57-14.57v-121.65c0-8.04-6.52-14.57-14.57-14.57h-231.06v150.78Z"></path><path class="cls-39" d="M402.86,763.36h230.21c8.01,0,14.5-6.49,14.5-14.5v-120.94c0-8.01-6.49-14.5-14.5-14.5h-230.21v149.94Z"></path><path class="cls-37" d="M402.86,762.52h229.37c7.98,0,14.47-6.49,14.47-14.47v-120.23c0-7.98-6.49-14.47-14.47-14.47h-229.37v149.16h0Z"></path><path class="cls-55" d="M402.86,761.71h228.49c7.94,0,14.4-6.46,14.4-14.4v-119.52c0-7.94-6.46-14.4-14.4-14.4h-228.49v148.31Z"></path></g><g><rect class="cls-47" x="355.06" y="593.31" width="304.57" height="179.04" rx="11.69" ry="11.69"></rect><rect class="cls-48" x="384.91" y="613.36" width="122.46" height="10.92"></rect><rect class="cls-60" x="384.91" y="636.81" width="61.25" height="10.92"></rect><path class="cls-57" d="M371.39,747.21c10-13.59,20.79-31.03,32.25-43.4,4.06-4.36,8.62-8.89,14.5-9.77,8.31-1.25,15.62,5.07,21.73,10.82,7.33,6.86,15.38,13.79,25.25,15.62,12.13,2.26,24.2-3.65,35.02-9.6,9.43-5.17,19.03-10.71,25.76-19.13,6.46-8.11,10.07-18.69,18.42-24.84,1.49-1.08,3.11-2.03,4.93-2.23,3.14-.37,6.15,1.52,8.35,3.79,5.78,5.95,7.84,14.4,10.85,22.14,2.97,7.71,8.04,15.75,16.12,17.58,10.51,2.37,20.04-6.86,25.38-16.22s9.53-20.31,18.86-25.72c2.87-1.66,6.62-2.64,9.46-.91,3.14,1.89,3.79,6.12,4.12,9.77,1.39,15.18,2.77,30.39,4.19,45.56,.57,6.32,1.01,21.43-2.64,26.6H371.42l-.03-.03Z"></path></g><g><rect class="cls-47" x="473.19" y="808.11" width="636.39" height="152" rx="6.79" ry="6.79"></rect><rect class="cls-57" x="499.9" y="839.65" width="149.94" height="93.49"></rect><polygon class="cls-55" points="523.08 874.06 500 907.35 499.9 933.17 559.28 933.17 523.08 874.06"></polygon><polygon class="cls-47" points="526.73 891.4 528.79 894.84 532.44 889.54 523.08 874.06 512.44 889.4 515.71 894.84 518.25 891.19 522.27 897.85 526.73 891.4"></polygon><polygon class="cls-55" points="551.24 920.3 568.78 894.17 592.91 933.17 559.21 933.17 551.24 920.3"></polygon><circle class="cls-56" cx="605.55" cy="871.49" r="16.46"></circle><polygon class="cls-47" points="572.63 911.51 574.69 914.92 578.35 909.65 568.78 894.17 558.34 909.51 561.65 914.92 564.15 911.3 568.17 917.96 572.63 911.51"></polygon><rect class="cls-48" x="658.38" y="841.27" width="417.8" height="8.79"></rect><rect class="cls-48" x="658.38" y="862.73" width="417.8" height="8.79"></rect><rect class="cls-48" x="658.38" y="884.16" width="417.8" height="8.79"></rect><rect class="cls-46" x="658.38" y="905.63" width="158.86" height="8.79"></rect></g><path class="cls-52" d="M419.96,955.95h6.86c1.39,0,2.5-1.12,2.5-2.53v-8.72c0-1.39-1.15-2.5-2.53-2.5h-5.37c-.88,0-1.66-.57-1.96-1.39-.2-.51-.41-.98-.61-1.49-.37-.81-.24-1.76,.41-2.4l3.79-3.79c.98-.98,.98-2.57,0-3.55l-6.19-6.19c-.98-.98-2.57-.98-3.55,0l-3.82,3.82c-.61,.61-1.52,.78-2.3,.44-.54-.24-1.15-.47-1.66-.68-.81-.3-1.32-1.08-1.32-1.93v-5.41c0-1.39-1.12-2.5-2.5-2.5h-8.72c-1.39,0-2.5,1.12-2.5,2.5v5.37c0,.88-.57,1.66-1.42,1.96-.54,.2-1.05,.41-1.55,.64-.81,.37-1.76,.24-2.37-.37l-3.82-3.79c-.98-.98-2.57-.98-3.55,0l-6.15,6.19c-.98,.98-.98,2.57,0,3.55l3.82,3.82c.61,.61,.78,1.49,.44,2.3-.24,.54-.47,1.15-.68,1.66-.3,.81-1.08,1.32-1.93,1.32h-5.41c-1.39,0-2.5,1.15-2.5,2.53v8.72c0,1.39,1.15,2.5,2.53,2.5h5.37c.88,0,1.66,.54,1.96,1.39,.2,.51,.41,.98,.61,1.49,.37,.81,.24,1.76-.37,2.4l-3.79,3.79c-.98,.98-.98,2.57,0,3.55l6.19,6.15c.98,.98,2.57,.98,3.55,0l3.82-3.82c.61-.61,1.49-.78,2.3-.44,.54,.24,1.15,.47,1.66,.68,.81,.3,1.32,1.08,1.32,1.93v5.41c0,1.39,1.15,2.5,2.53,2.5h8.72c1.39,0,2.5-1.15,2.5-2.53v-5.37c0-.88,.57-1.66,1.39-1.96,.51-.2,.98-.41,1.49-.61,.81-.37,1.76-.24,2.37,.41l3.79,3.79c.98,.98,2.57,.98,3.55,0l6.19-6.19c.98-.98,.98-2.57,0-3.55l-3.82-3.82c-.61-.61-.78-1.49-.44-2.3,.54-1.32,1.12-2.87,1.15-2.94l.03-.03Zm-34.78-9.09c1.45-7.71,9.46-12.1,16.63-9.33,5.48,2.1,8.79,8.01,7.71,13.76-1.45,7.71-9.46,12.1-16.63,9.33-5.48-2.1-8.79-8.01-7.71-13.76Z"></path><g><rect class="cls-60" x="897.21" y="1014.97" width="58.47" height="58.47" rx="8.82" ry="8.82"></rect><g><path class="cls-47" d="M911.14,1045.93v.1l7.91,2.6v4.39l-12.67-5.17v-3.82l12.67-5.17v4.39l-7.91,2.67h0Z"></path><path class="cls-47" d="M925.17,1055.53h-4.9l7.13-22.68h4.9l-7.13,22.68Z"></path><path class="cls-47" d="M941.76,1046v-.1l-7.84-2.6v-4.39l12.61,5.17v3.82l-12.61,5.17v-4.39l7.84-2.67h0Z"></path></g></g><g><circle class="cls-57" cx="623.74" cy="430.12" r="36.98"></circle><polygon class="cls-47" points="618.84 445.14 605.99 432.29 613.33 424.92 618.84 430.43 634.15 415.15 641.48 422.49 618.84 445.14"></polygon></g><g><path class="cls-1" d="M1255.49,326.06h-465.97c-10.68,0-19.3,8.65-19.3,19.3v211.89c0,10.68,8.65,19.3,19.3,19.3h465.97v-250.49Z"></path><path class="cls-3" d="M1255.49,326.06h-464.65c-10.65,0-19.27,8.62-19.27,19.27v210.74c0,10.65,8.62,19.27,19.27,19.27h464.65v-249.27Z"></path><path class="cls-41" d="M1255.49,326.06h-463.33c-10.61,0-19.2,8.59-19.2,19.2v209.59c0,10.61,8.59,19.2,19.2,19.2h463.33v-247.99Z"></path><path class="cls-40" d="M1255.49,326.06h-462.01c-10.58,0-19.16,8.59-19.16,19.16v208.44c0,10.58,8.59,19.16,19.16,19.16h462.01v-246.77Z"></path><path class="cls-43" d="M1255.49,326.06h-460.69c-10.55,0-19.1,8.55-19.1,19.1v207.29c0,10.55,8.55,19.1,19.1,19.1h460.69v-245.49Z"></path><path class="cls-42" d="M1255.49,326.06h-459.37c-10.51,0-19.03,8.52-19.03,19.03v206.15c0,10.51,8.52,19.03,19.03,19.03h459.37v-244.2Z"></path><path class="cls-10" d="M1255.49,326.06h-458.06c-10.48,0-19,8.48-19,19v205c0,10.48,8.48,19,19,19h458.06v-242.99Z"></path><path class="cls-11" d="M1255.49,326.06h-456.74c-10.44,0-18.93,8.48-18.93,18.93v203.88c0,10.44,8.48,18.93,18.93,18.93h456.74v-241.74Z"></path><path class="cls-6" d="M1255.49,326.06h-455.42c-10.41,0-18.86,8.45-18.86,18.86v202.73c0,10.41,8.45,18.86,18.86,18.86h455.42v-240.45Z"></path><path class="cls-9" d="M1255.49,326.06h-454.1c-10.41,0-18.83,8.42-18.83,18.83v201.58c0,10.41,8.42,18.83,18.83,18.83h454.1v-239.24Z"></path><path class="cls-32" d="M1255.49,326.06h-452.78c-10.38,0-18.76,8.42-18.76,18.76v200.43c0,10.38,8.42,18.76,18.76,18.76h452.78v-237.95Z"></path><path class="cls-33" d="M1255.49,326.06h-451.47c-10.34,0-18.73,8.38-18.73,18.73v199.28c0,10.34,8.38,18.73,18.73,18.73h451.47v-236.73Z"></path><path class="cls-8" d="M1255.49,326.06h-450.15c-10.31,0-18.66,8.35-18.66,18.66v198.14c0,10.31,8.35,18.66,18.66,18.66h450.15v-235.45Z"></path><path class="cls-5" d="M1255.49,326.06h-448.83c-10.28,0-18.59,8.31-18.59,18.59v196.99c0,10.28,8.31,18.59,18.59,18.59h448.83v-234.17Z"></path><path class="cls-4" d="M1255.49,326.06h-447.54c-10.24,0-18.56,8.31-18.56,18.56v195.84c0,10.24,8.31,18.56,18.56,18.56h447.54v-232.95Z"></path><path class="cls-25" d="M1255.49,326.06h-446.23c-10.21,0-18.49,8.28-18.49,18.49v194.69c0,10.21,8.28,18.49,18.49,18.49h446.23v-231.66Z"></path><path class="cls-34" d="M1255.49,326.06h-444.91c-10.17,0-18.45,8.25-18.45,18.45v193.57c0,10.17,8.25,18.45,18.45,18.45h444.91v-230.48Z"></path><path class="cls-35" d="M1255.49,326.06h-443.59c-10.14,0-18.39,8.25-18.39,18.39v192.42c0,10.14,8.25,18.39,18.39,18.39h443.59v-229.2Z"></path><path class="cls-31" d="M1255.49,326.06h-442.27c-10.14,0-18.32,8.21-18.32,18.32v191.27c0,10.14,8.21,18.32,18.32,18.32h442.27v-227.91Z"></path><path class="cls-36" d="M1255.49,326.06h-440.95c-10.11,0-18.29,8.18-18.29,18.29v190.12c0,10.11,8.18,18.29,18.29,18.29h440.95v-226.7Z"></path><path class="cls-17" d="M1255.49,326.06h-439.64c-10.07,0-18.22,8.15-18.22,18.22v188.98c0,10.07,8.15,18.22,18.22,18.22h439.64v-225.41Z"></path><path class="cls-27" d="M1255.49,326.06h-438.32c-10.04,0-18.15,8.15-18.15,18.15v187.83c0,10.04,8.15,18.15,18.15,18.15h438.32v-224.13Z"></path><path class="cls-26" d="M1255.49,326.06h-437c-10,0-18.12,8.11-18.12,18.12v186.68c0,10,8.11,18.12,18.12,18.12h437v-222.91Z"></path><path class="cls-18" d="M1255.49,326.06h-435.68c-9.97,0-18.05,8.08-18.05,18.05v185.53c0,9.97,8.08,18.05,18.05,18.05h435.68v-221.63Z"></path><path class="cls-29" d="M1255.49,326.06h-434.36c-9.94,0-18.02,8.04-18.02,18.02v184.41c0,9.94,8.04,18.02,18.02,18.02h434.36v-220.44Z"></path><path class="cls-28" d="M1255.49,326.06h-433.04c-9.9,0-17.95,8.04-17.95,17.95v183.26c0,9.9,8.04,17.95,17.95,17.95h433.04v-219.16Z"></path><path class="cls-24" d="M1255.49,326.06h-431.73c-9.87,0-17.88,8.01-17.88,17.88v182.11c0,9.87,8.01,17.88,17.88,17.88h431.73v-217.87Z"></path><path class="cls-23" d="M1255.49,326.06h-430.41c-9.84,0-17.85,7.98-17.85,17.85v180.96c0,9.84,7.98,17.85,17.85,17.85h430.41v-216.66Z"></path><path class="cls-30" d="M1255.49,326.06h-429.09c-9.84,0-17.78,7.98-17.78,17.78v179.82c0,9.84,7.98,17.78,17.78,17.78h429.09v-215.37Z"></path><path class="cls-12" d="M1255.49,326.06h-427.81c-9.8,0-17.74,7.94-17.74,17.74v178.67c0,9.8,7.94,17.74,17.74,17.74h427.81v-214.16Z"></path><path class="cls-13" d="M1255.49,326.06h-426.49c-9.77,0-17.68,7.91-17.68,17.68v177.52c0,9.77,7.91,17.68,17.68,17.68h426.49v-212.87Z"></path><path class="cls-20" d="M1255.49,326.06h-425.17c-9.73,0-17.61,7.88-17.61,17.61v176.37c0,9.73,7.88,17.61,17.61,17.61h425.17v-211.59Z"></path><path class="cls-19" d="M1255.49,326.06h-423.85c-9.7,0-17.58,7.88-17.58,17.58v175.22c0,9.7,7.88,17.58,17.58,17.58h423.85v-210.37h0Z"></path><path class="cls-14" d="M1255.49,326.06h-422.53c-9.67,0-17.51,7.84-17.51,17.51v174.07c0,9.67,7.84,17.51,17.51,17.51h422.53v-209.09Z"></path><path class="cls-22" d="M1255.49,326.06h-421.21c-9.63,0-17.47,7.81-17.47,17.47v172.95c0,9.63,7.81,17.47,17.47,17.47h421.21v-207.9Z"></path><path class="cls-21" d="M1255.49,326.06h-419.9c-9.6,0-17.41,7.81-17.41,17.41v171.81c0,9.6,7.81,17.41,17.41,17.41h419.9v-206.62h0Z"></path><path class="cls-16" d="M1255.49,326.06h-418.58c-9.57,0-17.34,7.77-17.34,17.34v170.66c0,9.57,7.77,17.34,17.34,17.34h418.58v-205.33Z"></path><path class="cls-15" d="M1255.49,326.06h-417.26c-9.57,0-17.31,7.74-17.31,17.31v169.51c0,9.57,7.74,17.31,17.31,17.31h417.26v-204.12Z"></path><path class="cls-38" d="M1255.49,326.06h-415.94c-9.53,0-17.24,7.71-17.24,17.24v168.36c0,9.53,7.71,17.24,17.24,17.24h415.94v-202.83h0Z"></path><path class="cls-39" d="M1255.49,326.06h-414.62c-9.5,0-17.17,7.71-17.17,17.17v167.21c0,9.5,7.71,17.17,17.17,17.17h414.62v-201.55Z"></path><path class="cls-37" d="M1255.49,326.06h-413.31c-9.46,0-17.14,7.67-17.14,17.14v166.06c0,9.46,7.67,17.14,17.14,17.14h413.31v-200.33Z"></path><path class="cls-55" d="M1255.49,326.06h-411.99c-9.43,0-17.07,7.64-17.07,17.07v164.91c0,9.43,7.64,17.07,17.07,17.07h411.99v-199.05Z"></path></g><g><rect class="cls-47" x="812.68" y="293.24" width="571.86" height="244.41" rx="14.57" ry="14.57"></rect><rect class="cls-48" x="845.74" y="327.17" width="10.41" height="176.5"></rect><rect class="cls-48" x="872.44" y="327.17" width="10.41" height="176.5"></rect><rect class="cls-48" x="899.17" y="327.17" width="10.41" height="176.5"></rect><rect class="cls-48" x="925.91" y="327.17" width="10.41" height="176.5"></rect><rect class="cls-48" x="952.61" y="327.17" width="10.41" height="176.5"></rect><rect class="cls-48" x="979.35" y="327.17" width="10.41" height="176.5"></rect><rect class="cls-53" x="845.74" y="426" width="10.41" height="77.71"></rect><rect class="cls-53" x="872.44" y="393.73" width="10.41" height="109.99"></rect><rect class="cls-53" x="899.17" y="377.3" width="10.41" height="126.38"></rect><rect class="cls-53" x="925.91" y="393.73" width="10.41" height="109.99"></rect><rect class="cls-53" x="952.61" y="361.45" width="10.41" height="142.26"></rect><rect class="cls-53" x="979.35" y="343.94" width="10.41" height="159.77"></rect><path class="cls-56" d="M1108.6,357.12c0,15.95-12.91,28.87-28.87,28.87s-28.87-12.91-28.87-28.87,12.91-28.87,28.87-28.87,28.87,12.91,28.87,28.87Z"></path><rect class="cls-48" x="1124.15" y="332.82" width="233.49" height="7.77"></rect><rect class="cls-48" x="1124.15" y="355.46" width="233.49" height="7.77"></rect><rect class="cls-45" x="1124.15" y="378.11" width="97.82" height="7.77"></rect><path class="cls-56" d="M1108.6,468.73c0,15.95-12.91,28.87-28.87,28.87s-28.87-12.91-28.87-28.87,12.91-28.87,28.87-28.87,28.87,12.91,28.87,28.87Z"></path><rect class="cls-48" x="1124.15" y="444.43" width="233.49" height="7.77"></rect><rect class="cls-48" x="1124.15" y="467.07" width="233.49" height="7.77"></rect><rect class="cls-45" x="1124.15" y="489.72" width="97.82" height="7.77"></rect></g><g><path class="cls-51" d="M1078.52,493.67s9.63-8.82,9.63-22.24h29.27s.57,18.49,7.57,22.24h-46.47Z"></path><path class="cls-51" d="M1031.77,527.88l-60.47,17.54c-2.26,.68-4.66,.74-7,.3l-63.95-12.98-4.93-12.37-.78,.27c-2.7,.91-4.5,3.41-4.5,6.25v3.65l-4.02,1.86-12.78,2.97-3.24,2.1h-11.9l4.29,3.92c.64,.57,1.42,.98,2.3,1.08l28.63,4.29,13.11,2.37,51.65,21.19c3.41,1.39,7.17,1.69,10.75,.78l65.88-16.39-3.08-26.8,.03-.03Z"></path><path class="cls-51" d="M1167.71,527.88l60.47,17.54c2.26,.68,4.66,.74,7,.3l63.95-12.98,4.93-12.37,.78,.27c2.7,.91,4.5,3.41,4.5,6.25v3.65l4.02,1.86,12.78,2.97,3.24,2.1h11.9l-4.29,3.92c-.64,.57-1.42,.98-2.3,1.08l-28.63,4.29-13.11,2.37-51.65,21.19c-3.41,1.39-7.17,1.69-10.75,.78l-65.88-16.39,3.08-26.8-.03-.03Z"></path><path class="cls-51" d="M1103.46,429.72c-.98-3.52-3.21-6.9-6.59-8.35l4.5-3.68c-1.96,.07-3.95,.24-5.81,.81-1.89,.57-3.62,1.55-5.37,2.43-2.64,1.32-4.06,1.52-5.41,4.33-1.39,2.94-2.81,5.91-4.19,8.86-.61,1.28-1.25,2.6-1.66,3.99-.61,2.03-.74,4.16-.91,6.25-.14,1.76-.24,3.52-.37,5.24-.1,1.55-.2,3.14-.07,4.7,.2,1.96,.84,3.85,1.49,5.75,1.15,3.35,2.26,8.15,5.24,10.31,3.14,2.3,6.56,4.29,10.58,4.33,.88,0,1.79-.1,2.53-.57,.71-.51,1.15-1.28,1.52-2.1,4.53-9.67,4.93-20.65,5.27-31.33,.1-3.65,.2-7.4-.74-10.92v-.03Z"></path><rect class="cls-51" x="1148.85" y="951.29" width="20.31" height="17"></rect><path class="cls-52" d="M1165.01,962.98h-16.53l-3.11,9.29v4.46c0,2.47,1.99,4.46,4.46,4.46h17.24l18.25-6.9v-3.14c0-5.17-2.47-10-6.66-13.05l-9.53-6.9v11.02l-4.12,.68v.07Z"></path><path class="cls-62" d="M1149.87,975.02h17.24l17.91-6.76c.17,.95,.34,1.93,.34,2.91v3.14l-18.25,6.9h-17.24c-2.47,0-4.46-1.99-4.46-4.46v-4.46l.2-.64c.51,1.93,2.16,3.41,4.26,3.41v-.03Z"></path><rect class="cls-51" x="1043.06" y="951.26" width="20.31" height="17"></rect><path class="cls-62" d="M1051.85,681.36s-4.33,29.57-7.71,58.14c-.74,6.19-1.08,12.44-1.08,18.66v197.56h20.31s15.72-68.82,18.86-114.72c.84-12.17,2.94-24.2,5.58-36.13l21.36-96.09v-23.52l-57.32-3.92v.03Z"></path><path class="cls-62" d="M1160.52,688.9s4.56,25.52,7.98,54.35c.44,3.65,.64,7.3,.64,10.95v201.55l-20.31,.37s-17.37-66.11-19.54-116.54c-.34-8.01-1.83-15.92-3.52-23.76l-22.78-77.6v-52.9l57.53,3.62v-.03Z"></path><path class="cls-52" d="M1047.18,962.98h16.53l3.11,9.29v4.46c0,2.47-1.99,4.46-4.46,4.46h-17.24l-18.25-6.9v-3.14c0-5.17,2.47-10,6.66-13.05l9.53-6.9v11.02l4.12,.68v.07Z"></path><path class="cls-62" d="M1062.33,975.02h-17.24l-17.91-6.76c-.17,.95-.34,1.93-.34,2.91v3.14l18.25,6.9h17.24c2.47,0,4.46-1.99,4.46-4.46v-4.46l-.2-.64c-.51,1.93-2.16,3.41-4.26,3.41v-.03Z"></path><path class="cls-61" d="M1125.03,491.75l22.75,7.06c8.31,2.57,51.27,33.77,51.27,33.77l-12.74,31.5-27.51-9.97,5.81,151.86c-17.68-14.94-75.75,22.41-121.58-5.85,0,0,21.02-97.11,6.9-143.24l-32.11,6.69-14.94-31.91,20.75-13.01c3.55-2.23,7.06-4.56,10.24-7.27,7.4-6.29,16.05-10.98,25.38-13.79l19.27-5.81h46.51v-.03Z"></path><path class="cls-62" d="M1130.4,446.76c-.47-3.21,.37-6.42,.64-9.63,.41-4.66-.37-9.06-2.53-13.25-1.69-3.31-3.65-6.56-6.46-8.99-5.41-4.73-13.11-5.78-20.31-5.68-2.2,0-4.43,.14-6.46,.98-1.59,.64-3.01,1.72-4.66,2.26-1.08,.34-2.23,.41-3.35,.68-1.52,.37-2.94,1.08-4.29,1.83-1.42,.81-2.84,1.69-3.79,3.04-2.53,3.58-1.89,10.82-.24,14.64,.61,1.45,1.52,2.81,2.1,4.26,2.2,5.34,.17,11.56,1.66,17.17,1.01,3.89,3.58,7.13,5.04,10.85,.91,2.37,1.39,4.93,2.81,7.03,2.87,4.22,7.94,4.73,12.51,5.71,5.64,1.22,10.78,3.04,16.7,3.18,10.24,.2,8.01-9.16,11.22-15.82,.74-1.52,1.79-2.91,2.26-4.5,1.35-4.53-2.16-9.02-2.84-13.72v-.03Z"></path></g><path class="cls-51" d="M720.27,185.42l-26.13,20.52-7.33,89.13v19.23c0,1.49,.64,2.91,1.79,3.89h0c.91,.78,2.1,1.22,3.31,1.22h11.63v11.66c0,1.69,1.39,3.08,3.08,3.08h0c1.72,0,3.11-1.42,3.08-3.14l-.37-19.4,2.16-.24c1.96-.2,3.35-2.06,3.01-3.99l-.64-3.79c-.07-1.83-.88-3.58-2.23-4.8l-3.68-3.28-4.39-6.9,9.9-62.02,25.42-17.61-18.59-23.59v.03Z"></path><path class="cls-51" d="M960.12,177.41l93.79,82.37,24.34,11.86h14.94c1.89,0,3.45,1.55,3.45,3.45h0c0,1.89-1.55,3.45-3.45,3.45h-42.59c-3.65,0-7.06-1.89-8.96-5.04l-1.99-3.24-74.43-52.39-28.53-16.56,23.39-23.93,.03,.03Z"></path><path class="cls-62" d="M858.28,114.07l40.29,14.36c5.21,1.86,10.04,4.53,14.36,7.98l49.21,38.94-27.88,28.49s-28.53-16.7-29.71-14.06c-3.04,6.86-5.14,60.94-5.14,60.94l3.68,27.75h-119.04l2.47-29-11.53-54.82-34.81,16.66-22.14-28.7,49.62-47.05c3.45-3.28,7.4-5.91,11.73-7.88l30.28-13.59h48.57l.03-.03Z"></path><g class="cls-63"><polygon class="cls-58" points="784.8 269.82 901.98 269.82 903.09 278.43 784.09 278.43 784.8 269.82"></polygon></g><path class="cls-51" d="M834.31,156.55h0c10.92,0,19.77-8.86,19.77-19.77v-18.15h-39.51v18.15c0,10.92,8.86,19.77,19.77,19.77h-.03Z"></path><path class="cls-52" d="M802.98,75.67c.24-2.16,.3-6.52,.74-8.69,.88-4.33,3.99-9.13,7.06-12.27,2.53-2.64,1.55-2.37,4.56-4.46,5.27-3.68,14.33-5.14,20.75-4.73,2.74,.17,5.41,.88,8.01,1.66,.61,.17,7.27,4.29,6.05,4.9,2.87-1.45,6.46-.03,8.86,2.1,3.89,3.48,5.85,8.55,7.67,13.45,.88,2.33,1.72,4.66,2.6,7,.78,2.1,1.55,4.46,.74,6.52-.37,.91-1.01,1.69-1.42,2.6-1.05,2.33-.3,5.04-.14,7.6,.27,3.68-.84,7.4-2.91,10.48-1.96,2.87-5.1,3.82-7.2,6.19l1.08-.34c-8.79,5.48-19.91,4.87-30.22,4.09-4.9-.37-9.77-.74-14.67-1.12-2.64-.2-5.51-.54-7.3-2.47-1.79-1.99-1.79-4.97-2.67-7.5-1.15-3.38-3.92-6.05-4.83-9.5-1.39-5.24,2.64-10.11,3.21-15.48v-.03Z"></path><path class="cls-51" d="M834.04,136.58h0c13.45,0,24.34-10.92,24.34-24.34v-34h-48.71v34c0,13.45,10.92,24.34,24.34,24.34h.03Z"></path><path class="cls-52" d="M803.66,79.35c2.3-5.04,7.17-8.52,12.4-10.34,5.24-1.79,10.85-2.1,16.36-2.23,2.81-.07,5.64-.1,8.42,.44,3.35,.64,6.52,2.06,9.63,3.45,2.2,.98,4.39,1.99,6.59,2.97,2.06,.95,4.22,1.93,5.58,3.72,2.43,3.21,1.62,7.81,.24,11.59l-.84,.68c-6.56-.88-11.39-6.29-15.95-11.05-.27-.27-.54-.54-.91-.64-.47-.1-.91,.14-1.32,.37-6.96,3.82-15.07,4.87-22.95,5.71-5.91,.64-12.67,.95-16.97-3.18-.2-.2-.41-.41-.44-.68-.07-.3,.07-.61,.17-.88v.07Z"></path><path class="cls-52" d="M858.48,115.89c.91-4.93,.95-10,.1-14.94-1.86,2.6-2.57,5.85-4.02,8.69s-4.22,5.51-7.4,5.14c-3.79-.44-5.81-4.66-9.16-6.49-2.03-1.12-4.46-1.25-6.73-.74-2.26,.47-4.33,1.55-6.29,2.81-2.5,1.59-5.24,3.52-8.11,2.81-1.86-.44-3.31-1.99-4.22-3.68s-1.39-3.58-2.06-5.37c-.17-.41-.34-.74-.78-.84-2.64,5.31-1.69,13.55,.2,18.93,2.13,6.05,6.52,11.36,12.27,14.16,4.43,2.16,9.5,2.81,14.43,2.5,3.48-.2,7-.91,10-2.67,4.43-2.57,7.37-7.1,9.29-11.83,1.12-2.74,1.93-5.58,2.47-8.45h0Z"></path><g><rect class="cls-51" x="209.15" y="931.92" width="25.72" height="27.75"></rect><rect class="cls-51" x="67.02" y="926.96" width="27.75" height="25.72" transform="translate(-845.32 761.12) rotate(-74.16)"></rect><polygon class="cls-60" points="189.11 713.95 236.19 807.44 238.01 944.83 206.44 944.83 203.44 829.37 155.17 760.46 189.11 713.95"></polygon><polygon class="cls-7" points="192.86 721.38 181.03 743.66 178.73 794.09 155.17 760.46 189.11 713.95 192.86 721.38"></polygon><path class="cls-60" d="M189.11,713.95l1.25,2.47-14.5,27.28-36.44,86.19c-2.4,5.68-5.78,10.88-10,15.38h0l-35.08,97.61-27.85-3.01,17.81-75.85c3.11-13.93,8.18-27.45,15.85-39.51,1.93-3.01,3.35-6.15,3.35-8.89l12.91-79.87-2.2-8.69c-1.93-7.67-1.32-15.75,1.79-23.05l3.41-8.04,69.7,17.95v.03Z"></path><path class="cls-50" d="M238.01,588.72l34.54,46.37c1.01,1.49,2.64,2.5,4.43,2.74l55.33,7.37c2.64,.41,5.21-.98,6.35-3.35l9.7-20.11v-13.15c0-3.72,2.94-6.76,6.69-6.9h0v38.97l-9.23,13.49c-.98,1.42-2.53,2.33-4.26,2.47l-68.14,5.41c-3.24,.27-6.46-1.01-8.62-3.48l-58.37-65.91,31.57-3.95v.03Z"></path><rect class="cls-51" x="225.02" y="551.3" width="26.06" height="25.21" transform="translate(-366.31 466.85) rotate(-57.99)"></rect><path class="cls-51" d="M267.42,511.48v9.9s-.24,11.83,5.07,16.7l-3.79,.95v3.79c.14,9.46-7.5,17.2-16.97,17.2h-11.22c-5.51,0-10.41-3.52-12.2-8.72l-9.36-27.48,3.72-15.95s32.18-10.92,44.72,3.58l.03,.03Z"></path><path class="cls-62" d="M246.56,604.3l-7.6-18.52,2.84-4.12-26.74-17.74-21.87,8.01c-3.41,1.25-6.29,3.72-8.01,6.93l-30.05,59.93c-.27,.51-.57,1.01-.88,1.49l-37.86,54.89,80.17,24.07,5.95-41.27c.44-1.99,1.35-3.85,2.67-5.44l37.86-45.22,3.48-23.05,.03,.07Z"></path><path class="cls-62" d="M284.73,976.5l-1.18-2.87c-2.23-5.34-6.25-9.73-11.39-12.4l-21.36-7.84-14.43-9.09v7.74l-16.56-.3-6.76-3.79-4.73,.07v28.46h76.46l-.03,.03Z"></path><rect class="cls-59" x="204.15" y="976.5" width="82.54" height="4.53"></rect><path class="cls-62" d="M127.89,977.96l-.98-4.06c-1.58-3.49-3.7-6.4-6.35-8.72l-17.34-11.53-10.92-11.15-1.66,6.9-14.67-3.82-5.21-4.8-4.22-.95-6.08,25.35,59.79,14.33,7.71-1.55h-.07Z"></path><polygon class="cls-59" points="55.76 968.36 106.6 980.53 112.99 977.79 56.74 964.3 55.76 968.36"></polygon><polygon class="cls-59" points="129.45 980.7 106.6 981 106.6 976.54 129.45 976.54 129.45 980.7"></polygon><path class="cls-64" d="M232.44,490.02c3.92-.81,8.04-.51,11.83,.81,2.33,.81,4.19,2.53,6.56,3.04,2.81,.61,5.91,.1,8.75,.07,1.89,0,3.82,0,5.61,.47,1.83,.51,3.55,1.66,4.33,3.35,.74,1.59,.57,3.41,.41,5.14-.27,2.94,0,6.29-1.66,8.82-1.55,2.37-3.72,2.67-6.25,3.48-1.12,.34-2.23,.71-3.18,1.39-3.18,2.33-3.18,7.5-6.42,9.77-2.2,1.55-5.51,1.39-7.17,3.52-1.32,1.72-.95,4.16-1.35,6.29-.51,2.81-2.53,5.27-5.17,6.35-.71,.3-1.49,.51-2.03,1.01-.47,.44-.71,1.08-.88,1.69-.91,3.62,.64,7.98-1.69,10.92-1.62,2.06-4.22,2.2-6.25,3.58-2.6,1.83-1.99,3.41-2.1,6.59-.07,2.37-.14,4.8,.78,7,1.12,2.7,3.48,4.6,5.78,6.42-2.16-.95-4.36-1.76-6.62-2.47,.37,5.31,.74,10.61,1.79,15.82-3.04-1.66-4.87-4.83-6.62-7.81-1.18-1.99-2.94-4.29-5.24-3.99-.74,1.72-1.72,3.31-2.94,4.73-1.05-3.21-2.74-6.52-5.17-8.89-1.39,2.1-2.91,4.02-4.53,6.02-1.62,1.96-3.08,4.46-2.57,6.96-.44-2.57-1.35-5.04-2.67-7.27-5.78,5.48-11.93,11.15-19.71,12.95-.54-5.1,2.6-9.77,4.97-14.3,1.22-2.37,3.28-5.75,3.31-8.48,.03-2.5-1.45-4.53-.78-7.17,1.22-4.83,7.74-7,8.69-11.9,.44-2.2-.37-4.5,.2-6.62,.64-2.23,2.64-3.79,4.02-5.64,2.03-2.74,2.23-5.71,2.84-8.92,.47-2.6,1.79-3.95,2.77-6.25,2.06-4.97-3.92-10.68,2.33-14.53,.98-.61,2.1-.95,2.94-1.69,1.08-.91,1.62-2.3,2.2-3.62,1.39-3.24,3.11-6.32,5.1-9.19,.71-1.01,1.49-2.03,2.57-2.64,1.05-.57,2.23-.68,3.38-.98,1.86-.51,3.55-1.55,5.31-2.37,1.45-.68,2.97-1.15,4.53-1.49v.03Z"></path><path class="cls-44" d="M206.99,601.49c4.6,2.13,9.23,5.98,8.01,10.85,5.51,1.49,6.59,6.86,12.34,10.14,1.01,.57,1.25,1.93,.78,2.87,1.15,.51,2.26,1.01,3.41,1.52,.88,.37,1.12,1.35,.95,2.23,1.99,1.32,3.68,2.91,5.17,4.77l-2.81,3.38c-1.86-2.57-3.55-6.39-6.49-7.91-.64-.34-3.45-3.38-3.48-4.06-2.06-.74-2.26,2.64-2.53,.64-.1-.71,.03-1.25,.3-1.72-3.38-3.14-5.1-6.05-8.86-6.05-1.52,0-1.59-1.22-.64-2.57,3.04-4.39-4.29-12.03-6.69-13.15-2.5-1.15-1.96-2.03,.54-.88v-.07Z"></path><path class="cls-51" d="M246.56,604.3l26.03,37.69c1.01,1.49,2.64,2.5,4.43,2.74l55.33,7.37c2.64,.41,5.21-.98,6.35-3.35l9.7-20.11v-13.15c0-3.72,2.94-6.76,6.69-6.9h0v38.97l-9.23,13.49c-.98,1.42-2.53,2.33-4.26,2.47l-68.14,5.41c-3.24,.27-6.46-1.01-8.62-3.48l-44.38-47.76,26.13-13.42-.03,.03Z"></path><path class="cls-44" d="M190.09,671.56c-.95-1.55,.57-.2,2.33,.37,.81,.27,2.4,.54,3.99,.81,2.47,.44,5.07-.64,6.19-2.87,0-.03,.03-.07,.07-.1-1.35-.51-6.12-4.06-7.54-4.43-2.7-.68-2.6-1.35,.07-.81,4.7,.95,9.36,2.06,13.96,3.28l-3.95,4.73c-1.08,1.28-1.83,2.81-2.33,4.39-.17-.07-.34-.14-.47-.2,.14,.2,.24,.37,.34,.57-.07,.24-.17,.44-.24,.64l-1.76,12.3c-.44-.24-.81-.64-1.01-1.25-.64-2.2-1.32-4.39-1.96-6.59-.37-1.28,.41-2.23,1.45-2.5-2.3-3.38-6.76-4.5-9.16-8.38l.03,.03Z"></path><path class="cls-44" d="M166.09,643.57c-6.32-4.73-3.99,.37-6.29-.91,.34,.57,3.52,4.06,3.85,4.63,.88,1.59-3.45,.78-5.27,.27-.17-.03-.3-.07-.47-.1,.27,.2,0,1.93,.27,2.13,1.83,1.52,.27,2.33-1.59,2.03-4.26-.68-7.13-.51-11.12,1.35l7.33-10.65c.68,.03,1.39-.98,1.05-1.55l.37-.54c.34-.47,.64-.98,.88-1.52l1.28-2.57c.74,.37,1.18-.74,.84-1.66l6.32-12.64c.47,.61,.68,1.42,.17,2.3-2.06,3.68-3.52,6.62-1.35,10.68,1.66,3.11,4.43,5.91,6.76,8.55,1.52,1.72-1.05,1.69-3.11,.17l.07,.03Z"></path><path class="cls-47" d="M219.46,964.3c0,3.04,2.47,5.51,5.51,5.51s5.51-2.47,5.51-5.51-2.47-5.51-5.51-5.51-5.51,2.47-5.51,5.51Z"></path><path class="cls-47" d="M68.68,958.79c0,3.04,2.47,5.51,5.51,5.51s5.51-2.47,5.51-5.51-2.47-5.51-5.51-5.51-5.51,2.47-5.51,5.51Z"></path></g><g><path class="cls-51" d="M700.16,959.6l-15.31,6.79-24.47,6.25c-3.14,.71-5.41,3.52-5.41,6.76h0l71.39-.3-1.76-12.51-10.21-7h-14.23Z"></path><path class="cls-62" d="M693.1,971.94l-8.25-5.51-23.96,4.06c-3.14,.71-5.91,5.71-5.91,8.96h0l71.39-.3-1.76-12.51-5.81,5.1-10.17-.1c-4.7,.88-11.32,2.6-15.51,.3Z"></path><polygon class="cls-51" points="721.69 966.6 700.16 961.16 700.16 931.48 721.69 931.48 721.69 966.6"></polygon><path class="cls-62" d="M873.66,877.74s-136.38-49.31-152.27-43.2c0,0-20.35,0-24.67,32.38l.78,69.9h26.74l7.06-53.37c1.12-3.41,5.04-4.97,8.18-3.21l82.44,45.93,51.78-48.4-.03-.03Z"></path><path class="cls-62" d="M800.68,890.25l-82.47,50.8c-4.9,3.01-7.88,8.35-7.88,14.09v4.87c0,10.71,8.69,19.37,19.37,19.37l112.05-5.54v-32.65s34.34-13.38,32.65-41.98l-73.72-9.02v.07Z"></path><polygon class="cls-51" points="847.8 938.34 904.14 979.44 904.14 979.44 841.78 973.9 841.78 941.25 847.8 938.34"></polygon><path class="cls-62" d="M847.8,938.34l-6.02,2.91v13.99h0c3.75-1.83,8.18-1.66,11.8,.47l27.72,21.12c2.2,1.69,4.9,2.57,7.64,2.57h15.18l-56.34-41.07h.03Z"></path><path class="cls-51" d="M792.23,701.71s13.32,25.49,3.08,40.66l36.27-3.35-14.5-46.14-24.84,8.86v-.03Z"></path><path class="cls-62" d="M820.89,689.1c-.47-2.94-1.79-5.64-3.11-8.35-3.95-8.15-8.21-16.6-15.55-21.87-3.24-2.3-6.96-3.92-9.9-6.59-.71,.44-1.42,.88-2.13,1.32l-3.95,.68c-3.89,.71-7.44,3.38-8.89,7.06-1.45,3.68-.61,8.21,2.26,10.92,1.72,1.66,4.02,2.53,6.12,3.72,4.46,2.5,8.21,6.32,10.58,10.85,.84,1.62,1.55,3.35,2.6,4.87,3.31,4.6,9.36,6.05,14.91,7.17,1.05,.2,2.16,.41,3.18,.1,.78-.24,1.42-.78,1.96-1.42,1.93-2.26,2.4-5.48,1.93-8.42v-.03Z"></path><path class="cls-51" d="M819.68,679.17c-3.04-5.34-6.08-10.68-9.73-15.58-1.08-1.45-2.26-2.91-3.85-3.82-1.55-.88-3.35-1.15-5.1-1.35-4.36-.51-8.75-.64-13.15-.44l-.68,.95c-1.22,3.14-2.13,6.35-2.77,9.67-.71,3.48-5.88,11.76-6.25,15.35-.07,.54,4.63,1.05,4.56,1.59-.17,1.89-.34,3.79-.47,5.64-.27,3.52-.57,2.37,.17,5.81s2.64,6.83,5.75,8.48c3.52,1.89,7.81,1.28,11.63,.2,5.37-1.52,10.51-3.92,15.14-7.03,3.89-2.64,7.71-6.39,7.77-11.09,0-2.97-1.49-5.75-2.97-8.35l-.03-.03Z"></path><path class="cls-47" d="M847.26,750.62c-7.57,23.36,34.75,148.99,34.75,148.99-18.08,23.9-61.65-9.63-89.77-3.48,0,0,.3-52.76-10.34-76.35l-14.33-23.32c-3.24-5.27-2.97-12,.68-17l27.04-37.04,38.73-14.7c3.24-1.22,6.93-.27,9.16,2.4h0c4.77,5.71,6.39,13.49,4.09,20.55v-.03Z"></path><path class="cls-62" d="M854.36,747.37c.68-17.34-5.54-34.31-6.02-51.68-.34-13.49,2.4-28.43-5.61-39.31-6.59-8.96-18.66-12.03-29.78-12.24-5.44-.1-10.98,.37-16.02,2.4-3.08,1.25-6.05,3.31-8.42,5.64-1.32,1.28-2.74,2.47-2.1,4.19,.57,1.55,3.24,2.94,4.66,3.48,1.99,.78,4.19,.91,6.25,1.52,4.9,1.42,5.24,5.04,5.91,9.5,.78,5.24,1.22,10.51,1.35,15.78,.07,2.06,.07,4.19,.44,6.19,.2,1.01,.47,2.03,.91,2.97,1.59,3.52,4.83,5.88,7.81,8.31,2.4,1.96,5.41,4.63,6.12,7.81,.81,3.72-.61,7.71,.41,11.59,1.62,6.25,7.2,10.48,11.29,15.45,6.05,7.44,8.96,17.04,9.84,26.6,.88,9.57,8.72,21.4,10.28,28.7,6.73-15.01,1.99-30.49,2.64-46.91h.03Z"></path><path class="cls-51" d="M670.52,774.89l63.44,49.11c2.67,2.06,6.25,2.57,9.4,1.35l78.58-30.96c8.01-3.14,11.29-12.67,7-20.11h0c-3.58-6.15-11.19-8.65-17.68-5.81l-73.38,31.77-59.01-35.42-5.31-7.44-12.03-8.11-1.76-.44v5.58l.95,.27,1.22,3.38-13.15-2.3-17.74-3.24c-.71,.57-.54,2.91,0,3.65l14.77,4.6-.14,1.62-17.34-4.46c-.74,.57-.57,3.04,0,3.79l17.41,5.27-.41,2.03-15.75-3.79c-.51,.41-.37,2.06,0,2.57l15.11,4.8c.17,.27,.17,1.08-.07,1.28l-13.62-2.37c-2.1,1.49-.2,3.14,.07,3.45l25.38,3.58c2.81,.41,5.64,0,8.21-1.12l5.91-2.57-.07,.03Z"></path><path class="cls-47" d="M832.99,771.44c-3.82-6.59-12-9.26-19-6.25l-40.29,13.89c-3.79,8.28,15.11,20.65,13.55,33.77l38.26-19.84c8.59-3.38,12.13-13.62,7.5-21.56h-.03Z"></path></g><g><path class="cls-60" d="M977.62,959.47c0,11.29-9.16,20.45-20.45,20.45s-20.45-9.16-20.45-20.45,9.16-20.45,20.45-20.45,20.45,9.16,20.45,20.45Z"></path><path class="cls-47" d="M964.58,971.2l-7.06-3.58s-.3-.07-.44,0l-6.96,3.79c-.34,.17-.74-.1-.68-.47l1.25-7.81s0-.3-.14-.41l-5.75-5.44c-.27-.27-.14-.74,.24-.81l7.81-1.25s.27-.14,.34-.27l3.41-7.13c.17-.34,.68-.37,.84,0l3.58,7.06s.2,.24,.37,.24l7.84,1.05c.37,.07,.54,.51,.27,.81l-5.61,5.61s-.17,.27-.14,.41l1.45,7.77c.07,.37-.34,.68-.68,.51l.03-.07Z"></path></g><g><rect class="cls-52" x="1386.27" y="948.38" width="42.25" height="31.84" rx="6.29" ry="6.29"></rect><polygon class="cls-47" points="1415.91 964.3 1398.87 974.14 1398.87 954.47 1415.91 964.3 1398.87 974.14 1398.87 954.47 1415.91 964.3"></polygon></g></g></svg> 