<?xml version="1.0" encoding="UTF-8"?> <svg xmlns="http://www.w3.org/2000/svg" xmlns:xlink="http://www.w3.org/1999/xlink" id="BACKGROUND" viewBox="0 0 5617.92 2575.73"><defs><style> .cls-1 { fill: #fddb60; } .cls-2 { fill: #17b088; } .cls-3 { fill: #fbf7ff; isolation: isolate; } .cls-3, .cls-4 { opacity: .45; } .cls-5 { fill: url(#linear-gradient); stroke: #000; stroke-miterlimit: 10; } </style><linearGradient id="linear-gradient" x1="3023.98" y1="1482.72" x2="3023.98" y2="-2348.15" gradientTransform="translate(0 1808)" gradientUnits="userSpaceOnUse"><stop offset="0" stop-color="#02001a"></stop><stop offset="1" stop-color="#342066"></stop></linearGradient></defs><rect class="cls-5" x="-830.83" y="-540.15" width="7709.63" height="3830.87"></rect><path class="cls-3" d="m3736.1-552.26c99.18,10.77,160.19,105.81,187.58,192.85,30.56,97.13,36.18,202.19,86.55,292.57,21.11,37.88,49.85,72.24,87.26,94.87,43.23,26.14,94.46,33.83,144.26,32.68,111.53-2.58,220.66-47.85,331.93-17.02,101.94,28.25,183.44,100.12,261.56,167.88,39.63,34.37,79.6,68.65,123.3,97.81,41.86,27.93,89.16,51.93,140.15,55.73,44.01,3.27,86.01-12.33,117.06-43.66,29.62-29.89,47.87-69.32,62.11-108.38,18.43-50.54,32.37-102.87,47.94-154.34,16.56-54.73,31.37-110.42,50.57-164.3,9.02-25.3,20.19-49.9,35.98-71.75,15.2-21.03,34.01-39.19,52.96-56.8,34.93-32.46,69.69-64.23,93.29-106.27,46.12-82.16,50.85-180.37,47.67-272.4-.82-23.7-2.23-47.37-3.79-71.03-.42-6.42-10.48-6.47-10.05,0,6.17,93.62,11.5,191.73-18.08,282.22-15,45.9-39.89,86.24-73.86,120.5-33.84,34.14-72.97,63.6-100.31,103.69-30.15,44.21-43.05,97.95-58.35,148.49-17.14,56.66-34.29,113.31-51.43,169.97-23.66,78.19-51.92,183.93-141.41,209.36-50.82,14.44-104.78-3.43-149.51-27.8-46.89-25.54-88.86-59.73-129.37-94.24-77.66-66.15-153.17-138.46-248.57-178.56-47.49-19.96-97.56-29.32-149.06-27.32-56.68,2.2-112.09,15.28-168.13,22.89-51.27,6.96-105.01,9.43-155.15-5.55-46.41-13.86-84.59-43.94-112.38-83.21-58.93-83.26-68.52-186.82-93.28-282.91-22.33-86.68-64.31-178.67-149.51-219.56-18.33-8.8-37.72-14.27-57.92-16.46-6.42-.7-6.37,9.36,0,10.05h-.01,0Z"></path><path class="cls-3" d="m-71.31,549.41c82.09,58.11,144.82,142.07,178.96,236.55,17.15,47.46,26.86,97.33,28.67,147.76,2.03,56.65-4.83,113.18-13.8,169.02-17.54,109.16-45.1,220.31-30.24,331.47,3.53,26.43,9.65,52.37,18.25,77.61,8.99,26.35,20.05,51.92,30.43,77.73,20.25,50.37,39.51,105.08,27.87,159.96-10.42,49.18-44.46,90.06-85.01,118.24-46.41,32.25-101.67,48.31-156.17,60.75-13.8,3.15-27.66,6.08-41.51,9-2.96.62-1.71,5.16,1.25,4.54,101.22-21.36,220.03-49.65,271.35-150.39,53.35-104.74-25.6-208.82-52.07-308.6-30.03-113.2-5-230.96,14.45-343.65,9.72-56.34,18.67-113.09,20.07-170.34,1.28-52.33-4.67-104.42-19.35-154.72-27.99-95.92-84.93-183.52-162.12-247.11-9.28-7.65-18.86-14.92-28.67-21.87-2.47-1.75-4.83,2.32-2.37,4.06h0Z"></path><g class="cls-4"><path class="cls-1" d="m518.51,243.05c0-46.95,38.2-85.15,85.15-85.15s85.15,38.2,85.15,85.15-38.2,85.15-85.15,85.15-85.15-38.2-85.15-85.15h0Zm166.91,0c0-45.08-36.67-81.76-81.76-81.76s-81.76,36.67-81.76,81.76,36.67,81.76,81.76,81.76,81.76-36.67,81.76-81.76h0Z"></path><path class="cls-1" d="m464.38,202.45c0-46.95,38.2-85.15,85.15-85.15s85.15,38.2,85.15,85.15-38.2,85.15-85.15,85.15-85.15-38.2-85.15-85.15h0Zm166.91,0c0-45.08-36.67-81.76-81.76-81.76s-81.76,36.67-81.76,81.76,36.67,81.76,81.76,81.76,81.76-36.67,81.76-81.76h0Z"></path></g><g class="cls-4"><path class="cls-2" d="m5205.11,2292.01c-28.09,0-42.29-10.08-56.02-19.83-13.74-9.76-26.72-18.98-53.28-18.98s-39.52,9.22-53.27,18.98c-13.73,9.75-27.92,19.83-56.01,19.83s-42.29-10.08-56.01-19.83c-13.74-9.76-26.72-18.98-53.27-18.98v-3.88c28.09,0,42.29,10.08,56.01,19.83,13.74,9.76,26.72,18.98,53.27,18.98s39.53-9.22,53.27-18.98c13.72-9.75,27.92-19.83,56.01-19.83s42.29,10.08,56.02,19.83c13.74,9.76,26.72,18.98,53.27,18.98s39.53-9.22,53.28-18.98c13.73-9.75,27.92-19.83,56.02-19.83v3.88c-26.55,0-39.53,9.22-53.28,18.98-13.73,9.75-27.92,19.83-56.02,19.83h0Z"></path><path class="cls-2" d="m5205.11,2336.54c-28.09,0-42.29-10.08-56.02-19.83-13.74-9.76-26.72-18.98-53.28-18.98s-39.52,9.22-53.27,18.98c-13.73,9.75-27.92,19.83-56.01,19.83s-42.29-10.08-56.01-19.83c-13.74-9.76-26.72-18.98-53.27-18.98v-3.88c28.09,0,42.29,10.08,56.01,19.83,13.74,9.76,26.72,18.98,53.27,18.98s39.53-9.22,53.27-18.98c13.72-9.75,27.92-19.83,56.01-19.83s42.29,10.08,56.02,19.83c13.74,9.76,26.72,18.98,53.27,18.98s39.53-9.22,53.28-18.98c13.73-9.75,27.92-19.83,56.02-19.83v3.88c-26.55,0-39.53,9.22-53.28,18.98-13.73,9.75-27.92,19.83-56.02,19.83h0Z"></path></g></svg> 